SplineFontDB: 3.0
FontName: CutiveMono-Regular
FullName: Cutive Mono
FamilyName: Cutive Mono
Weight: Regular
Copyright: Copyright (c) 2012, vernon adams (vern@newtypography.co.uk), with Reserved Font Names 'Cutive'.
Version: 1.002
ItalicAngle: 0
UnderlinePosition: -435
UnderlineWidth: 0
Ascent: 1638
Descent: 410
UFOAscent: 1705
UFODescent: -615
LayerCount: 2
Layer: 0 0 "Back"  1
Layer: 1 0 "Fore"  0
NeedsXUIDChange: 1
FSType: 0
OS2Version: 0
OS2_WeightWidthSlopeOnly: 0
OS2_UseTypoMetrics: 0
CreationTime: 1350682231
ModificationTime: 1351225510
PfmFamily: 49
TTFWeight: 400
TTFWidth: 5
LineGap: 0
VLineGap: 0
OS2TypoAscent: 1697
OS2TypoAOffset: 0
OS2TypoDescent: -558
OS2TypoDOffset: 0
OS2TypoLinegap: 0
OS2WinAscent: 1697
OS2WinAOffset: 0
OS2WinDescent: 558
OS2WinDOffset: 0
HheadAscent: 1697
HheadAOffset: 0
HheadDescent: -558
HheadDOffset: 0
OS2Vendor: 'newt'
MarkAttachClasses: 1
DEI: 91125
LangName: 1033 "" "" "" "Cutive Mono Regular Version 1.002" "" "Version 1.002" "" "CutiveMono is a trademark of Vernon Adams." "Vernon Adams" "Vernon Adams" "" "http://newtypography.co.uk" "http://newtypography.co.uk" "This Font Software is licensed under the SIL Open Font License, Version 1.1. This license is available with a FAQ at: http://scripts.sil.org/OFL" "http://scripts.sil.org/OFL" "" "Cutive Mono" "Regular" "Cutive Mono" 
PickledData: "(dp1
S'com.typemytype.robofont.compileSettings.autohint'
p2
I0
sS'com.typemytype.robofont.compileSettings.decompose'
p3
I1
sS'com.typemytype.robofont.foreground.layerStrokeColor'
p4
(F0.5
F0
F0.5
F0.69999999999999996
tp5
sS'com.typemytype.robofont.guides'
p6
((dp7
S'angle'
p8
I0
sS'name'
p9
NsS'magnetic'
p10
I5
sS'isGlobal'
p11
I1
sS'y'
I813
sS'x'
I622
s(dp12
g8
I0
sg9
Nsg10
I5
sg11
I1
sS'y'
I731
sS'x'
I631
s(dp13
g8
I0
sg9
Nsg10
I5
sg11
I1
sS'y'
I65
sS'x'
I621
s(dp14
g8
I0
sg9
Nsg10
I5
sg11
I1
sS'y'
I-17
sS'x'
I616
stp15
sS'com.typemytype.robofont.compileSettings.path'
p16

StartChar: .notdef
Encoding: 428 -1 0
Width: 1240
VWidth: 0
Flags: HMW
PickledData: "(dp1
S'com.typemytype.robofont.layerData'
p2
(dp3
S'b'
(dp4
S'name'
p5
S'.notdef'
p6
sS'lib'
p7
(dp8
sS'unicodes'
p9
(tsS'width'
p10
I1024
sS'contours'
p11
(tsS'components'
p12
(tsS'anchors'
p13
(tsss."
LayerCount: 2
Fore
SplineSet
204 102 m 1
 820 102 l 1
 820 990 l 1
 204 990 l 1
 204 102 l 1
102 0 m 1
 102 1092 l 1
 922 1092 l 1
 922 0 l 1
 102 0 l 1
EndSplineSet
EndChar

StartChar: A
Encoding: 33 65 1
Width: 1240
VWidth: 0
Flags: HMW
PickledData: "(dp1
S'com.typemytype.robofont.layerData'
p2
(dp3
S'b'
(dp4
S'name'
p5
S'A'
sS'lib'
p6
(dp7
sS'unicodes'
p8
(tsS'width'
p9
I1240
sS'contours'
p10
(tsS'components'
p11
(tsS'anchors'
p12
(tsss."
LayerCount: 2
Fore
SplineSet
90 0 m 2
 57 0 40 21 40 43 c 0
 40 64 56 86 89 86 c 2
 174 86 l 1
 559 1085 l 1
 342 1085 l 2
 309 1085 292 1106 292 1128 c 0
 292 1149 308 1171 341 1171 c 2
 644 1171 l 2
 690 1171 713 1140 725 1106 c 2
 1087 86 l 1
 1166 86 l 2
 1198 86 1214 65 1214 44 c 0
 1214 22 1197 0 1164 0 c 2
 798 0 l 2
 764 0 747 22 747 44 c 0
 747 65 763 86 796 86 c 2
 982 86 l 1
 875 392 l 1
 392 392 l 1
 280 86 l 1
 439 86 l 2
 472 86 489 64 489 43 c 0
 489 21 472 0 438 0 c 2
 90 0 l 2
425 475 m 1
 845 475 l 1
 646 1072 l 1
 425 475 l 1
EndSplineSet
EndChar

StartChar: AE
Encoding: 131 198 2
Width: 1240
VWidth: 0
Flags: HMW
PickledData: "(dp1
S'com.typemytype.robofont.layerData'
p2
(dp3
S'b'
(dp4
S'name'
p5
S'AE'
p6
sS'lib'
p7
(dp8
sS'unicodes'
p9
(tsS'width'
p10
I1240
sS'contours'
p11
(tsS'components'
p12
(tsS'anchors'
p13
(tsss."
LayerCount: 2
Fore
SplineSet
88 0 m 2
 55 0 38 21 38 43 c 0
 38 64 54 86 87 86 c 2
 138 86 l 1
 463 1085 l 1
 301 1085 l 2
 268 1085 251 1106 251 1128 c 0
 251 1149 267 1171 300 1171 c 2
 1050 1171 l 2
 1083 1171 1106 1151 1106 1117 c 2
 1106 893 l 2
 1106 863 1086 849 1066 849 c 0
 1046 849 1028 862 1027 887 c 2
 1013 1085 l 1
 729 1085 l 1
 729 637 l 1
 871 637 l 1
 884 740 l 2
 887 770 906 785 924 785 c 0
 943 785 962 769 962 732 c 2
 962 460 l 2
 962 425 943 409 924 409 c 0
 905 409 886 424 884 452 c 1
 871 560 l 1
 729 560 l 1
 729 85 l 1
 1016 85 l 1
 1032 296 l 2
 1033 320 1052 335 1073 335 c 0
 1094 335 1115 319 1115 283 c 2
 1115 53 l 2
 1115 19 1092 0 1059 0 c 2
 613 0 l 2
 579 0 562 22 562 43 c 0
 562 64 579 85 612 85 c 2
 642 85 l 1
 642 392 l 1
 327 392 l 1
 231 86 l 1
 398 86 l 2
 431 86 448 64 448 43 c 0
 448 21 431 0 397 0 c 2
 88 0 l 2
642 475 m 1
 642 1085 l 1
 545 1085 l 1
 354 475 l 1
 642 475 l 1
EndSplineSet
EndChar

StartChar: B
Encoding: 34 66 12
Width: 1240
VWidth: 0
Flags: HMW
PickledData: "(dp1
S'com.typemytype.robofont.layerData'
p2
(dp3
S'b'
(dp4
S'name'
p5
S'B'
sS'lib'
p6
(dp7
sS'unicodes'
p8
(tsS'width'
p9
I1240
sS'contours'
p10
(tsS'components'
p11
(tsS'anchors'
p12
(tsss."
LayerCount: 2
Fore
SplineSet
921 885 m 0
 921 1036 793 1085 605 1085 c 2
 499 1085 l 1
 499 673 l 1
 629 673 l 2
 776 673 921 733 921 885 c 0
1008 363 m 0
 1008 575 826 597 629 597 c 2
 499 597 l 1
 499 86 l 1
 605 86 l 2
 841 86 1008 153 1008 363 c 0
1104 348 m 0
 1104 99 881 0 602 0 c 2
 244 0 l 2
 210 0 193 21 193 43 c 0
 193 64 210 86 243 86 c 2
 403 86 l 1
 403 1085 l 1
 237 1085 l 2
 204 1085 188 1107 188 1129 c 0
 188 1150 204 1171 236 1171 c 2
 592 1171 l 2
 817 1171 1007 1106 1007 889 c 0
 1007 766 932 686 843 660 c 1
 985 639 1104 548 1104 348 c 0
EndSplineSet
EndChar

StartChar: C
Encoding: 35 67 13
Width: 1240
VWidth: 0
Flags: HMW
PickledData: "(dp1
S'com.typemytype.robofont.layerData'
p2
(dp3
S'b'
(dp4
S'name'
p5
S'C'
sS'lib'
p6
(dp7
sS'unicodes'
p8
(tsS'width'
p9
I1240
sS'contours'
p10
(tsS'components'
p11
(tsS'anchors'
p12
(tsss."
LayerCount: 2
Fore
SplineSet
1145 336 m 0
 1108 168 959 -17 669 -17 c 0
 361 -17 132 225 132 607 c 0
 132 954 360 1187 668 1187 c 0
 827 1187 968 1113 1022 1015 c 1
 1022 1121 l 2
 1022 1154 1047 1171 1071 1171 c 0
 1096 1171 1120 1154 1120 1120 c 2
 1120 827 l 2
 1120 795 1097 780 1074 780 c 0
 1050 780 1031 797 1026 827 c 0
 995 991 850 1101 671 1101 c 0
 396 1101 228 890 228 600 c 0
 228 263 435 69 670 69 c 0
 863 69 995 182 1049 359 c 0
 1056 379 1072 387 1089 387 c 0
 1116 387 1146 367 1146 343 c 0
 1146 341 1146 338 1145 336 c 0
EndSplineSet
EndChar

StartChar: D
Encoding: 36 68 19
Width: 1240
VWidth: 0
Flags: HMW
PickledData: "(dp1
S'com.typemytype.robofont.layerData'
p2
(dp3
S'b'
(dp4
S'name'
p5
S'D'
sS'lib'
p6
(dp7
sS'unicodes'
p8
(tsS'width'
p9
I1240
sS'contours'
p10
(tsS'components'
p11
(tsS'anchors'
p12
(tsss."
LayerCount: 2
Fore
SplineSet
1084 591 m 0
 1084 168 874 0 513 0 c 2
 152 0 l 2
 118 0 101 21 101 43 c 0
 101 64 118 86 151 86 c 2
 314 86 l 1
 314 1085 l 1
 155 1085 l 2
 123 1085 107 1106 107 1127 c 0
 107 1149 124 1171 157 1171 c 2
 515 1171 l 2
 858 1171 1084 993 1084 591 c 0
988 591 m 0
 988 907 827 1085 534 1085 c 2
 410 1085 l 1
 410 86 l 1
 520 86 l 2
 851 86 988 256 988 591 c 0
EndSplineSet
EndChar

StartChar: Dcroat
Encoding: 429 272 21
Width: 1240
VWidth: 0
Flags: HMW
PickledData: "(dp1
S'com.typemytype.robofont.layerData'
p2
(dp3
S'b'
(dp4
S'name'
p5
S'Dcroat'
p6
sS'lib'
p7
(dp8
sS'unicodes'
p9
(tsS'width'
p10
I1240
sS'contours'
p11
(tsS'components'
p12
(tsS'anchors'
p13
(tsss."
LayerCount: 2
Fore
SplineSet
172 572 m 2
 135 572 126 592 126 611 c 0
 126 630 133 648 168 648 c 2
 314 648 l 1
 314 1085 l 1
 155 1085 l 2
 123 1085 107 1106 107 1127 c 0
 107 1149 124 1171 157 1171 c 2
 515 1171 l 2
 858 1171 1084 993 1084 591 c 0
 1084 168 874 0 513 0 c 2
 152 0 l 2
 118 0 101 21 101 43 c 0
 101 64 118 86 151 86 c 2
 314 86 l 1
 314 572 l 1
 172 572 l 2
978 591 m 0
 978 907 827 1085 534 1085 c 2
 420 1085 l 1
 420 648 l 1
 607 648 l 2
 640 648 646 630 646 611 c 0
 646 592 638 572 605 572 c 2
 420 572 l 1
 420 86 l 1
 520 86 l 2
 851 86 978 256 978 591 c 0
EndSplineSet
EndChar

StartChar: E
Encoding: 37 69 22
Width: 1240
VWidth: 0
Flags: HMW
PickledData: "(dp1
S'com.typemytype.robofont.layerData'
p2
(dp3
S'b'
(dp4
S'name'
p5
S'E'
sS'lib'
p6
(dp7
sS'unicodes'
p8
(tsS'width'
p9
I1240
sS'contours'
p10
(tsS'components'
p11
(tsS'anchors'
p12
(tsss."
LayerCount: 2
Fore
SplineSet
837 437 m 2
 837 402 818 386 799 386 c 0
 780 386 761 401 759 429 c 2
 746 577 l 1
 420 577 l 1
 420 85 l 1
 1035 85 l 1
 1051 336 l 2
 1052 360 1074 375 1095 375 c 0
 1116 375 1137 359 1137 323 c 2
 1137 53 l 2
 1137 19 1114 0 1081 0 c 2
 155 0 l 2
 121 0 104 22 104 43 c 0
 104 64 121 85 154 85 c 2
 324 85 l 1
 324 1085 l 1
 189 1085 l 2
 157 1085 141 1106 141 1127 c 0
 141 1149 158 1171 191 1171 c 2
 1069 1171 l 2
 1102 1171 1125 1151 1125 1117 c 2
 1125 847 l 2
 1125 817 1105 803 1085 803 c 0
 1065 803 1044 816 1043 841 c 2
 1029 1085 l 1
 420 1085 l 1
 420 654 l 1
 746 654 l 1
 759 787 l 2
 762 817 781 832 799 832 c 0
 818 832 837 816 837 779 c 2
 837 437 l 2
EndSplineSet
EndChar

StartChar: Eng
Encoding: 427 330 31
Width: 1240
VWidth: 0
Flags: HMW
PickledData: "(dp1
S'com.typemytype.robofont.layerData'
p2
(dp3
S'b'
(dp4
S'name'
p5
S'Eng'
p6
sS'lib'
p7
(dp8
sS'unicodes'
p9
(tsS'width'
p10
I1240
sS'contours'
p11
((dp12
S'points'
p13
((dp14
S'segmentType'
p15
S'curve'
p16
sS'x'
F46
sS'smooth'
p17
I01
sS'y'
F1113
s(dp18
S'y'
F1143
sS'x'
F46
sg17
I00
s(dp19
S'y'
F1171
sS'x'
F65
sg17
I00
s(dp20
g15
S'curve'
p21
sS'x'
F97
sg17
I01
sS'y'
F1171
s(dp22
g15
S'line'
p23
sS'x'
F413
sg17
I01
sS'y'
F1171
s(dp24
S'y'
F1171
sS'x'
F435
sg17
I00
s(dp25
S'y'
F1164
sS'x'
F446
sg17
I00
s(dp26
g15
S'curve'
p27
sS'x'
F454
sg17
I00
sS'y'
F1147
s(dp28
g15
S'line'
p29
sS'x'
F1054
sg17
I00
sS'y'
F291
s(dp30
g15
S'line'
p31
sS'x'
F1054
sg17
I00
sS'y'
F1050
s(dp32
g15
S'line'
p33
sS'x'
F931
sg17
I01
sS'y'
F1050
s(dp34
S'y'
F1050
sS'x'
F896
sg17
I00
s(dp35
S'y'
F1079
sS'x'
F882
sg17
I00
s(dp36
g15
S'curve'
p37
sS'x'
F882
sg17
I01
sS'y'
F1113
s(dp38
S'y'
F1143
sS'x'
F882
sg17
I00
s(dp39
S'y'
F1171
sS'x'
F900
sg17
I00
s(dp40
g15
S'curve'
p41
sS'x'
F932
sg17
I01
sS'y'
F1171
s(dp42
g15
S'line'
p43
sS'x'
F1330
sg17
I01
sS'y'
F1171
s(dp44
S'y'
F1171
sS'x'
F1362
sg17
I00
s(dp45
S'y'
F1143
sS'x'
F1380
sg17
I00
s(dp46
g15
S'curve'
p47
sS'x'
F1380
sg17
I01
sS'y'
F1113
s(dp48
S'y'
F1079
sS'x'
F1380
sg17
I00
s(dp49
S'y'
F1050
sS'x'
F1366
sg17
I00
s(dp50
g15
S'curve'
p51
sS'x'
F1331
sg17
I01
sS'y'
F1050
s(dp52
g15
S'line'
p53
sS'x'
F1195
sg17
I00
sS'y'
F1050
s(dp54
g15
S'line'
p55
sS'x'
F1195
sg17
I01
sS'y'
F-36
s(dp56
S'y'
F-291
sS'x'
F1195
sg17
I00
s(dp57
S'y'
F-401
sS'x'
F1062
sg17
I00
s(dp58
g15
S'curve'
p59
sS'x'
F889
sg17
I01
sS'y'
F-401
s(dp60
S'y'
F-401
sS'x'
F765
sg17
I00
s(dp61
S'y'
F-334
sS'x'
F660
sg17
I00
s(dp62
g15
S'curve'
p63
sS'x'
F660
sg17
I01
sS'y'
F-249
s(dp64
g15
S'line'
p65
sS'x'
F660
sg17
I01
sS'y'
F-167
s(dp66
S'y'
F-120
sS'x'
F660
sg17
I00
s(dp67
S'y'
F-96
sS'x'
F680
sg17
I00
s(dp68
g15
S'curve'
p69
sS'x'
F731
sg17
I01
sS'y'
F-96
s(dp70
S'y'
F-96
sS'x'
F770
sg17
I00
s(dp71
S'y'
F-116
sS'x'
F805
sg17
I00
s(dp72
g15
S'curve'
p73
sS'x'
F805
sg17
I01
sS'y'
F-154
s(dp74
g15
S'line'
p75
sS'x'
F805
sg17
I01
sS'y'
F-231
s(dp76
S'y'
F-260
sS'x'
F806
sg17
I00
s(dp77
S'y'
F-286
sS'x'
F848
sg17
I00
s(dp78
g15
S'curve'
p79
sS'x'
F898
sg17
I01
sS'y'
F-286
s(dp80
S'y'
F-286
sS'x'
F968
sg17
I00
s(dp81
S'y'
F-229
sS'x'
F1054
sg17
I00
s(dp82
g15
S'curve'
p83
sS'x'
F1054
sg17
I01
sS'y'
F-51
s(dp84
g15
S'line'
p85
sS'x'
F1054
sg17
I00
sS'y'
F35
s(dp86
g15
S'line'
p87
sS'x'
F376
sg17
I00
sS'y'
F994
s(dp88
g15
S'line'
p89
sS'x'
F376
sg17
I00
sS'y'
F120
s(dp90
g15
S'line'
p91
sS'x'
F496
sg17
I01
sS'y'
F120
s(dp92
S'y'
F120
sS'x'
F531
sg17
I00
s(dp93
S'y'
F91
sS'x'
F545
sg17
I00
s(dp94
g15
S'curve'
p95
sS'x'
F545
sg17
I01
sS'y'
F57
s(dp96
S'y'
F27
sS'x'
F545
sg17
I00
s(dp97
S'y'
F0
sS'x'
F526
sg17
I00
s(dp98
g15
S'curve'
p99
sS'x'
F494
sg17
I01
sS'y'
F0
s(dp100
g15
S'line'
p101
sS'x'
F97
sg17
I01
sS'y'
F0
s(dp102
S'y'
F0
sS'x'
F65
sg17
I00
s(dp103
S'y'
F27
sS'x'
F46
sg17
I00
s(dp104
g15
S'curve'
p105
sS'x'
F46
sg17
I01
sS'y'
F57
s(dp106
S'y'
F91
sS'x'
F46
sg17
I00
s(dp107
S'y'
F120
sS'x'
F61
sg17
I00
s(dp108
g15
S'curve'
p109
sS'x'
F96
sg17
I01
sS'y'
F120
s(dp110
g15
S'line'
p111
sS'x'
F232
sg17
I00
sS'y'
F120
s(dp112
g15
S'line'
p113
sS'x'
F232
sg17
I00
sS'y'
F1050
s(dp114
g15
S'line'
p115
sS'x'
F96
sg17
I01
sS'y'
F1050
s(dp116
S'y'
F1050
sS'x'
F61
sg17
I00
s(dp117
S'y'
F1079
sS'x'
F46
sg17
I00
stp118
stp119
sS'components'
p120
(tsS'anchors'
p121
(tsss."
LayerCount: 2
Fore
SplineSet
629 -401 m 0
 603 -401 589 -380 589 -359 c 0
 589 -339 602 -320 630 -320 c 0
 782 -320 943 -211 943 -32 c 2
 943 52 l 1
 875 177 506 844 381 1084 c 1
 381 86 l 1
 519 86 l 2
 552 86 568 64 568 43 c 0
 568 21 551 0 518 0 c 2
 160 0 l 2
 127 0 110 21 110 43 c 0
 110 64 126 86 159 86 c 2
 285 86 l 1
 285 1085 l 1
 129 1085 l 2
 96 1085 80 1106 80 1127 c 0
 80 1149 97 1171 130 1171 c 2
 407 1171 l 2
 429 1171 439 1163 447 1147 c 2
 943 224 l 1
 943 1085 l 1
 794 1085 l 2
 761 1085 745 1106 745 1127 c 0
 745 1149 762 1171 796 1171 c 2
 1133 1171 l 2
 1166 1171 1183 1149 1183 1127 c 0
 1183 1106 1167 1085 1135 1085 c 2
 1039 1085 l 1
 1039 -19 l 2
 1039 -252 841 -401 629 -401 c 0
EndSplineSet
EndChar

StartChar: Eth
Encoding: -1 208 33
Width: 1240
VWidth: 0
Flags: HW
PickledData: "(dp1
S'com.typemytype.robofont.layerData'
p2
(dp3
S'b'
(dp4
S'name'
p5
S'Eth'
p6
sS'lib'
p7
(dp8
sS'unicodes'
p9
(tsS'width'
p10
I1240
sS'contours'
p11
(tsS'components'
p12
(tsS'anchors'
p13
(tsss."
LayerCount: 2
Fore
SplineSet
172 572 m 2
 134.665 572 126 591.708 126 611.053 c 0
 126 629.695 133.335 648 168 648 c 2
 314 648 l 1
 314 1085 l 1
 155 1085 l 2
 123 1085 107 1106 107 1127 c 0
 107 1149 124 1171 157 1171 c 2
 515 1171 l 2
 858 1171 1084 993 1084 591 c 0
 1084 168 874 0 513 0 c 2
 152 0 l 2
 118 0 101 21 101 43 c 0
 101 64 118 86 151 86 c 2
 314 86 l 1
 314 572 l 1
 172 572 l 2
978 591 m 0
 978 907 827 1085 534 1085 c 2
 420 1085 l 1
 420 648 l 1
 607 648 l 2
 640.015 648 645.917 629.864 645.917 611.312 c 0
 645.917 591.885 638.481 572 605 572 c 2
 420 572 l 1
 420 86 l 1
 520 86 l 2
 851 86 978 256 978 591 c 0
EndSplineSet
EndChar

StartChar: Euro
Encoding: 400 8364 34
Width: 1240
VWidth: 0
Flags: HMW
PickledData: "(dp1
S'com.typemytype.robofont.layerData'
p2
(dp3
S'b'
(dp4
S'name'
p5
S'Euro'
p6
sS'lib'
p7
(dp8
sS'unicodes'
p9
(tsS'width'
p10
I1240
sS'contours'
p11
(tsS'components'
p12
(tsS'anchors'
p13
(tsss."
LayerCount: 2
Fore
SplineSet
659 -17 m 0
 402 -17 242 151 196 429 c 1
 117 429 l 2
 77 429 60 441 60 466 c 0
 60 491 77 505 117 505 c 2
 186 505 l 1
 183 538 182 572 182 607 c 0
 182 625 182 643 183 661 c 1
 117 661 l 2
 77 661 60 675 60 700 c 0
 60 726 77 739 117 739 c 2
 191 739 l 1
 232 1012 401 1187 668 1187 c 0
 827 1187 918 1113 972 1015 c 1
 972 1121 l 2
 972 1154 997 1171 1021 1171 c 0
 1046 1171 1070 1154 1070 1120 c 2
 1070 827 l 2
 1070 795 1047 780 1024 780 c 0
 1000 780 985 797 980 827 c 0
 949 991 850 1101 671 1101 c 0
 442 1101 322 955 288 739 c 1
 489 739 l 2
 529 739 544 726 544 700 c 0
 544 675 529 661 489 661 c 2
 280 661 l 1
 279 641 278 621 278 600 c 0
 278 567 279 535 282 505 c 1
 489 505 l 2
 529 505 544 491 544 466 c 0
 544 441 529 429 489 429 c 2
 293 429 l 1
 335 198 468 69 660 69 c 0
 853 69 950 164 1016 356 c 0
 1023 376 1037 384 1054 384 c 0
 1077 384 1097 367 1097 347 c 0
 1097 343 1096 340 1095 336 c 0
 1040 173 949 -17 659 -17 c 0
EndSplineSet
EndChar

StartChar: F
Encoding: 38 70 35
Width: 1240
VWidth: 0
Flags: HMW
PickledData: "(dp1
S'com.typemytype.robofont.layerData'
p2
(dp3
S'b'
(dp4
S'name'
p5
S'F'
sS'lib'
p6
(dp7
sS'unicodes'
p8
(tsS'width'
p9
I1240
sS'contours'
p10
(tsS'components'
p11
(tsS'anchors'
p12
(tsss."
LayerCount: 2
Fore
SplineSet
848 437 m 2
 848 402 829 386 810 386 c 0
 791 386 772 401 770 429 c 2
 757 577 l 1
 420 577 l 1
 420 85 l 1
 770 85 l 2
 801 85 816 64 816 43 c 0
 816 21 800 0 771 0 c 2
 155 0 l 2
 121 0 104 22 104 43 c 0
 104 64 121 85 154 85 c 2
 324 85 l 1
 324 1085 l 1
 189 1085 l 2
 157 1085 141 1106 141 1127 c 0
 141 1149 158 1171 191 1171 c 2
 1082 1171 l 2
 1115 1171 1138 1151 1138 1117 c 2
 1138 847 l 2
 1138 817 1118 803 1098 803 c 0
 1078 803 1057 816 1056 841 c 2
 1042 1085 l 1
 420 1085 l 1
 420 654 l 1
 757 654 l 1
 770 787 l 2
 773 817 792 832 810 832 c 0
 829 832 848 816 848 779 c 2
 848 437 l 2
EndSplineSet
EndChar

StartChar: G
Encoding: 39 71 36
Width: 1240
VWidth: 0
Flags: HMW
PickledData: "(dp1
S'com.typemytype.robofont.layerData'
p2
(dp3
S'b'
(dp4
S'name'
p5
S'G'
sS'lib'
p6
(dp7
sS'unicodes'
p8
(tsS'width'
p9
I1240
sS'contours'
p10
(tsS'components'
p11
(tsS'anchors'
p12
(tsss."
LayerCount: 2
Fore
SplineSet
1083 510 m 5
 1083 49 l 6
 1083 11 1060 -8 1036 -8 c 4
 1012 -8 987 12 987 51 c 6
 987 175 l 5
 937 62 784 -17 606 -17 c 4
 298 -17 89 225 89 607 c 4
 89 954 297 1187 605 1187 c 4
 764 1187 905 1113 959 1015 c 5
 959 1121 l 6
 959 1154 984 1171 1008 1171 c 4
 1033 1171 1057 1154 1057 1120 c 6
 1057 827 l 6
 1057 795 1034 780 1011 780 c 4
 987 780 968 797 963 827 c 4
 932 991 787 1101 608 1101 c 4
 333 1101 185 890 185 600 c 4
 185 263 372 69 607 69 c 4
 815 69 939 182 987 332 c 5
 987 510 l 5
 863 510 l 6
 830 510 813 532 813 554 c 4
 813 575 829 596 862 596 c 6
 1146 596 l 6
 1179 596 1195 575 1195 554 c 4
 1195 532 1178 510 1144 510 c 6
 1083 510 l 5
EndSplineSet
EndChar

StartChar: H
Encoding: 40 72 41
Width: 1240
VWidth: 0
Flags: HMW
PickledData: "(dp1
S'com.typemytype.robofont.layerData'
p2
(dp3
S'b'
(dp4
S'name'
p5
S'H'
sS'lib'
p6
(dp7
sS'unicodes'
p8
(tsS'width'
p9
I1240
sS'contours'
p10
(tsS'components'
p11
(tsS'anchors'
p12
(tsss."
LayerCount: 2
Fore
SplineSet
143 0 m 2
 110 0 93 22 93 44 c 0
 93 65 109 86 141 86 c 2
 265 86 l 1
 265 1085 l 1
 157 1085 l 2
 124 1085 107 1106 107 1128 c 0
 107 1149 124 1171 157 1171 c 2
 459 1171 l 2
 492 1171 509 1149 509 1127 c 0
 509 1106 494 1085 461 1085 c 2
 361 1085 l 1
 361 638 l 1
 901 638 l 1
 901 1085 l 1
 801 1085 l 2
 768 1085 753 1106 753 1127 c 0
 753 1149 770 1171 803 1171 c 2
 1097 1171 l 2
 1130 1171 1147 1150 1147 1130 c 0
 1147 1107 1130 1085 1097 1085 c 2
 997 1085 l 1
 997 86 l 1
 1097 86 l 2
 1130 86 1147 65 1147 43 c 0
 1147 22 1130 0 1097 0 c 2
 803 0 l 2
 770 0 753 22 753 44 c 0
 753 65 769 86 801 86 c 2
 901 86 l 1
 901 558 l 1
 361 558 l 1
 361 86 l 1
 461 86 l 2
 493 86 509 66 509 46 c 0
 509 23 492 0 459 0 c 2
 143 0 l 2
EndSplineSet
EndChar

StartChar: Hbar
Encoding: 226 294 42
Width: 1240
VWidth: 0
Flags: HMW
PickledData: "(dp1
S'com.typemytype.robofont.layerData'
p2
(dp3
S'b'
(dp4
S'name'
p5
S'Dcroat'
p6
sS'lib'
p7
(dp8
sS'unicodes'
p9
(tsS'width'
p10
I1240
sS'contours'
p11
(tsS'components'
p12
(tsS'anchors'
p13
(tsss."
LayerCount: 2
Fore
SplineSet
153 855 m 2
 116 855 107 875 107 894 c 0
 107 913 114 931 149 931 c 2
 1108 931 l 2
 1141 931 1147 913 1147 894 c 0
 1147 875 1139 855 1106 855 c 2
 153 855 l 2
EndSplineSet
Refer: 41 72 N 1 0 0 1 0 0 2
EndChar

StartChar: I
Encoding: 41 73 44
Width: 1240
VWidth: 0
Flags: HMW
PickledData: "(dp1
S'com.typemytype.robofont.layerData'
p2
(dp3
S'b'
(dp4
S'name'
p5
S'I'
sS'lib'
p6
(dp7
sS'unicodes'
p8
(tsS'width'
p9
I1240
sS'contours'
p10
(tsS'components'
p11
(tsS'anchors'
p12
(tsss."
LayerCount: 2
Fore
SplineSet
310 0 m 2
 277 0 259 21 259 43 c 0
 259 64 276 86 309 86 c 2
 614 86 l 1
 614 1085 l 1
 309 1085 l 2
 276 1085 259 1106 259 1127 c 0
 259 1149 277 1171 310 1171 c 2
 995 1171 l 2
 1028 1171 1045 1149 1045 1127 c 0
 1045 1106 1029 1085 996 1085 c 2
 710 1085 l 1
 710 86 l 1
 996 86 l 2
 1029 86 1045 64 1045 43 c 0
 1045 21 1028 0 995 0 c 2
 310 0 l 2
EndSplineSet
EndChar

StartChar: IJ
Encoding: 238 306 45
Width: 1240
VWidth: 0
Flags: HMW
PickledData: "(dp1
S'com.typemytype.robofont.layerData'
p2
(dp3
S'b'
(dp4
S'name'
p5
S'IJ'
p6
sS'lib'
p7
(dp8
sS'unicodes'
p9
(tsS'width'
p10
I2480
sS'contours'
p11
(tsS'components'
p12
(tsS'anchors'
p13
(tsss."
LayerCount: 2
Fore
SplineSet
1040 307 m 2
 1040 74 963 0 676 -0 c 0
 655 0 644 20 644 41 c 0
 644 61 654 81 676 81 c 0
 919 81 944 125 944 304 c 2
 944 1085 l 5
 348 1085 l 1
 348 86 l 1
 479 86 l 2
 512 86 528 64 528 43 c 0
 528 21 511 0 478 0 c 2
 118 0 l 2
 85 0 67 21 67 43 c 0
 67 64 84 86 117 86 c 2
 252 86 l 1
 252 1085 l 1
 97 1085 l 2
 64 1085 47 1106 47 1127 c 0
 47 1149 65 1171 98 1171 c 2
 1142 1171 l 2
 1175 1171 1192 1150 1192 1128 c 0
 1192 1107 1176 1085 1143 1085 c 2
 1040 1085 l 1
 1040 307 l 2
EndSplineSet
EndChar

StartChar: J
Encoding: 42 74 55
Width: 1240
VWidth: 0
Flags: HMW
PickledData: "(dp1
S'com.typemytype.robofont.layerData'
p2
(dp3
S'b'
(dp4
S'name'
p5
S'J'
sS'lib'
p6
(dp7
sS'unicodes'
p8
(tsS'width'
p9
I1240
sS'contours'
p10
(tsS'components'
p11
(tsS'anchors'
p12
(tsss."
LayerCount: 2
Fore
SplineSet
855 317 m 2
 855 84 644 -13 451 -13 c 0
 288 -13 138 56 138 171 c 2
 138 283 l 2
 138 312 163 328 187 328 c 0
 211 328 234 313 234 283 c 2
 234 182 l 2
 234 114 342 68 460 68 c 0
 602 68 759 135 759 314 c 2
 759 1085 l 1
 409 1085 l 2
 377 1085 361 1106 361 1127 c 0
 361 1149 377 1171 410 1171 c 2
 1025 1171 l 2
 1058 1171 1075 1150 1075 1128 c 0
 1075 1107 1059 1085 1026 1085 c 2
 855 1085 l 1
 855 317 l 2
EndSplineSet
EndChar

StartChar: K
Encoding: 43 75 57
Width: 1240
VWidth: 0
Flags: HMW
PickledData: "(dp1
S'com.typemytype.robofont.layerData'
p2
(dp3
S'b'
(dp4
S'name'
p5
S'K'
sS'lib'
p6
(dp7
sS'unicodes'
p8
(tsS'width'
p9
I1240
sS'contours'
p10
(tsS'components'
p11
(tsS'anchors'
p12
(tsss."
LayerCount: 2
Fore
SplineSet
84 0 m 2
 50 0 33 21 33 43 c 0
 33 64 50 86 83 86 c 2
 242 86 l 1
 242 1084 l 1
 83 1084 l 2
 50 1084 33 1105 33 1127 c 0
 33 1149 50 1171 84 1171 c 2
 529 1171 l 2
 562 1171 579 1148 579 1126 c 0
 579 1105 564 1084 531 1084 c 2
 338 1084 l 1
 338 558 l 1
 914 1078 l 2
 917 1081 921 1085 921 1088 c 0
 921 1091 917 1094 902 1094 c 2
 813 1094 l 2
 780 1094 764 1112 764 1131 c 0
 764 1151 782 1171 814 1171 c 2
 1176 1171 l 2
 1209 1171 1225 1149 1225 1127 c 0
 1225 1105 1209 1084 1177 1084 c 2
 1039 1084 l 1
 601 676 l 1
 1122 86 l 1
 1259 86 l 2
 1291 86 1307 64 1307 43 c 0
 1307 21 1291 0 1258 0 c 2
 840 0 l 2
 807 0 790 21 790 43 c 0
 790 64 806 86 839 86 c 2
 1005 86 l 1
 527 621 l 1
 342 465 l 1
 342 86 l 1
 586 86 l 2
 619 86 635 64 635 43 c 0
 635 21 618 0 585 0 c 2
 84 0 l 2
EndSplineSet
EndChar

StartChar: L
Encoding: 44 76 59
Width: 1240
VWidth: 0
Flags: HMW
PickledData: "(dp1
S'com.typemytype.robofont.layerData'
p2
(dp3
S'b'
(dp4
S'name'
p5
S'L'
sS'lib'
p6
(dp7
sS'unicodes'
p8
(tsS'width'
p9
I1240
sS'contours'
p10
(tsS'components'
p11
(tsS'anchors'
p12
(tsss."
LayerCount: 2
Fore
SplineSet
640 1171 m 2
 674 1171 691 1149 691 1127 c 0
 691 1106 674 1085 641 1085 c 2
 489 1085 l 1
 489 86 l 1
 946 86 l 1
 968 88 984 92 987 123 c 2
 1021 399 l 2
 1025 428 1048 442 1071 442 c 0
 1097 442 1122 425 1122 393 c 2
 1122 387 l 1
 1092 66 l 1
 1087 29 1063 0 1020 0 c 2
 125 0 l 2
 91 0 74 21 74 43 c 0
 74 64 91 86 124 86 c 2
 393 86 l 1
 393 1085 l 1
 166 1085 l 2
 133 1085 117 1106 117 1127 c 0
 117 1149 134 1171 167 1171 c 2
 640 1171 l 2
EndSplineSet
EndChar

StartChar: Lslash
Encoding: 253 321 64
Width: 1240
VWidth: 0
Flags: HMW
PickledData: "(dp1
S'com.typemytype.robofont.layerData'
p2
(dp3
S'b'
(dp4
S'name'
p5
S'Lslash'
p6
sS'lib'
p7
(dp8
sS'unicodes'
p9
(tsS'width'
p10
I1240
sS'contours'
p11
(tsS'components'
p12
(tsS'anchors'
p13
(tsss."
LayerCount: 2
Fore
SplineSet
777 768 m 0
 802 768 818 750 818 722 c 0
 818 703 806 692 780 685 c 2
 245 551 l 2
 237 549 229 548 223 548 c 0
 198 548 183 566 183 594 c 0
 183 613 196 627 223 634 c 2
 758 765 l 2
 765 767 771 768 777 768 c 0
EndSplineSet
Refer: 59 76 N 1 0 0 1 0 0 2
EndChar

StartChar: M
Encoding: 45 77 65
Width: 1240
VWidth: 0
Flags: HMW
PickledData: "(dp1
S'com.typemytype.robofont.layerData'
p2
(dp3
S'b'
(dp4
S'name'
p5
S'M'
sS'lib'
p6
(dp7
sS'unicodes'
p8
(tsS'width'
p9
I1240
sS'contours'
p10
(tsS'components'
p11
(tsS'anchors'
p12
(tsss."
LayerCount: 2
Fore
SplineSet
817 0 m 2
 783 0 766 22 766 44 c 0
 766 65 782 86 815 86 c 2
 948 86 l 1
 948 982 l 1
 691 390 l 2
 677 358 651 342 625 342 c 0
 601 342 578 355 565 385 c 2
 298 978 l 1
 298 86 l 1
 418 86 l 2
 452 86 468 65 468 44 c 0
 468 22 451 0 417 0 c 2
 70 0 l 2
 37 0 20 21 20 43 c 0
 20 64 36 86 69 86 c 2
 202 86 l 1
 202 1085 l 1
 83 1085 l 2
 50 1085 34 1106 34 1127 c 0
 34 1149 51 1171 84 1171 c 2
 282 1171 l 2
 306 1171 320 1154 328 1136 c 2
 629 473 l 1
 919 1141 l 2
 926 1158 942 1171 964 1171 c 2
 1156 1171 l 2
 1190 1171 1207 1149 1207 1127 c 0
 1207 1106 1190 1085 1157 1085 c 2
 1044 1085 l 1
 1044 86 l 1
 1172 86 l 2
 1204 86 1220 65 1220 44 c 0
 1220 22 1203 0 1170 0 c 2
 817 0 l 2
EndSplineSet
EndChar

StartChar: N
Encoding: 46 78 66
Width: 1240
VWidth: 0
Flags: HMW
PickledData: "(dp1
S'com.typemytype.robofont.layerData'
p2
(dp3
S'b'
(dp4
S'name'
p5
S'N'
sS'lib'
p6
(dp7
sS'unicodes'
p8
(tsS'width'
p9
I1240
sS'contours'
p10
(tsS'components'
p11
(tsS'anchors'
p12
(tsss."
LayerCount: 2
Fore
SplineSet
129 1085 m 2
 96 1085 80 1106 80 1127 c 0
 80 1149 97 1171 130 1171 c 2
 417 1171 l 2
 439 1171 449 1163 457 1147 c 2
 943 194 l 1
 943 1085 l 1
 794 1085 l 2
 761 1085 745 1106 745 1127 c 0
 745 1149 762 1171 796 1171 c 2
 1133 1171 l 2
 1166 1171 1183 1149 1183 1127 c 0
 1183 1106 1167 1085 1135 1085 c 2
 1039 1085 l 1
 1039 47 l 2
 1039 4 1016 -16 990 -16 c 0
 969 -16 947 -3 934 22 c 2
 381 1084 l 1
 381 86 l 1
 519 86 l 2
 552 86 568 64 568 43 c 0
 568 21 551 0 518 0 c 2
 160 0 l 2
 127 0 110 21 110 43 c 0
 110 64 126 86 159 86 c 2
 285 86 l 1
 285 1085 l 1
 129 1085 l 2
EndSplineSet
EndChar

StartChar: O
Encoding: 47 79 71
Width: 1240
VWidth: 0
Flags: HMW
PickledData: "(dp1
S'com.typemytype.robofont.layerData'
p2
(dp3
S'b'
(dp4
S'name'
p5
S'O'
sS'lib'
p6
(dp7
sS'unicodes'
p8
(tsS'width'
p9
I1240
sS'contours'
p10
(tsS'components'
p11
(tsS'anchors'
p12
(tsss."
LayerCount: 2
Fore
SplineSet
620 -17 m 0
 279 -17 108 281 108 582 c 0
 108 883 279 1187 620 1187 c 0
 961 1187 1132 883 1132 582 c 0
 1132 281 961 -17 620 -17 c 0
620 1101 m 0
 344 1101 204 842 204 582 c 0
 204 326 340 69 620 69 c 0
 900 69 1036 326 1036 582 c 0
 1036 842 896 1101 620 1101 c 0
EndSplineSet
EndChar

StartChar: OE
Encoding: 267 338 72
Width: 1240
VWidth: 0
Flags: HMW
PickledData: "(dp1
S'com.typemytype.robofont.layerData'
p2
(dp3
S'b'
(dp4
S'name'
p5
S'OE'
p6
sS'lib'
p7
(dp8
sS'unicodes'
p9
(tsS'width'
p10
I1240
sS'contours'
p11
(tsS'components'
p12
(tsS'anchors'
p13
(tsss."
LayerCount: 2
Fore
SplineSet
924 437 m 2
 924 402 905 386 886 386 c 0
 867 386 848 401 846 429 c 2
 833 577 l 1
 677 577 l 1
 677 85 l 1
 1012 85 l 1
 1028 336 l 2
 1029 360 1051 375 1072 375 c 0
 1093 375 1114 359 1114 323 c 2
 1114 53 l 2
 1114 19 1091 0 1058 0 c 2
 564 0 l 2
 563 0 l 0
 340 0 118 200 118 582 c 0
 118 965 342 1172 566 1172 c 0
 726 1172 886 1171 1046 1171 c 0
 1079 1171 1102 1151 1102 1117 c 2
 1102 847 l 2
 1102 817 1082 803 1062 803 c 0
 1042 803 1021 816 1020 841 c 2
 1006 1084 l 1
 677 1084 l 1
 677 654 l 1
 833 654 l 1
 846 787 l 2
 849 817 868 832 886 832 c 0
 905 832 924 816 924 779 c 2
 924 437 l 2
214 582 m 0
 214 260 387 82 561 82 c 0
 567 82 573 82 579 82 c 1
 579 1084 l 1
 564 1084 l 2
 389 1084 214 913 214 582 c 0
EndSplineSet
EndChar

StartChar: Oslash
Encoding: 149 216 80
Width: 1240
VWidth: 0
Flags: HMW
PickledData: "(dp1
S'com.typemytype.robofont.layerData'
p2
(dp3
S'b'
(dp4
S'name'
p5
S'Oslash'
p6
sS'lib'
p7
(dp8
sS'unicodes'
p9
(tsS'width'
p10
I1240
sS'contours'
p11
(tsS'components'
p12
(tsS'anchors'
p13
(tsss."
LayerCount: 2
Fore
SplineSet
295 -172 m 2
 288 -187 277 -192 265 -192 c 0
 246 -192 226 -176 226 -158 c 0
 226 -154 227 -150 229 -146 c 2
 972 1305 l 2
 978 1316 988 1321 999 1321 c 0
 1017 1321 1037 1308 1037 1289 c 0
 1037 1284 1036 1279 1033 1274 c 2
 295 -172 l 2
EndSplineSet
Refer: 71 79 N 1 0 0 1 0 0 2
EndChar

StartChar: P
Encoding: 48 80 82
Width: 1240
VWidth: 0
Flags: HMW
PickledData: "(dp1
S'com.typemytype.robofont.layerData'
p2
(dp3
S'b'
(dp4
S'name'
p5
S'P'
sS'lib'
p6
(dp7
sS'unicodes'
p8
(tsS'width'
p9
I1240
sS'contours'
p10
(tsS'components'
p11
(tsS'anchors'
p12
(tsss."
LayerCount: 2
Fore
SplineSet
1068 847 m 0
 1068 540 815 527 558 527 c 2
 442 527 l 1
 442 86 l 1
 771 86 l 2
 804 86 820 64 820 43 c 0
 820 21 803 0 770 0 c 2
 174 0 l 2
 140 0 123 21 123 43 c 0
 123 64 140 86 173 86 c 2
 346 86 l 1
 346 1085 l 1
 187 1085 l 2
 154 1085 138 1106 138 1127 c 0
 138 1149 155 1171 188 1171 c 2
 532 1171 l 2
 802 1171 1068 1154 1068 847 c 0
972 843 m 0
 972 1085 742 1085 552 1085 c 2
 442 1085 l 1
 442 607 l 1
 594 607 l 2
 788 607 972 616 972 843 c 0
EndSplineSet
EndChar

StartChar: Q
Encoding: 49 81 83
Width: 1240
VWidth: 0
Flags: HMW
PickledData: "(dp1
S'com.typemytype.robofont.layerData'
p2
(dp3
S'b'
(dp4
S'name'
p5
S'Q'
sS'lib'
p6
(dp7
sS'unicodes'
p8
(tsS'width'
p9
I1240
sS'contours'
p10
(tsS'components'
p11
(tsS'anchors'
p12
(tsss."
LayerCount: 2
Fore
SplineSet
620 1101 m 0
 344 1101 204 842 204 582 c 0
 204 326 340 69 620 69 c 0
 900 69 1036 326 1036 582 c 0
 1036 842 896 1101 620 1101 c 0
506 -5 m 1
 541 -13 580 -17 620 -17 c 0
 625 -17 631 -17 636 -17 c 1
 722 -108 l 2
 753 -142 790 -162 836 -162 c 0
 882 -162 938 -142 1008 -95 c 0
 1018 -88 1028 -86 1037 -86 c 0
 1059 -86 1077 -108 1077 -130 c 0
 1077 -144 1070 -159 1054 -169 c 1
 1002 -218 901 -246 854 -246 c 0
 696 -246 646 -177 506 -5 c 1
506 -5 m 1
 241 53 108 316 108 582 c 0
 108 883 279 1187 620 1187 c 0
 961 1187 1132 883 1132 582 c 0
 1132 286 967 -8 636 -17 c 1
 617 3 l 1
 504 -2 l 1
 505 -3 505 -4 506 -5 c 1
EndSplineSet
EndChar

StartChar: R
Encoding: 50 82 84
Width: 1240
VWidth: 0
Flags: HMW
PickledData: "(dp1
S'com.typemytype.robofont.layerData'
p2
(dp3
S'b'
(dp4
S'name'
p5
S'R'
sS'lib'
p6
(dp7
sS'unicodes'
p8
(tsS'width'
p9
I1240
sS'contours'
p10
(tsS'components'
p11
(tsS'anchors'
p12
(tsss."
LayerCount: 2
Fore
SplineSet
658 41 m 0
 658 21 642 0 608 0 c 2
 209 0 l 2
 175 0 158 21 158 41 c 0
 158 62 175 82 208 82 c 2
 333 82 l 1
 333 1085 l 1
 236 1085 l 2
 203 1085 186 1106 186 1127 c 0
 186 1149 203 1171 237 1171 c 2
 557 1171 l 2
 847 1171 1047 1124 1047 853 c 0
 1047 699 945 616 841 578 c 1
 1045 82 l 1
 1129 82 l 2
 1179 82 1193 62 1193 42 c 0
 1193 21 1177 0 1130 0 c 2
 895 0 l 2
 861 0 844 21 844 42 c 0
 844 62 860 82 893 82 c 2
 944 82 l 1
 764 556 l 1
 750 551 651 542 604 542 c 2
 429 542 l 1
 429 82 l 1
 609 82 l 2
 642 82 658 62 658 41 c 0
429 619 m 1
 536 619 l 2
 784 619 951 647 951 846 c 0
 951 1050 838 1085 556 1085 c 2
 429 1085 l 1
 429 619 l 1
EndSplineSet
EndChar

StartChar: S
Encoding: 51 83 88
Width: 1240
VWidth: 0
Flags: HMW
PickledData: "(dp1
S'com.typemytype.robofont.layerData'
p2
(dp3
S'b'
(dp4
S'name'
p5
S'S'
sS'lib'
p6
(dp7
sS'unicodes'
p8
(tsS'width'
p9
I1240
sS'contours'
p10
(tsS'components'
p11
(tsS'anchors'
p12
(tsss."
LayerCount: 2
Fore
SplineSet
650 1101 m 0
 479 1101 378 1018 378 886 c 0
 378 748 453 724 615 668 c 2
 751 621 l 2
 945 554 1057 479 1057 308 c 0
 1057 71 881 -17 689 -17 c 0
 582 -17 437 27 363 105 c 1
 363 28 347 -17 316 -17 c 0
 283 -17 268 0 268 57 c 2
 268 371 l 2
 268 403 288 418 312 418 c 0
 336 418 358 402 358 369 c 2
 358 250 l 2
 358 164 526 69 692 69 c 0
 838 69 961 133 961 304 c 0
 961 433 877 480 731 530 c 2
 567 586 l 2
 410 640 282 697 282 881 c 0
 282 1081 439 1187 627 1187 c 0
 723 1187 848 1171 917 1095 c 1
 917 1154 931 1187 969 1187 c 0
 996 1187 1009 1169 1009 1117 c 2
 1009 864 l 2
 1009 828 988 811 963 811 c 0
 940 811 918 827 918 858 c 2
 918 949 l 1
 906 1053 767 1101 650 1101 c 0
EndSplineSet
EndChar

StartChar: T
Encoding: 52 84 94
Width: 1240
VWidth: 0
Flags: HMW
PickledData: "(dp1
S'com.typemytype.robofont.layerData'
p2
(dp3
S'b'
(dp4
S'name'
p5
S'T'
sS'lib'
p6
(dp7
sS'unicodes'
p8
(tsS'width'
p9
I1240
sS'contours'
p10
(tsS'components'
p11
(tsS'anchors'
p12
(tsss."
LayerCount: 2
Fore
SplineSet
210 814 m 2
 208 783 189 769 169 769 c 0
 145 769 120 788 120 823 c 2
 120 1117 l 2
 120 1153 131 1171 162 1171 c 2
 1078 1171 l 2
 1107 1171 1118 1152 1118 1117 c 2
 1118 823 l 2
 1118 788 1095 771 1072 771 c 0
 1051 771 1030 786 1028 814 c 2
 1018 1085 l 1
 666 1085 l 1
 666 86 l 1
 908 86 l 2
 940 86 957 65 957 44 c 0
 957 22 939 0 906 0 c 2
 330 0 l 2
 296 0 278 22 278 44 c 0
 278 65 295 86 328 86 c 2
 570 86 l 1
 570 1085 l 1
 222 1085 l 1
 210 814 l 2
EndSplineSet
EndChar

StartChar: Thorn
Encoding: 155 222 96
Width: 1240
VWidth: 0
Flags: HMW
PickledData: "(dp1
S'com.typemytype.robofont.layerData'
p2
(dp3
S'b'
(dp4
S'name'
p5
S'Thorn'
p6
sS'lib'
p7
(dp8
sS'unicodes'
p9
(tsS'width'
p10
I1240
sS'contours'
p11
(tsS'components'
p12
(tsS'anchors'
p13
(tsss."
LayerCount: 2
Fore
SplineSet
971 626 m 0
 971 802 856 851 429 851 c 1
 429 392 l 1
 830 392 971 433 971 626 c 0
1067 619 m 0
 1067 321 724 318 429 318 c 1
 429 82 l 1
 656 82 l 2
 689 82 695 61 695 41 c 0
 695 20 688 0 655 0 c 2
 109 0 l 2
 75 0 68 20 68 41 c 0
 68 61 75 82 108 82 c 2
 333 82 l 1
 333 1085 l 1
 121 1085 l 2
 88 1085 82 1106 82 1127 c 0
 82 1149 89 1171 123 1171 c 2
 600 1171 l 2
 627 1171 631 1151 631 1130 c 0
 631 1108 625 1085 592 1085 c 2
 429 1085 l 1
 429 928 l 1
 743 928 1067 927 1067 619 c 0
EndSplineSet
EndChar

StartChar: U
Encoding: 53 85 97
Width: 1240
VWidth: 0
Flags: HMW
PickledData: "(dp1
S'com.typemytype.robofont.layerData'
p2
(dp3
S'b'
(dp4
S'name'
p5
S'U'
sS'lib'
p6
(dp7
sS'unicodes'
p8
(tsS'width'
p9
I1240
sS'contours'
p10
(tsS'components'
p11
(tsS'anchors'
p12
(tsss."
LayerCount: 2
Fore
SplineSet
654 -17 m 0
 415 -17 249 142 249 413 c 2
 249 1085 l 1
 104 1085 l 2
 71 1085 55 1106 55 1127 c 0
 55 1149 72 1171 105 1171 c 2
 506 1171 l 2
 539 1171 556 1149 556 1127 c 0
 556 1106 540 1085 507 1085 c 2
 345 1085 l 1
 345 413 l 2
 345 195 455 69 654 69 c 0
 840 69 960 211 960 411 c 2
 960 1085 l 1
 839 1085 l 2
 806 1085 789 1106 789 1127 c 0
 789 1149 806 1171 840 1171 c 2
 1173 1171 l 2
 1220 1171 1243 1149 1243 1127 c 0
 1243 1106 1220 1085 1174 1085 c 2
 1056 1085 l 1
 1056 411 l 2
 1056 157 893 -17 654 -17 c 0
EndSplineSet
EndChar

StartChar: V
Encoding: 54 86 108
Width: 1240
VWidth: 0
Flags: HMW
PickledData: "(dp1
S'com.typemytype.robofont.layerData'
p2
(dp3
S'b'
(dp4
S'name'
p5
S'V'
sS'lib'
p6
(dp7
sS'unicodes'
p8
(tsS'width'
p9
I1240
sS'contours'
p10
(tsS'components'
p11
(tsS'anchors'
p12
(tsss."
LayerCount: 2
Fore
SplineSet
1131 1171 m 2
 1164 1171 1181 1150 1181 1128 c 0
 1181 1107 1165 1085 1132 1085 c 2
 1046 1085 l 1
 730 20 l 1
 714 -16 702 -36 666 -36 c 0
 630 -36 613 -13 602 20 c 2
 260 1085 l 1
 156 1085 l 2
 124 1085 108 1106 108 1127 c 0
 108 1149 125 1171 158 1171 c 2
 498 1171 l 2
 531 1171 548 1150 548 1128 c 0
 548 1107 532 1085 499 1085 c 2
 368 1085 l 1
 671 119 l 1
 946 1085 l 1
 826 1085 l 2
 793 1085 776 1107 776 1128 c 0
 776 1150 793 1171 827 1171 c 2
 1131 1171 l 2
EndSplineSet
EndChar

StartChar: W
Encoding: 55 87 109
Width: 1240
VWidth: 0
Flags: HMW
PickledData: "(dp1
S'com.typemytype.robofont.layerData'
p2
(dp3
S'b'
(dp4
S'name'
p5
S'W'
sS'lib'
p6
(dp7
sS'unicodes'
p8
(tsS'width'
p9
I1240
sS'contours'
p10
(tsS'components'
p11
(tsS'anchors'
p12
(tsss."
LayerCount: 2
Fore
SplineSet
873 1085 m 2
 840 1085 823 1107 823 1129 c 0
 823 1150 839 1171 872 1171 c 2
 1151 1171 l 2
 1184 1171 1201 1150 1201 1129 c 0
 1201 1107 1184 1085 1150 1085 c 2
 1080 1085 l 1
 916 27 l 2
 911 -3 889 -17 864 -17 c 0
 843 -17 820 1 811 35 c 2
 641 701 l 1
 454 27 l 2
 446 -3 425 -17 403 -17 c 0
 379 -17 355 1 351 35 c 1
 185 1085 l 1
 101 1085 l 2
 68 1085 51 1107 51 1129 c 0
 51 1150 67 1171 100 1171 c 2
 402 1171 l 2
 435 1171 451 1150 451 1129 c 0
 451 1107 434 1085 400 1085 c 2
 286 1085 l 1
 424 199 l 1
 601 850 l 2
 607 874 627 886 646 886 c 0
 665 886 683 874 689 850 c 2
 858 196 l 1
 980 1085 l 1
 873 1085 l 2
EndSplineSet
EndChar

StartChar: X
Encoding: 56 88 114
Width: 1240
VWidth: 0
Flags: HMW
PickledData: "(dp1
S'com.typemytype.robofont.layerData'
p2
(dp3
S'b'
(dp4
S'name'
p5
S'X'
sS'lib'
p6
(dp7
sS'unicodes'
p8
(tsS'width'
p9
I1240
sS'contours'
p10
(tsS'components'
p11
(tsS'anchors'
p12
(tsss."
LayerCount: 2
Fore
SplineSet
1094 1171 m 2
 1127 1171 1134 1149 1134 1127 c 0
 1134 1106 1128 1085 1095 1085 c 2
 1022 1085 l 1
 686 589 l 1
 1027 82 l 1
 1100 82 l 2
 1133 82 1139 62 1139 42 c 0
 1139 21 1132 0 1098 0 c 2
 766 0 l 2
 733 0 716 20 716 41 c 0
 716 61 732 82 765 82 c 2
 921 82 l 1
 632 510 l 1
 342 82 l 1
 491 82 l 2
 524 82 530 61 530 41 c 0
 530 20 523 0 490 0 c 2
 142 0 l 2
 109 0 102 20 102 41 c 0
 102 61 108 82 141 82 c 2
 226 82 l 1
 574 596 l 1
 245 1085 l 1
 163 1085 l 2
 130 1085 124 1106 124 1127 c 0
 124 1149 131 1171 164 1171 c 2
 500 1171 l 2
 533 1171 540 1149 540 1127 c 0
 540 1106 534 1085 501 1085 c 2
 353 1085 l 1
 628 676 l 1
 905 1085 l 1
 804 1085 l 2
 771 1085 765 1106 765 1127 c 0
 765 1149 772 1171 805 1171 c 2
 1094 1171 l 2
EndSplineSet
EndChar

StartChar: Y
Encoding: 57 89 115
Width: 1240
VWidth: 0
Flags: HMW
PickledData: "(dp1
S'com.typemytype.robofont.layerData'
p2
(dp3
S'b'
(dp4
S'name'
p5
S'Y'
sS'lib'
p6
(dp7
sS'unicodes'
p8
(tsS'width'
p9
I1240
sS'contours'
p10
(tsS'components'
p11
(tsS'anchors'
p12
(tsss."
LayerCount: 2
Fore
SplineSet
1065 1171 m 2
 1099 1171 1116 1151 1116 1132 c 0
 1116 1113 1100 1095 1067 1095 c 2
 1012 1095 l 1
 689 548 l 1
 689 86 l 1
 921 86 l 2
 953 86 969 65 969 44 c 0
 969 22 952 0 919 0 c 2
 334 0 l 2
 300 0 282 22 282 44 c 0
 282 65 299 86 332 86 c 2
 593 86 l 1
 593 553 l 1
 258 1095 l 1
 174 1095 l 2
 141 1095 124 1114 124 1133 c 0
 124 1152 142 1171 175 1171 c 2
 505 1171 l 2
 539 1171 556 1152 556 1133 c 0
 556 1114 539 1095 506 1095 c 2
 370 1095 l 1
 646 633 l 1
 914 1095 l 1
 803 1095 l 2
 770 1095 753 1114 753 1133 c 0
 753 1152 771 1171 804 1171 c 2
 1065 1171 l 2
EndSplineSet
EndChar

StartChar: Z
Encoding: 58 90 120
Width: 1240
VWidth: 0
Flags: HMW
PickledData: "(dp1
S'com.typemytype.robofont.layerData'
p2
(dp3
S'b'
(dp4
S'name'
p5
S'Z'
sS'lib'
p6
(dp7
sS'unicodes'
p8
(tsS'width'
p9
I1240
sS'contours'
p10
(tsS'components'
p11
(tsS'anchors'
p12
(tsss."
LayerCount: 2
Fore
SplineSet
254 806 m 2
 254 1116 l 1
 255 1144 271 1171 322 1171 c 2
 952 1171 l 2
 984 1171 1001 1144 1001 1116 c 0
 1001 1104 998 1092 991 1081 c 2
 369 86 l 1
 942 86 l 1
 942 384 l 1
 944 416 970 435 993 435 c 0
 1014 435 1034 420 1034 385 c 1
 1044 53 l 2
 1045 19 1022 0 993 0 c 2
 271 0 l 2
 232 0 219 14 219 31 c 0
 219 53 239 81 247 95 c 2
 880 1085 l 1
 366 1085 l 1
 350 797 l 2
 349 770 327 757 305 757 c 0
 280 757 254 774 254 806 c 2
EndSplineSet
EndChar

StartChar: a
Encoding: 65 97 124
Width: 1240
VWidth: 0
Flags: HMW
PickledData: "(dp1
S'com.typemytype.robofont.layerData'
p2
(dp3
S'b'
(dp4
S'name'
p5
S'a'
sS'lib'
p6
(dp7
sS'unicodes'
p8
(tsS'width'
p9
I1240
sS'contours'
p10
(tsS'components'
p11
(tsS'anchors'
p12
(tsss."
LayerCount: 2
Fore
SplineSet
814 401 m 5
 525 373 350 364 350 210 c 4
 350 103 417 65 502 65 c 4
 621 65 742 113 814 189 c 5
 814 401 l 5
611 731 m 4
 527 731 461 718 390 686 c 5
 385 593 372 531 324 531 c 4
 283 531 264 563 264 603 c 4
 264 725 405 813 612 813 c 4
 849 813 910 674 910 444 c 6
 910 132 l 6
 910 80 936 72 962 72 c 4
 999 72 1043 99 1063 121 c 4
 1070 129 1079 133 1087 133 c 4
 1107 133 1124 112 1124 91 c 4
 1124 82 1121 73 1114 66 c 4
 1072 22 1015 -7 954 -7 c 4
 898 -7 838 9 821 113 c 5
 760 44 637 -16 491 -16 c 4
 340 -16 253 74 253 210 c 4
 253 455 547 450 814 470 c 5
 814 490 l 6
 814 635 769 731 611 731 c 4
EndSplineSet
EndChar

StartChar: acute
Encoding: 115 180 128
Width: 1240
VWidth: 0
Flags: HMW
PickledData: "(dp1
S'com.typemytype.robofont.layerData'
p2
(dp3
S'b'
(dp4
S'name'
p5
S'acute'
p6
sS'lib'
p7
(dp8
sS'unicodes'
p9
(tsS'width'
p10
I1240
sS'contours'
p11
(tsS'components'
p12
(tsS'anchors'
p13
(tsss."
LayerCount: 2
Fore
SplineSet
858 1216 m 2
 536 982 l 2
 533 979 529 978 525 978 c 0
 513 978 501 988 501 1000 c 0
 501 1005 503 1010 508 1015 c 2
 779 1291 l 2
 789 1301 799 1305 810 1305 c 0
 841 1305 872 1272 872 1244 c 0
 872 1234 868 1223 858 1216 c 2
EndSplineSet
EndChar

StartChar: ae
Encoding: 163 230 130
Width: 1240
VWidth: 0
Flags: HMW
PickledData: "(dp1
S'com.typemytype.robofont.layerData'
p2
(dp3
S'b'
(dp4
S'name'
p5
S'ae'
p6
sS'lib'
p7
(dp8
sS'unicodes'
p9
(tsS'width'
p10
I1240
sS'contours'
p11
(tsS'components'
p12
(tsS'anchors'
p13
(tsss."
LayerCount: 2
Fore
SplineSet
352 60 m 0
 449 60 558 103 603 193 c 1
 585 249 574 316 573 391 c 1
 292 375 210 355 210 203 c 0
 210 116 272 60 352 60 c 0
658 461 m 1
 1033 474 l 1
 1027 572 1005 731 870 731 c 0
 688 731 666 566 658 461 c 1
628 129 m 1
 575 36 459 -17 335 -17 c 0
 226 -17 119 69 119 203 c 0
 119 433 308 445 572 459 c 1
 572 496 l 2
 572 631 547 731 405 731 c 0
 327 731 270 711 247 701 c 1
 242 608 230 531 185 531 c 0
 147 531 129 563 129 603 c 0
 129 725 213 813 406 813 c 0
 520 813 606 747 624 642 c 1
 669 748 758 813 869 813 c 0
 1002 813 1112 707 1112 488 c 0
 1112 438 1084 408 1040 408 c 1
 655 394 l 1
 662 176 739 61 884 61 c 0
 953 61 975 72 1048 146 c 1
 1062 158 1075 163 1086 163 c 0
 1109 163 1122 151 1122 127 c 0
 1122 113 1117 98 1106 85 c 0
 1033 1 938 -17 876 -17 c 0
 762 -17 674 44 628 129 c 1
EndSplineSet
EndChar

StartChar: ampersand
Encoding: 6 38 133
Width: 1240
VWidth: 0
Flags: HMW
PickledData: "(dp1
S'com.typemytype.robofont.layerData'
p2
(dp3
S'b'
(dp4
S'name'
p5
S'ampersand'
p6
sS'lib'
p7
(dp8
sS'unicodes'
p9
(tsS'width'
p10
I1240
sS'contours'
p11
(tsS'components'
p12
(tsS'anchors'
p13
(tsss."
LayerCount: 2
Fore
SplineSet
673 931 m 0
 673 1062 592 1107 521 1107 c 0
 453 1107 371 1063 371 944 c 0
 371 859 431 753 487 678 c 1
 559 730 673 826 673 931 c 0
283 311 m 0
 282 301 282 291 282 282 c 0
 282 125 391 65 517 65 c 0
 632 65 737 121 797 192 c 1
 693 277 521 492 469 564 c 1
 415 522 290 403 283 311 c 0
847 135 m 1
 765 44 664 -16 506 -16 c 0
 314 -16 186 86 186 272 c 0
 186 282 186 292 187 303 c 0
 198 455 366 588 419 632 c 1
 360 710 275 825 275 936 c 0
 275 1086 366 1189 511 1189 c 0
 665 1189 760 1083 760 933 c 0
 760 778 625 685 534 612 c 1
 610 503 759 328 849 254 c 1
 907 310 973 453 978 544 c 1
 846 544 l 2
 824 544 812 566 812 587 c 0
 812 607 822 626 844 626 c 2
 1118 626 l 2
 1141 626 1153 605 1153 585 c 0
 1153 564 1141 544 1116 544 c 2
 1057 544 l 1
 1051 416 964 288 905 203 c 1
 957 158 1055 77 1092 51 c 0
 1110 39 1116 25 1116 12 c 0
 1116 -11 1094 -32 1070 -32 c 0
 1063 -32 1057 -30 1051 -27 c 0
 1002 -1 918 77 847 135 c 1
EndSplineSet
EndChar

StartChar: asciicircum
Encoding: 62 94 136
Width: 1240
VWidth: 0
Flags: HMW
PickledData: "(dp1
S'com.typemytype.robofont.layerData'
p2
(dp3
S'b'
(dp4
S'name'
p5
S'asciicircum'
p6
sS'lib'
p7
(dp8
sS'unicodes'
p9
(tsS'width'
p10
I1240
sS'contours'
p11
(tsS'components'
p12
(tsS'anchors'
p13
(tsss."
LayerCount: 2
Fore
SplineSet
924 436 m 0
 924 411 901 391 876 391 c 0
 855 391 839 406 831 422 c 2
 627 859 l 1
 405 426 l 2
 393 402 374 391 356 391 c 0
 334 391 316 408 316 436 c 0
 316 448 318 462 326 477 c 2
 566 964 l 2
 586 1005 606 1018 625 1018 c 0
 643 1018 661 1009 680 969 c 2
 918 460 l 2
 921 452 924 444 924 436 c 0
EndSplineSet
EndChar

StartChar: asciitilde
Encoding: 94 126 137
Width: 1240
VWidth: 0
Flags: HMW
PickledData: "(dp1
S'com.typemytype.robofont.layerData'
p2
(dp3
S'b'
(dp4
S'name'
p5
S'asciitilde'
p6
sS'lib'
p7
(dp8
sS'unicodes'
p9
(tsS'width'
p10
I1240
sS'contours'
p11
(tsS'components'
p12
(tsS'anchors'
p13
(tsss."
LayerCount: 2
Fore
SplineSet
350 727 m 0
 350 840 418 922 501 922 c 0
 665 922 787 798 846 798 c 0
 943 798 946 908 998 908 c 0
 1025 908 1048 897 1048 872 c 0
 1048 758 970 678 872 678 c 0
 739 678 609 801 521 801 c 0
 440 801 440 691 400 691 c 0
 374 691 350 702 350 727 c 0
EndSplineSet
EndChar

StartChar: asterisk
Encoding: 10 42 138
Width: 1240
VWidth: 0
Flags: HMW
PickledData: "(dp1
S'com.typemytype.robofont.layerData'
p2
(dp3
S'b'
(dp4
S'name'
p5
S'asterisk'
p6
sS'lib'
p7
(dp8
sS'unicodes'
p9
(tsS'width'
p10
I1240
sS'contours'
p11
(tsS'components'
p12
(tsS'anchors'
p13
(tsss."
LayerCount: 2
Fore
SplineSet
796 1113 m 0
 834 1113 877 1084 877 1048 c 0
 877 1042 876 1035 872 1027 c 1
 753 872 l 2
 743 858 731 851 717 851 c 0
 694 851 674 868 674 891 c 0
 674 898 676 905 678 912 c 2
 756 1092 l 2
 763 1106 777 1113 796 1113 c 0
518 470 m 0
 480 470 437 498 437 536 c 0
 437 542 439 548 443 556 c 1
 562 712 l 2
 571 725 580 731 597 731 c 0
 620 731 641 715 641 692 c 0
 641 684 639 678 637 672 c 2
 559 492 l 1
 551 478 537 470 518 470 c 0
642 891 m 0
 642 868 621 851 598 851 c 0
 585 851 573 858 563 872 c 2
 444 1027 l 1
 440 1035 438 1042 438 1048 c 0
 438 1085 481 1113 519 1113 c 0
 538 1113 551 1106 559 1092 c 1
 637 912 l 2
 640 905 642 898 642 891 c 0
879 536 m 0
 879 499 835 470 798 470 c 0
 779 470 764 478 758 492 c 2
 680 672 l 2
 678 678 675 684 675 692 c 0
 675 715 695 731 718 731 c 0
 735 731 745 725 755 712 c 2
 873 556 l 1
 877 548 879 542 879 536 c 0
342 727 m 1
 309 727 292 760 292 791 c 0
 292 823 309 856 342 856 c 1
 540 834 l 2
 566 831 581 815 581 791 c 0
 581 768 566 752 540 750 c 1
 342 727 l 1
975 856 m 1
 1008 856 1024 823 1024 791 c 0
 1024 760 1008 727 975 727 c 1
 777 750 l 1
 751 752 736 768 736 791 c 0
 736 815 751 831 777 834 c 2
 975 856 l 1
EndSplineSet
EndChar

StartChar: at
Encoding: 32 64 139
Width: 1240
VWidth: 0
Flags: HMW
PickledData: "(dp1
S'com.typemytype.robofont.layerData'
p2
(dp3
S'b'
(dp4
S'name'
p5
S'at'
p6
sS'lib'
p7
(dp8
sS'unicodes'
p9
(tsS'width'
p10
I1240
sS'contours'
p11
(tsS'components'
p12
(tsS'anchors'
p13
(tsss."
LayerCount: 2
Fore
SplineSet
189 436 m 0
 189 194 342 -33 648 -33 c 0
 768 -33 876 9 938 40 c 0
 946 44 954 45 961 45 c 0
 984 45 997 26 997 7 c 0
 997 -6 991 -18 978 -26 c 0
 863 -98 766 -116 651 -116 c 2
 649 -116 l 2
 274 -116 83 154 83 439 c 0
 83 760 317 1099 695 1099 c 0
 989 1099 1205 907 1205 585 c 0
 1205 374 1133 194 923 194 c 0
 855 194 819 230 799 304 c 1
 752 225 686 189 622 189 c 0
 515 189 414 291 414 466 c 0
 414 660 506 776 647 776 c 0
 786 776 851 681 880 642 c 1
 851 342 l 2
 850 337 850 332 850 327 c 0
 854 286 881 269 926 269 c 0
 1081 269 1107 455 1107 618 c 0
 1107 864 928 1012 699 1012 c 0
 384 1012 189 714 189 436 c 0
795 550 m 0
 795 651 772 700 652 700 c 0
 541 700 500 585 500 460 c 0
 500 354 545 263 631 263 c 2
 632 263 l 2
 760 263 795 378 795 550 c 0
EndSplineSet
EndChar

StartChar: b
Encoding: 66 98 141
Width: 1240
VWidth: 0
Flags: HMW
PickledData: "(dp1
S'com.typemytype.robofont.layerData'
p2
(dp3
S'b'
(dp4
S'name'
p5
S'b'
sS'lib'
p6
(dp7
sS'unicodes'
p8
(tsS'width'
p9
I1240
sS'contours'
p10
(tsS'components'
p11
(tsS'anchors'
p12
(tsss."
LayerCount: 2
Fore
SplineSet
386 1141 m 6
 386 707 l 5
 460 771 541 813 670 813 c 4
 904 813 1048 636 1048 398 c 4
 1048 156 909 -17 674 -17 c 4
 547 -17 446 37 382 102 c 5
 382 0 356 -4 331 -4 c 4
 310 -4 290 7 290 74 c 6
 290 1091 l 5
 162 1083 l 6
 155 1082 148 1080 142 1080 c 4
 118 1080 103 1098 103 1118 c 4
 103 1134 112 1154 136 1159 c 5
 325 1178 l 6
 333 1179 339 1180 345 1180 c 4
 374 1180 386 1164 386 1141 c 6
952 398 m 4
 952 575 855 731 664 731 c 4
 537 731 449 681 386 602 c 5
 386 210 l 5
 444 127 537 65 672 65 c 4
 858 65 952 219 952 398 c 4
EndSplineSet
EndChar

StartChar: backslash
Encoding: 60 92 142
Width: 1240
VWidth: 0
Flags: HMW
PickledData: "(dp1
S'com.typemytype.robofont.layerData'
p2
(dp3
S'b'
(dp4
S'name'
p5
S'backslash'
p6
sS'lib'
p7
(dp8
sS'unicodes'
p9
(tsS'width'
p10
I1240
sS'contours'
p11
(tsS'components'
p12
(tsS'anchors'
p13
(tsss."
LayerCount: 2
Fore
SplineSet
991 -178 m 2
 994 -184 995 -189 995 -195 c 0
 995 -219 972 -237 949 -237 c 0
 935 -237 920 -230 911 -213 c 2
 247 1113 l 2
 243 1121 242 1128 242 1134 c 0
 242 1158 265 1173 288 1173 c 0
 303 1173 317 1166 324 1152 c 2
 991 -178 l 2
EndSplineSet
EndChar

StartChar: bar
Encoding: 92 124 143
Width: 1240
VWidth: 0
Flags: HMW
PickledData: "(dp1
S'com.typemytype.robofont.layerData'
p2
(dp3
S'b'
(dp4
S'name'
p5
S'bar'
p6
sS'lib'
p7
(dp8
sS'unicodes'
p9
(tsS'width'
p10
I1240
sS'contours'
p11
(tsS'components'
p12
(tsS'anchors'
p13
(tsss."
LayerCount: 2
Fore
SplineSet
701 1257 m 0
 734 1257 756 1239 759 1208 c 1
 759 -67 l 2
 759 -96 726 -112 699 -112 c 0
 663 -112 639 -97 639 -56 c 2
 639 1208 l 2
 639 1241 670 1257 701 1257 c 0
EndSplineSet
EndChar

StartChar: braceleft
Encoding: 91 123 144
Width: 1240
VWidth: 0
Flags: HMW
PickledData: "(dp1
S'com.typemytype.robofont.layerData'
p2
(dp3
S'b'
(dp4
S'name'
p5
S'braceleft'
p6
sS'lib'
p7
(dp8
sS'unicodes'
p9
(tsS'width'
p10
I1241
sS'contours'
p11
(tsS'components'
p12
(tsS'anchors'
p13
(tsss."
LayerCount: 2
Fore
SplineSet
657 658 m 0
 657 597 656 543 568 526 c 1
 656 506 657 446 657 385 c 0
 657 256 597 103 597 -15 c 0
 597 -113 663 -143 860 -143 c 0
 879 -143 888 -164 888 -185 c 0
 888 -206 879 -227 860 -227 c 0
 538 -227 502 -147 502 8 c 0
 502 151 564 269 564 385 c 0
 564 435 539 467 441 467 c 0
 411 467 394 498 394 529 c 0
 394 557 408 585 441 585 c 0
 539 585 564 607 564 657 c 0
 564 773 502 891 502 1034 c 0
 502 1189 538 1270 860 1270 c 0
 879 1270 888 1249 888 1228 c 0
 888 1207 879 1186 860 1186 c 0
 663 1186 597 1156 597 1058 c 0
 597 940 657 787 657 658 c 0
EndSplineSet
EndChar

StartChar: braceright
Encoding: 93 125 145
Width: 1240
VWidth: 0
Flags: HMW
PickledData: "(dp1
S'com.typemytype.robofont.layerData'
p2
(dp3
S'b'
(dp4
S'name'
p5
S'braceright'
p6
sS'lib'
p7
(dp8
sS'unicodes'
p9
(tsS'width'
p10
I1241
sS'contours'
p11
(tsS'components'
p12
(tsS'anchors'
p13
(tsss."
LayerCount: 2
Fore
SplineSet
614 385 m 0
 614 446 615 500 703 517 c 1
 615 537 614 597 614 658 c 0
 614 787 674 940 674 1058 c 0
 674 1156 608 1186 411 1186 c 0
 392 1186 383 1207 383 1228 c 0
 383 1249 392 1270 411 1270 c 0
 733 1270 769 1190 769 1035 c 0
 769 892 707 774 707 658 c 0
 707 608 732 576 830 576 c 0
 860 576 877 545 877 514 c 0
 877 486 863 458 830 458 c 0
 732 458 707 436 707 386 c 0
 707 270 769 152 769 9 c 0
 769 -146 733 -227 411 -227 c 0
 392 -227 383 -206 383 -185 c 0
 383 -164 392 -143 411 -143 c 0
 608 -143 674 -113 674 -15 c 0
 674 103 614 256 614 385 c 0
EndSplineSet
EndChar

StartChar: bracketleft
Encoding: 59 91 146
Width: 1240
VWidth: 0
Flags: HMW
PickledData: "(dp1
S'com.typemytype.robofont.layerData'
p2
(dp3
S'b'
(dp4
S'name'
p5
S'bracketleft'
p6
sS'lib'
p7
(dp8
sS'unicodes'
p9
(tsS'width'
p10
I1240
sS'contours'
p11
(tsS'components'
p12
(tsS'anchors'
p13
(tsss."
LayerCount: 2
Fore
SplineSet
802 1331 m 2
 821 1331 830 1310 830 1289 c 0
 830 1268 821 1247 802 1247 c 2
 611 1247 l 1
 611 -64 l 1
 802 -64 l 2
 821 -64 830 -85 830 -106 c 0
 830 -127 821 -148 802 -148 c 2
 570 -148 l 2
 534 -148 515 -125 515 -90 c 2
 515 1270 l 2
 515 1308 532 1331 570 1331 c 2
 802 1331 l 2
EndSplineSet
EndChar

StartChar: bracketright
Encoding: 61 93 147
Width: 1240
VWidth: 0
Flags: HMW
PickledData: "(dp1
S'com.typemytype.robofont.layerData'
p2
(dp3
S'b'
(dp4
S'name'
p5
S'bracketright'
p6
sS'lib'
p7
(dp8
sS'unicodes'
p9
(tsS'width'
p10
I1240
sS'contours'
p11
(tsS'components'
p12
(tsS'anchors'
p13
(tsss."
LayerCount: 2
Fore
SplineSet
452 -148 m 2
 433 -148 424 -127 424 -106 c 0
 424 -85 433 -64 452 -64 c 2
 643 -64 l 1
 643 1247 l 1
 452 1247 l 2
 433 1247 424 1268 424 1289 c 0
 424 1310 433 1331 452 1331 c 2
 684 1331 l 2
 720 1331 739 1308 739 1273 c 2
 739 -87 l 2
 739 -125 722 -148 684 -148 c 2
 452 -148 l 2
EndSplineSet
EndChar

StartChar: breve
Encoding: 354 728 148
Width: 1240
VWidth: 0
Flags: HMW
PickledData: "(dp1
S'com.typemytype.robofont.layerData'
p2
(dp3
S'b'
(dp4
S'name'
p5
S'breve'
p6
sS'lib'
p7
(dp8
sS'unicodes'
p9
(tsS'width'
p10
I1240
sS'contours'
p11
(tsS'components'
p12
(tsS'anchors'
p13
(tsss."
LayerCount: 2
Fore
SplineSet
697 1028 m 0
 757 1028 816 1064 827 1132 c 1
 831 1144 840 1148 850 1148 c 0
 866 1148 884 1136 884 1124 c 0
 884 999 758 970 697 970 c 0
 636 970 510 999 510 1124 c 0
 510 1136 528 1148 544 1148 c 0
 554 1148 563 1144 567 1132 c 1
 578 1064 637 1028 697 1028 c 0
EndSplineSet
EndChar

StartChar: brokenbar
Encoding: 101 166 149
Width: 1240
VWidth: 0
Flags: HMW
PickledData: "(dp1
S'com.typemytype.robofont.layerData'
p2
(dp3
S'b'
(dp4
S'name'
p5
S'brokenbar'
p6
sS'lib'
p7
(dp8
sS'unicodes'
p9
(tsS'width'
p10
I1241
sS'contours'
p11
(tsS'components'
p12
(tsS'anchors'
p13
(tsss."
LayerCount: 2
Fore
SplineSet
664 704 m 2
 664 688 642 679 621 679 c 0
 599 679 577 688 577 704 c 2
 577 1172 l 2
 577 1193 599 1203 621 1203 c 0
 642 1203 664 1193 664 1172 c 2
 664 704 l 2
664 -56 m 2
 664 -73 642 -81 621 -81 c 0
 599 -81 577 -73 577 -56 c 2
 577 412 l 2
 577 433 599 443 621 443 c 0
 642 443 664 433 664 412 c 2
 664 -56 l 2
EndSplineSet
EndChar

StartChar: bullet
Encoding: 394 8226 150
Width: 1240
VWidth: 0
Flags: HMW
PickledData: "(dp1
S'com.typemytype.robofont.layerData'
p2
(dp3
S'b'
(dp4
S'name'
p5
S'bullet'
p6
sS'lib'
p7
(dp8
sS'unicodes'
p9
(tsS'width'
p10
I1241
sS'contours'
p11
(tsS'components'
p12
(tsS'anchors'
p13
(tsss."
LayerCount: 2
Fore
SplineSet
624 197 m 0
 476 197 380 291 380 439 c 0
 380 587 476 681 624 681 c 0
 767 681 861 582 861 439 c 0
 861 295 767 197 624 197 c 0
EndSplineSet
EndChar

StartChar: c
Encoding: 67 99 151
Width: 1240
VWidth: 0
Flags: HMW
PickledData: "(dp1
S'com.typemytype.robofont.layerData'
p2
(dp3
S'b'
(dp4
S'name'
p5
S'c'
sS'lib'
p6
(dp7
sS'unicodes'
p8
(tsS'width'
p9
I1240
sS'contours'
p10
(tsS'components'
p11
(tsS'anchors'
p12
(tsss."
LayerCount: 2
Fore
SplineSet
635 813 m 4
 833 813 979 744 979 564 c 0
 979 519 960 484 919 484 c 0
 871 484 868 564 853 686 c 1
 782 721 717 731 650 731 c 4
 416 731 279 609 279 407 c 4
 279 175 421 65 624 65 c 4
 751 65 823 99 902 172 c 0
 914 183 930 188 943 188 c 0
 962 188 978 176 978 147 c 0
 978 133 972 118 960 105 c 0
 886 25 736 -17 632 -17 c 4
 365 -17 183 141 183 407 c 4
 183 663 387 813 635 813 c 4
EndSplineSet
EndChar

StartChar: caron
Encoding: 353 711 153
Width: 1240
VWidth: 0
Flags: HMW
PickledData: "(dp1
S'com.typemytype.robofont.layerData'
p2
(dp3
S'b'
(dp4
S'name'
p5
S'caron'
p6
sS'lib'
p7
(dp8
sS'unicodes'
p9
(tsS'width'
p10
I1240
sS'contours'
p11
(tsS'components'
p12
(tsS'anchors'
p13
(tsss."
LayerCount: 2
Fore
SplineSet
699 979 m 0
 686 979 673 982 668 990 c 2
 484 1273 l 1
 479 1278 477 1285 477 1290 c 0
 477 1306 496 1320 514 1320 c 0
 522 1320 532 1319 537 1311 c 2
 699 1102 l 1
 862 1311 l 2
 867 1319 877 1320 885 1320 c 0
 903 1320 922 1306 922 1290 c 0
 922 1285 920 1278 915 1273 c 1
 731 990 l 2
 726 982 712 979 699 979 c 0
EndSplineSet
EndChar

StartChar: cedilla
Encoding: 117 184 158
Width: 1240
VWidth: 0
Flags: HMW
PickledData: "(dp1
S'com.typemytype.robofont.layerData'
p2
(dp3
S'b'
(dp4
S'name'
p5
S'cedilla'
p6
sS'lib'
p7
(dp8
sS'unicodes'
p9
(tsS'width'
p10
I1240
sS'contours'
p11
(tsS'components'
p12
(tsS'anchors'
p13
(tsss."
LayerCount: 2
Fore
SplineSet
180 0 m 1
 139 -321 l 2
 132 -382 103 -401 77 -401 c 0
 46 -401 28 -380 28 -347 c 0
 28 -335 31 -321 36 -306 c 2
 143 0 l 1
 180 0 l 1
EndSplineSet
EndChar

StartChar: cent
Encoding: 97 162 159
Width: 1240
VWidth: 0
Flags: HMW
PickledData: "(dp1
S'com.typemytype.robofont.layerData'
p2
(dp3
S'b'
(dp4
S'name'
p5
S'cent'
p6
sS'lib'
p7
(dp8
sS'unicodes'
p9
(tsS'width'
p10
I1240
sS'contours'
p11
(tsS'components'
p12
(tsS'anchors'
p13
(tsss."
LayerCount: 2
Fore
SplineSet
634 990 m 0
 659 990 660 978 660 956 c 0
 660 954 660 953 660 951 c 2
 660 -189 l 2
 660 -216 657 -236 634 -236 c 0
 610 -236 607 -222 607 -190 c 2
 607 951 l 2
 607 977 610 990 634 990 c 0
EndSplineSet
Refer: 151 99 N 1 0 0 1 0 0 2
EndChar

StartChar: circumflex
Encoding: 352 710 160
Width: 1240
VWidth: 0
Flags: HMW
PickledData: "(dp1
S'com.typemytype.robofont.layerData'
p2
(dp3
S'b'
(dp4
S'name'
p5
S'circumflex'
p6
sS'lib'
p7
(dp8
sS'unicodes'
p9
(tsS'width'
p10
I1240
sS'contours'
p11
(tsS'components'
p12
(tsS'anchors'
p13
(tsss."
LayerCount: 2
Fore
SplineSet
699 1320 m 0
 712 1320 726 1316 731 1308 c 2
 915 1025 l 1
 920 1020 922 1013 922 1008 c 0
 922 992 903 979 885 979 c 0
 877 979 867 980 862 988 c 2
 699 1197 l 1
 537 988 l 2
 532 980 522 979 514 979 c 0
 496 979 477 992 477 1008 c 0
 477 1013 479 1020 484 1025 c 1
 668 1308 l 2
 673 1316 686 1320 699 1320 c 0
EndSplineSet
EndChar

StartChar: colon
Encoding: 26 58 161
Width: 1240
VWidth: 0
Flags: HMW
PickledData: "(dp1
S'com.typemytype.robofont.layerData'
p2
(dp3
S'b'
(dp4
S'name'
p5
S'colon'
p6
sS'lib'
p7
(dp8
sS'unicodes'
p9
(tsS'width'
p10
I1240
sS'contours'
p11
(tsS'components'
p12
(tsS'anchors'
p13
(tsss."
LayerCount: 2
Fore
SplineSet
644 600 m 0
 583 600 539 644 539 705 c 0
 539 766 584 811 644 811 c 0
 704 811 750 765 750 705 c 0
 750 644 704 600 644 600 c 0
644 -16 m 0
 583 -16 539 28 539 89 c 0
 539 150 584 195 644 195 c 0
 704 195 750 149 750 89 c 0
 750 28 704 -16 644 -16 c 0
EndSplineSet
EndChar

StartChar: comma
Encoding: 12 44 162
Width: 1240
VWidth: 0
Flags: HMW
PickledData: "(dp1
S'com.typemytype.robofont.layerData'
p2
(dp3
S'b'
(dp4
S'name'
p5
S'comma'
p6
sS'lib'
p7
(dp8
sS'unicodes'
p9
(tsS'width'
p10
I1240
sS'contours'
p11
(tsS'components'
p12
(tsS'anchors'
p13
(tsss."
LayerCount: 2
Fore
SplineSet
616 180 m 4
 676 180 728 139 728 59 c 4
 728 -57 625 -167 543 -208 c 4
 540 -210 536 -210 533 -210 c 4
 519 -210 505 -197 505 -183 c 4
 505 -176 509 -168 517 -162 c 4
 560 -131 626 -70 626 -8 c 5
 567 -8 518 20 518 85 c 4
 518 149 569 180 616 180 c 4
EndSplineSet
EndChar

StartChar: copyright
Encoding: 104 169 163
Width: 1240
VWidth: 0
Flags: HMW
PickledData: "(dp1
S'com.typemytype.robofont.layerData'
p2
(dp3
S'b'
(dp4
S'name'
p5
S'copyright'
p6
sS'lib'
p7
(dp8
sS'unicodes'
p9
(tsS'width'
p10
F1241
sS'contours'
p11
(tsS'components'
p12
(tsS'anchors'
p13
(tsss."
LayerCount: 2
Fore
SplineSet
923 443 m 0
 901 345 794 232 627 232 c 0
 431 232 293 372 293 596 c 0
 293 799 439 946 631 946 c 0
 730 946 810 897 842 839 c 1
 842 909 l 2
 842 928 858 938 873 938 c 0
 888 938 903 928 903 908 c 2
 903 730 l 2
 903 712 889 703 875 703 c 0
 860 703 850 714 845 730 c 0
 812 837 742 884 631 884 c 0
 473 884 373 759 373 597 c 0
 373 405 481 298 627 298 c 0
 747 298 826 356 866 456 c 0
 872 470 883 476 894 476 c 0
 909 476 924 465 924 449 c 0
 924 447 923 445 923 443 c 0
1193 581 m 0
 1193 218 981 13 620 13 c 0
 259 13 48 218 48 581 c 0
 48 944 258 1158 620 1158 c 0
 982 1158 1193 944 1193 581 c 0
128 583 m 0
 128 265 296 83 620 83 c 0
 944 83 1113 265 1113 583 c 0
 1113 902 943 1089 620 1089 c 0
 297 1089 128 900 128 583 c 0
EndSplineSet
EndChar

StartChar: currency
Encoding: 99 164 164
Width: 1240
VWidth: 0
Flags: HMW
PickledData: "(dp1
S'com.typemytype.robofont.layerData'
p2
(dp3
S'b'
(dp4
S'name'
p5
S'currency'
p6
sS'lib'
p7
(dp8
sS'unicodes'
p9
(tsS'width'
p10
I1240
sS'contours'
p11
(tsS'components'
p12
(tsS'anchors'
p13
(tsss."
LayerCount: 2
Back
SplineSet
621 301 m 4
 743 301 801 390 801 497 c 4
 801 604 740 697 615 697 c 4
 490 697 430 604 430 497 c 4
 430 392 501 301 621 301 c 4
616 748 m 4
 781 748 863 625 863 500 c 4
 863 376 777 250 611 250 c 4
 445 250 361 372 361 495 c 4
 361 621 449 748 616 748 c 4
421 354 m 5
 766 699 l 5
 786 719 808 716 822 702 c 4
 836 688 840 665 820 645 c 5
 475 300 l 5
 455 280 432 284 418 298 c 4
 404 312 401 334 421 354 c 5
EndSplineSet
Fore
SplineSet
616 368 m 0
 738 368 801 453 801 560 c 0
 801 667 740 756 615 756 c 0
 490 756 430 667 430 560 c 0
 430 455 496 368 616 368 c 0
459 358 m 1
 371 271 l 2
 340 240 296 282 328 314 c 2
 414 400 l 1
 378 444 361 501 361 558 c 0
 361 615 379 672 414 717 c 1
 328 803 l 2
 296 835 341 876 372 845 c 2
 457 760 l 1
 498 791 551 811 616 811 c 0
 682 811 734 792 774 760 c 1
 858 843 l 2
 890 875 933 831 901 799 c 2
 817 715 l 1
 848 671 863 617 863 563 c 0
 863 507 845 450 810 405 c 1
 900 315 l 2
 931 284 890 240 857 273 c 2
 768 362 l 1
 728 332 675 313 611 313 c 0
 549 313 498 330 459 358 c 1
EndSplineSet
EndChar

StartChar: d
Encoding: 68 100 165
Width: 1240
VWidth: 0
Flags: HMW
PickledData: "(dp1
S'com.typemytype.robofont.layerData'
p2
(dp3
S'b'
(dp4
S'name'
p5
S'd'
sS'lib'
p6
(dp7
sS'unicodes'
p8
(tsS'width'
p9
I1240
sS'contours'
p10
(tsS'components'
p11
(tsS'anchors'
p12
(tsss."
LayerCount: 2
Fore
SplineSet
867 47 m 2
 864 107 l 1
 805 36 698 -17 571 -17 c 0
 336 -17 193 156 193 398 c 0
 193 636 337 813 571 813 c 0
 700 813 781 771 855 707 c 1
 855 1091 l 1
 727 1083 l 2
 720 1082 713 1080 707 1080 c 0
 683 1080 668 1098 668 1118 c 0
 668 1134 677 1154 701 1159 c 1
 890 1178 l 2
 898 1179 904 1180 910 1180 c 0
 939 1180 951 1164 951 1141 c 2
 951 85 l 1
 1099 96 l 1
 1105 96 l 2
 1133 96 1145 79 1145 61 c 0
 1145 42 1132 22 1107 17 c 1
 921 -3 l 1
 914 -3 l 2
 888 -3 869 13 867 47 c 2
289 398 m 0
 289 219 387 65 573 65 c 0
 708 65 797 127 855 210 c 1
 855 602 l 1
 792 681 704 731 577 731 c 0
 386 731 289 575 289 398 c 0
EndSplineSet
EndChar

StartChar: dagger
Encoding: 392 8224 166
Width: 1240
VWidth: 0
Flags: HMW
PickledData: "(dp1
S'com.typemytype.robofont.layerData'
p2
(dp3
S'b'
(dp4
S'name'
p5
S'dagger'
p6
sS'lib'
p7
(dp8
sS'unicodes'
p9
(tsS'width'
p10
I1241
sS'contours'
p11
(tsS'components'
p12
(tsS'anchors'
p13
(tsss."
LayerCount: 2
Fore
SplineSet
675 817 m 1
 900 817 l 2
 930 817 945 813 945 783 c 0
 945 753 930 747 900 747 c 2
 675 747 l 1
 675 -67 l 2
 675 -96 654 -112 627 -112 c 0
 591 -112 579 -97 579 -56 c 2
 579 747 l 1
 341 747 l 2
 311 747 296 753 296 783 c 0
 296 813 311 817 341 817 c 2
 579 817 l 1
 579 1168 l 2
 579 1201 597 1217 628 1217 c 0
 661 1217 672 1199 675 1168 c 1
 675 817 l 1
EndSplineSet
EndChar

StartChar: daggerdbl
Encoding: 393 8225 167
Width: 1240
VWidth: 0
Flags: HMW
PickledData: "(dp1
S'com.typemytype.robofont.layerData'
p2
(dp3
S'b'
(dp4
S'name'
p5
S'daggerdbl'
p6
sS'lib'
p7
(dp8
sS'unicodes'
p9
(tsS'width'
p10
I1241
sS'contours'
p11
(tsS'components'
p12
(tsS'anchors'
p13
(tsss."
LayerCount: 2
Fore
SplineSet
675 817 m 1
 860 817 l 2
 890 817 905 813 905 783 c 0
 905 753 890 747 860 747 c 2
 675 747 l 1
 675 347 l 1
 860 347 l 2
 890 347 905 342 905 312 c 0
 905 282 890 277 860 277 c 2
 675 277 l 1
 675 -67 l 2
 675 -96 654 -112 627 -112 c 0
 591 -112 579 -97 579 -56 c 2
 579 277 l 1
 381 277 l 2
 351 277 336 282 336 312 c 0
 336 342 351 347 381 347 c 2
 579 347 l 1
 579 747 l 1
 381 747 l 2
 351 747 336 753 336 783 c 0
 336 813 351 817 381 817 c 2
 579 817 l 1
 579 1168 l 2
 579 1201 597 1217 628 1217 c 0
 661 1217 672 1199 675 1168 c 1
 675 817 l 1
EndSplineSet
EndChar

StartChar: dcroat
Encoding: 205 273 169
Width: 1240
VWidth: 0
Flags: HMW
PickledData: "(dp1
S'com.typemytype.robofont.layerData'
p2
(dp3
S'b'
(dp4
S'name'
p5
S'dcroat'
p6
sS'lib'
p7
(dp8
sS'unicodes'
p9
(tsS'width'
p10
I1240
sS'contours'
p11
(tsS'components'
p12
(tsS'anchors'
p13
(tsss."
LayerCount: 2
Fore
SplineSet
1023 907 m 2
 661 907 l 2
 623 907 610 917 610 944 c 0
 610 971 626 979 660 979 c 2
 1021 979 l 2
 1054 979 1070 971 1070 944 c 0
 1070 917 1056 907 1023 907 c 2
EndSplineSet
Refer: 165 100 N 1 0 0 1 0 0 2
EndChar

StartChar: degree
Encoding: 111 176 170
Width: 1240
VWidth: 0
Flags: HMW
PickledData: "(dp1
S'com.typemytype.robofont.layerData'
p2
(dp3
S'b'
(dp4
S'name'
p5
S'degree'
p6
sS'lib'
p7
(dp8
sS'unicodes'
p9
(tsS'width'
p10
I1240
sS'contours'
p11
(tsS'components'
p12
(tsS'anchors'
p13
(tsss."
LayerCount: 2
Fore
SplineSet
707 719 m 4
 801 719 845 788 845 870 c 4
 845 952 798 1024 702 1024 c 4
 606 1024 560 952 560 870 c 4
 560 789 615 719 707 719 c 4
703 1121 m 4
 868 1121 950 998 950 873 c 4
 950 749 864 623 698 623 c 4
 532 623 448 745 448 868 c 4
 448 994 536 1121 703 1121 c 4
EndSplineSet
EndChar

StartChar: dieresis
Encoding: 103 168 171
Width: 1240
VWidth: 0
Flags: HMW
PickledData: "(dp1
S'com.typemytype.robofont.layerData'
p2
(dp3
S'b'
(dp4
S'name'
p5
S'dieresis'
p6
sS'lib'
p7
(dp8
sS'unicodes'
p9
(tsS'width'
p10
I1240
sS'contours'
p11
(tsS'components'
p12
(tsS'anchors'
p13
(tsss."
LayerCount: 2
Fore
SplineSet
532 1143 m 0
 578 1143 614 1106 614 1060 c 0
 614 1014 578 978 532 978 c 0
 486 978 449 1014 449 1060 c 0
 449 1106 486 1143 532 1143 c 0
867 1143 m 0
 913 1143 949 1106 949 1060 c 0
 949 1014 913 978 867 978 c 0
 821 978 784 1014 784 1060 c 0
 784 1106 821 1143 867 1143 c 0
EndSplineSet
EndChar

StartChar: divide
Encoding: 180 247 172
Width: 1240
VWidth: 0
Flags: HMW
PickledData: "(dp1
S'com.typemytype.robofont.layerData'
p2
(dp3
S'b'
(dp4
S'name'
p5
S'divide'
p6
sS'lib'
p7
(dp8
sS'unicodes'
p9
(tsS'width'
p10
I1240
sS'contours'
p11
(tsS'components'
p12
(tsS'anchors'
p13
(tsss."
LayerCount: 2
Fore
SplineSet
534 277 m 0
 534 323 572 359 618 359 c 0
 664 359 700 323 700 277 c 0
 700 231 664 193 618 193 c 0
 572 193 534 231 534 277 c 0
534 823 m 0
 534 869 572 905 618 905 c 0
 664 905 700 869 700 823 c 0
 700 777 664 741 618 741 c 0
 572 741 534 777 534 823 c 0
347 596 m 2
 894 596 l 2
 924 596 939 574 939 549 c 0
 939 524 924 502 894 502 c 2
 347 502 l 2
 317 502 301 525 301 551 c 0
 301 575 315 596 347 596 c 2
EndSplineSet
EndChar

StartChar: dollar
Encoding: 4 36 173
Width: 1240
VWidth: 0
Flags: HMW
PickledData: "(dp1
S'com.typemytype.robofont.layerData'
p2
(dp3
S'b'
(dp4
S'name'
p5
S'dollar'
p6
sS'lib'
p7
(dp8
sS'unicodes'
p9
(tsS'width'
p10
I1240
sS'contours'
p11
(tsS'components'
p12
(tsS'anchors'
p13
(tsss."
LayerCount: 2
Fore
SplineSet
640 1315 m 2
 640 1334 657 1344 674 1344 c 0
 690 1344 707 1334 707 1315 c 2
 707 -141 l 2
 707 -158 690 -167 674 -167 c 0
 657 -167 640 -158 640 -141 c 2
 640 1315 l 2
EndSplineSet
Refer: 88 83 N 1 0 0 1 0 0 2
EndChar

StartChar: dotaccent
Encoding: 355 729 174
Width: 1240
VWidth: 0
Flags: HMW
PickledData: "(dp1
S'com.typemytype.robofont.layerData'
p2
(dp3
S'b'
(dp4
S'name'
p5
S'dotaccent'
p6
sS'lib'
p7
(dp8
sS'unicodes'
p9
(tsS'width'
p10
I1240
sS'contours'
p11
(tsS'components'
p12
(tsS'anchors'
p13
(tsss."
LayerCount: 2
Fore
SplineSet
644 811 m 0
 690 811 726 774 726 728 c 0
 726 682 690 646 644 646 c 0
 598 646 561 682 561 728 c 0
 561 774 598 811 644 811 c 0
EndSplineSet
EndChar

StartChar: dotlessi
Encoding: 237 305 175
Width: 1240
VWidth: 0
Flags: HMW
PickledData: "(dp1
S'com.typemytype.robofont.layerData'
p2
(dp3
S'b'
(dp4
S'name'
p5
S'dotlessi'
p6
sS'lib'
p7
(dp8
sS'unicodes'
p9
(tsS'width'
p10
I1240
sS'contours'
p11
(tsS'components'
p12
(tsS'anchors'
p13
(tsss."
LayerCount: 2
Fore
SplineSet
299 0 m 2
 268 0 253 22 253 43 c 0
 253 63 267 82 295 82 c 2
 667 82 l 1
 667 719 l 1
 334 674 l 2
 331 674 329 673 327 673 c 0
 300 673 286 694 286 715 c 0
 286 734 296 752 318 755 c 2
 716 810 l 2
 719 811 722 811 727 811 c 0
 748 811 763 799 763 779 c 2
 763 82 l 1
 1096 82 l 2
 1123 82 1136 61 1136 41 c 0
 1136 20 1122 0 1095 0 c 2
 299 0 l 2
EndSplineSet
EndChar

StartChar: e
Encoding: 69 101 176
Width: 1240
VWidth: 0
Flags: HMW
PickledData: "(dp1
S'com.typemytype.robofont.layerData'
p2
(dp3
S'b'
(dp4
S'name'
p5
S'e'
sS'lib'
p6
(dp7
sS'unicodes'
p8
(tsS'width'
p9
I1240
sS'contours'
p10
(tsS'components'
p11
(tsS'anchors'
p12
(tsss."
LayerCount: 2
Fore
SplineSet
311 461 m 5
 929 465 l 5
 923 563 893 731 656 731 c 4
 461 731 335 631 311 461 c 5
654 813 m 4
 860 813 1014 698 1014 479 c 4
 1014 429 984 392 937 392 c 6
 308 387 l 5
 315 169 459 65 657 65 c 4
 754 65 856 100 934 174 c 5
 949 186 963 191 975 191 c 4
 999 191 1015 171 1015 147 c 4
 1015 133 1009 118 997 105 c 4
 923 25 769 -17 665 -17 c 4
 398 -17 212 141 212 407 c 4
 212 663 413 813 654 813 c 4
EndSplineSet
EndChar

StartChar: eight
Encoding: 24 56 184
Width: 1240
VWidth: 0
Flags: HMW
PickledData: "(dp1
S'com.typemytype.robofont.layerData'
p2
(dp3
S'b'
(dp4
S'name'
p5
S'eight'
p6
sS'lib'
p7
(dp8
sS'unicodes'
p9
(tsS'width'
p10
I1240
sS'contours'
p11
(tsS'components'
p12
(tsS'anchors'
p13
(tsss."
LayerCount: 2
Fore
SplineSet
628 1101 m 0
 505 1101 382 1047 382 906 c 0
 382 770 496 716 642 635 c 1
 773 710 878 784 878 905 c 0
 878 1050 773 1101 628 1101 c 0
648 69 m 0
 778 69 926 101 926 266 c 0
 926 422 739 497 626 560 c 1
 532 507 356 409 356 282 c 0
 356 109 512 69 648 69 c 0
620 1187 m 0
 823 1187 970 1103 970 913 c 0
 970 756 833 668 728 595 c 1
 855 523 1022 436 1022 268 c 0
 1022 58 852 -17 642 -17 c 0
 450 -17 260 53 260 274 c 0
 260 435 437 536 544 599 c 1
 435 666 290 746 290 897 c 0
 290 1083 434 1187 620 1187 c 0
EndSplineSet
EndChar

StartChar: emdash
Encoding: 385 8212 187
Width: 1240
VWidth: 0
Flags: HMW
PickledData: "(dp1
S'com.typemytype.robofont.layerData'
p2
(dp3
S'b'
(dp4
S'name'
p5
S'emdash'
p6
sS'lib'
p7
(dp8
sS'unicodes'
p9
(tsS'width'
p10
F1241
sS'contours'
p11
(tsS'components'
p12
(tsS'anchors'
p13
(tsss."
LayerCount: 2
Fore
SplineSet
1042 533 m 2
 1072 533 1087 512 1087 490 c 0
 1087 469 1072 447 1042 447 c 2
 199 447 l 2
 169 447 154 469 154 490 c 0
 154 512 169 533 199 533 c 2
 1042 533 l 2
EndSplineSet
EndChar

StartChar: endash
Encoding: 384 8211 188
Width: 1240
VWidth: 0
Flags: HMW
PickledData: "(dp1
S'com.typemytype.robofont.layerData'
p2
(dp3
S'b'
(dp4
S'name'
p5
S'endash'
p6
sS'lib'
p7
(dp8
sS'unicodes'
p9
(tsS'width'
p10
I1241
sS'contours'
p11
(tsS'components'
p12
(tsS'anchors'
p13
(tsss."
LayerCount: 2
Fore
SplineSet
958 503 m 2
 988 503 1003 482 1003 460 c 0
 1003 439 988 417 958 417 c 2
 283 417 l 2
 253 417 238 439 238 460 c 0
 238 482 253 503 283 503 c 2
 958 503 l 2
EndSplineSet
EndChar

StartChar: eng
Encoding: 426 331 189
Width: 1240
VWidth: 0
Flags: HMW
PickledData: "(dp1
S'com.typemytype.robofont.layerData'
p2
(dp3
S'b'
(dp4
S'name'
p5
S'eng'
p6
sS'lib'
p7
(dp8
sS'unicodes'
p9
(tsS'width'
p10
I1240
sS'contours'
p11
((dp12
S'points'
p13
((dp14
S'segmentType'
p15
S'curve'
p16
sS'x'
F759
sS'smooth'
p17
I01
sS'y'
F81
s(dp18
g15
S'line'
p19
sS'x'
F759
sg17
I01
sS'y'
F520
s(dp20
S'y'
F629
sS'x'
F759
sg17
I00
s(dp21
S'y'
F695
sS'x'
F705
sg17
I00
s(dp22
g15
S'curve'
p23
sS'x'
F594
sg17
I01
sS'y'
F695
s(dp24
S'y'
F695
sS'x'
F472
sg17
I00
s(dp25
S'y'
F605
sS'x'
F337
sg17
I00
s(dp26
g15
S'curve'
p27
sS'x'
F337
sg17
I01
sS'y'
F483
s(dp28
g15
S'line'
p29
sS'x'
F337
sg17
I00
sS'y'
F120
s(dp30
g15
S'line'
p31
sS'x'
F437
sg17
I01
sS'y'
F120
s(dp32
S'y'
F120
sS'x'
F472
sg17
I00
s(dp33
S'y'
F91
sS'x'
F486
sg17
I00
s(dp34
g15
S'curve'
p35
sS'x'
F486
sg17
I01
sS'y'
F57
s(dp36
S'y'
F27
sS'x'
F486
sg17
I00
s(dp37
S'y'
F0
sS'x'
F468
sg17
I00
s(dp38
g15
S'curve'
p39
sS'x'
F436
sg17
I01
sS'y'
F0
s(dp40
g15
S'line'
p41
sS'x'
F117
sg17
I01
sS'y'
F0
s(dp42
S'y'
F0
sS'x'
F79
sg17
I00
s(dp43
S'y'
F24
sS'x'
F61
sg17
I00
s(dp44
g15
S'curve'
p45
sS'x'
F61
sg17
I01
sS'y'
F59
s(dp46
S'y'
F92
sS'x'
F61
sg17
I00
s(dp47
S'y'
F120
sS'x'
F77
sg17
I00
s(dp48
g15
S'curve'
p49
sS'x'
F113
sg17
I01
sS'y'
F120
s(dp50
g15
S'line'
p51
sS'x'
F197
sg17
I00
sS'y'
F120
s(dp52
g15
S'line'
p53
sS'x'
F197
sg17
I00
sS'y'
F669
s(dp54
g15
S'line'
p55
sS'x'
F100
sg17
I00
sS'y'
F645
s(dp56
S'y'
F644
sS'x'
F98
sg17
I00
s(dp57
S'y'
F643
sS'x'
F95
sg17
I00
s(dp58
g15
S'curve'
p59
sS'x'
F90
sg17
I01
sS'y'
F643
s(dp60
S'y'
F643
sS'x'
F63
sg17
I00
s(dp61
S'y'
F670
sS'x'
F34
sg17
I00
s(dp62
g15
S'curve'
p63
sS'x'
F34
sg17
I01
sS'y'
F698
s(dp64
S'y'
F729
sS'x'
F34
sg17
I00
s(dp65
S'y'
F747
sS'x'
F47
sg17
I00
s(dp66
g15
S'curve'
p67
sS'x'
F73
sg17
I01
sS'y'
F755
s(dp68
g15
S'line'
p69
sS'x'
F264
sg17
I00
sS'y'
F810
s(dp70
S'y'
F810
sS'x'
F268
sg17
I00
s(dp71
S'y'
F811
sS'x'
F266
sg17
I00
s(dp72
g15
S'curve'
p73
sS'x'
F270
sg17
I01
sS'y'
F811
s(dp74
g15
S'line'
p75
sS'x'
F275
sg17
I01
sS'y'
F811
s(dp76
S'y'
F811
sS'x'
F294
sg17
I00
s(dp77
S'y'
F799
sS'x'
F309
sg17
I00
s(dp78
g15
S'curve'
p79
sS'x'
F309
sg17
I00
sS'y'
F779
s(dp80
g15
S'line'
p81
sS'x'
F324
sg17
I00
sS'y'
F650
s(dp82
S'y'
F734
sS'x'
F370
sg17
I00
s(dp83
S'y'
F811
sS'x'
F491
sg17
I00
s(dp84
g15
S'curve'
p85
sS'x'
F619
sg17
I01
sS'y'
F811
s(dp86
S'y'
F811
sS'x'
F790
sg17
I00
s(dp87
S'y'
F705
sS'x'
F897
sg17
I00
s(dp88
g15
S'curve'
p89
sS'x'
F897
sg17
I01
sS'y'
F533
s(dp90
g15
S'line'
p91
sS'x'
F897
sg17
I01
sS'y'
F81
s(dp92
S'y'
F-124
sS'x'
F897
sg17
I00
s(dp93
S'y'
F-329
sS'x'
F838
sg17
I00
s(dp94
g15
S'curve'
p95
sS'x'
F598
sg17
I01
sS'y'
F-329
s(dp96
S'y'
F-329
sS'x'
F495
sg17
I00
s(dp97
S'y'
F-293
sS'x'
F411
sg17
I00
s(dp98
g15
S'curve'
p99
sS'x'
F411
sg17
I01
sS'y'
F-180
s(dp100
S'y'
F-127
sS'x'
F411
sg17
I00
s(dp101
S'y'
F-97
sS'x'
F424
sg17
I00
s(dp102
g15
S'curve'
p103
sS'x'
F477
sg17
I01
sS'y'
F-97
s(dp104
S'y'
F-97
sS'x'
F515
sg17
I00
s(dp105
S'y'
F-122
sS'x'
F538
sg17
I00
s(dp106
g15
S'curve'
p107
sS'x'
F538
sg17
I00
sS'y'
F-164
s(dp108
S'y'
F-194
sS'x'
F550
sg17
I00
s(dp109
S'y'
F-213
sS'x'
F521
sg17
I00
s(dp110
g15
S'curve'
p111
sS'x'
F605
sg17
I01
sS'y'
F-213
s(dp112
S'y'
F-213
sS'x'
F727
sg17
I00
s(dp113
S'y'
F-81
sS'x'
F759
sg17
I00
stp114
stp115
sS'components'
p116
(tsS'anchors'
p117
(tsss."
LayerCount: 2
Fore
SplineSet
484 -308 m 0
 451 -308 433 -286 433 -264 c 0
 433 -242 452 -219 491 -219 c 0
 666 -219 916 -154 916 1 c 2
 916 540 l 2
 916 659 857 731 736 731 c 0
 544 731 416 604 416 503 c 2
 416 82 l 1
 521 82 l 2
 553 82 569 62 569 42 c 0
 569 21 552 0 519 0 c 2
 216 0 l 2
 185 0 170 22 170 43 c 0
 170 63 184 82 212 82 c 2
 320 82 l 1
 320 709 l 1
 212 687 l 2
 205 685 198 684 192 684 c 0
 168 684 153 702 153 722 c 0
 153 738 162 757 186 763 c 1
 350 796 l 2
 357 797 363 798 368 798 c 0
 395 798 406 782 407 759 c 2
 412 639 l 1
 462 737 592 813 731 813 c 0
 924 813 1012 707 1012 533 c 2
 1012 -9 l 2
 1012 -197 729 -308 484 -308 c 0
EndSplineSet
EndChar

StartChar: equal
Encoding: 29 61 191
Width: 1240
VWidth: 0
Flags: HMW
PickledData: "(dp1
S'com.typemytype.robofont.layerData'
p2
(dp3
S'b'
(dp4
S'name'
p5
S'equal'
p6
sS'lib'
p7
(dp8
sS'unicodes'
p9
(tsS'width'
p10
I1241
sS'contours'
p11
(tsS'components'
p12
(tsS'anchors'
p13
(tsss."
LayerCount: 2
Fore
SplineSet
900 347 m 2
 930 347 945 324 945 302 c 0
 945 279 930 256 900 256 c 2
 341 256 l 2
 311 256 296 279 296 302 c 0
 296 324 311 347 341 347 c 2
 900 347 l 2
900 689 m 2
 930 689 945 666 945 644 c 0
 945 621 930 598 900 598 c 2
 341 598 l 2
 311 598 296 621 296 644 c 0
 296 666 311 689 341 689 c 2
 900 689 l 2
EndSplineSet
EndChar

StartChar: eth
Encoding: 173 240 192
Width: 1240
VWidth: 0
Flags: HMW
PickledData: "(dp1
S'com.typemytype.robofont.layerData'
p2
(dp3
S'b'
(dp4
S'name'
p5
S'eth'
p6
sS'lib'
p7
(dp8
sS'unicodes'
p9
(tsS'width'
p10
I1240
sS'contours'
p11
(tsS'components'
p12
(tsS'anchors'
p13
(tsss."
LayerCount: 2
Fore
SplineSet
602 65 m 0
 801 65 914 192 914 391 c 0
 914 617 770 731 608 731 c 0
 414 731 308 607 308 391 c 0
 308 182 433 65 602 65 c 0
703 1116 m 1
 944 892 1010 670 1010 453 c 0
 1010 167 881 -17 602 -17 c 0
 366 -17 212 144 212 394 c 0
 212 643 360 813 607 813 c 0
 701 813 832 780 919 615 c 1
 869 809 741 962 629 1065 c 1
 492 971 l 2
 485 966 478 964 471 964 c 0
 449 964 430 986 430 1008 c 0
 430 1019 435 1030 446 1038 c 2
 565 1121 l 1
 501 1174 449 1206 434 1218 c 0
 430 1221 428 1225 428 1231 c 0
 428 1253 453 1288 474 1288 c 0
 477 1288 480 1287 483 1285 c 0
 541 1248 592 1210 638 1172 c 1
 777 1269 l 2
 783 1273 789 1275 795 1275 c 0
 818 1275 839 1249 839 1226 c 0
 839 1216 835 1206 825 1199 c 2
 703 1116 l 1
EndSplineSet
EndChar

StartChar: exclam
Encoding: 1 33 193
Width: 1240
VWidth: 0
Flags: HMW
PickledData: "(dp1
S'com.typemytype.robofont.layerData'
p2
(dp3
S'b'
(dp4
S'name'
p5
S'exclam'
p6
sS'lib'
p7
(dp8
sS'unicodes'
p9
(tsS'width'
p10
F1241
sS'contours'
p11
(tsS'components'
p12
(tsS'anchors'
p13
(tsss."
LayerCount: 2
Fore
SplineSet
621 -9 m 0
 564 -9 519 36 519 93 c 0
 519 150 564 193 621 193 c 0
 678 193 722 150 722 93 c 0
 722 36 678 -9 621 -9 c 0
686 1103 m 0
 686 872 646 626 646 380 c 0
 646 353 638 344 622 344 c 0
 606 344 598 354 598 380 c 0
 598 628 556 869 556 1103 c 0
 556 1170 584 1187 622 1187 c 0
 658 1187 686 1170 686 1103 c 0
EndSplineSet
EndChar

StartChar: f
Encoding: 70 102 195
Width: 1240
VWidth: 0
Flags: HMW
PickledData: "(dp1
S'com.typemytype.robofont.layerData'
p2
(dp3
S'b'
(dp4
S'name'
p5
S'f'
sS'lib'
p6
(dp7
sS'unicodes'
p8
(tsS'width'
p9
I1240
sS'contours'
p10
(tsS'components'
p11
(tsS'anchors'
p12
(tsss."
LayerCount: 2
Fore
SplineSet
1036 1020 m 6
 1036 982 1011 964 987 964 c 4
 963 964 940 981 940 1016 c 6
 940 1109 l 5
 707 1093 641 1018 641 832 c 6
 641 766 l 5
 950 766 l 6
 977 766 990 745 990 725 c 4
 990 704 976 684 949 684 c 6
 640 684 l 5
 641 82 l 5
 1003 82 l 6
 1029 82 1042 61 1042 41 c 4
 1042 20 1029 0 1002 0 c 6
 327 0 l 6
 296 0 281 21 281 42 c 4
 281 62 295 82 323 82 c 6
 544 82 l 5
 544 684 l 5
 352 684 l 6
 321 684 306 705 306 726 c 4
 306 746 320 766 348 766 c 6
 544 766 l 5
 544 838 l 6
 544 1079 705 1188 979 1188 c 4
 1009 1188 1036 1169 1036 1137 c 6
 1036 1020 l 6
EndSplineSet
EndChar

StartChar: five
Encoding: 21 53 196
Width: 1240
VWidth: 0
Flags: HMW
PickledData: "(dp1
S'com.typemytype.robofont.layerData'
p2
(dp3
S'b'
(dp4
S'name'
p5
S'five'
p6
sS'lib'
p7
(dp8
sS'unicodes'
p9
(tsS'width'
p10
I1240
sS'contours'
p11
((dp12
S'points'
p13
((dp14
S'segmentType'
p15
S'curve'
p16
sS'x'
F587
sS'smooth'
p17
I01
sS'y'
F-17
s(dp18
S'y'
F-17
sS'x'
F389
sg17
I00
s(dp19
S'y'
F52
sS'x'
F239
sg17
I00
s(dp20
g15
S'curve'
p21
sS'x'
F239
sg17
I01
sS'y'
F232
s(dp22
S'y'
F277
sS'x'
F239
sg17
I00
s(dp23
S'y'
F312
sS'x'
F258
sg17
I00
s(dp24
g15
S'curve'
p25
sS'x'
F299
sg17
I01
sS'y'
F312
s(dp26
S'y'
F312
sS'x'
F347
sg17
I00
s(dp27
S'y'
F232
sS'x'
F350
sg17
I00
s(dp28
g15
S'curve'
p29
sS'x'
F365
sg17
I00
sS'y'
F110
s(dp30
S'y'
F75
sS'x'
F436
sg17
I00
s(dp31
S'y'
F65
sS'x'
F505
sg17
I00
s(dp32
g15
S'curve'
p33
sS'x'
F572
sg17
I01
sS'y'
F65
s(dp34
S'y'
F65
sS'x'
F806
sg17
I00
s(dp35
S'y'
F187
sS'x'
F947
sg17
I00
s(dp36
g15
S'curve'
p37
sS'x'
F947
sg17
I01
sS'y'
F389
s(dp38
S'y'
F621
sS'x'
F947
sg17
I00
s(dp39
S'y'
F731
sS'x'
F801
sg17
I00
s(dp40
g15
S'curve'
p41
sS'x'
F598
sg17
I01
sS'y'
F731
s(dp42
S'y'
F731
sS'x'
F471
sg17
I00
s(dp43
S'y'
F697
sS'x'
F395
sg17
I00
s(dp44
g15
S'curve'
p45
sS'x'
F316
sg17
I01
sS'y'
F624
s(dp46
S'y'
F613
sS'x'
F304
sg17
I00
s(dp47
S'y'
F608
sS'x'
F288
sg17
I00
s(dp48
g15
S'curve'
p49
sS'x'
F275
sg17
I01
sS'y'
F608
s(dp50
S'y'
F608
sS'x'
F255
sg17
I00
s(dp51
S'y'
F620
sS'x'
F240
sg17
I00
s(dp52
g15
S'curve'
p53
sS'x'
F240
sg17
I01
sS'y'
F649
s(dp54
S'y'
F663
sS'x'
F240
sg17
I00
s(dp55
S'y'
F678
sS'x'
F246
sg17
I00
s(dp56
g15
S'curve'
p57
sS'x'
F258
sg17
I01
sS'y'
F691
s(dp58
S'y'
F771
sS'x'
F332
sg17
I00
s(dp59
S'y'
F813
sS'x'
F486
sg17
I00
s(dp60
g15
S'curve'
p61
sS'x'
F590
sg17
I01
sS'y'
F813
s(dp62
S'y'
F813
sS'x'
F857
sg17
I00
s(dp63
S'y'
F655
sS'x'
F1043
sg17
I00
s(dp64
g15
S'curve'
p65
sS'x'
F1043
sg17
I01
sS'y'
F389
s(dp66
S'y'
F133
sS'x'
F1043
sg17
I00
s(dp67
S'y'
F-17
sS'x'
F835
sg17
I00
stp68
stp69
sS'components'
p70
(tsS'anchors'
p71
(tsss."
LayerCount: 2
Fore
SplineSet
579 -17 m 0
 487 -17 404 10 340 54 c 0
 320 68 313 84 313 98 c 0
 313 120 332 138 353 138 c 0
 361 138 369 136 377 130 c 0
 444 81 525 65 592 65 c 0
 739 65 915 170 915 381 c 0
 915 579 799 657 679 657 c 0
 577 657 472 601 430 517 c 1
 425 502 410 495 395 495 c 0
 377 495 358 506 358 529 c 2
 378 1111 l 1
 378 1170 448 1171 514 1171 c 2
 838 1171 l 1
 856 1242 865 1260 889 1260 c 0
 913 1260 934 1250 934 1227 c 0
 934 1150 906 1089 857 1089 c 2
 487 1089 l 2
 481 1089 479 1086 479 1081 c 2
 444 642 l 1
 521 706 607 735 687 735 c 0
 861 735 1011 600 1011 396 c 0
 1011 143 818 -17 579 -17 c 0
EndSplineSet
EndChar

StartChar: florin
Encoding: 308 402 197
Width: 1240
VWidth: 0
Flags: HMW
PickledData: "(dp1
S'com.typemytype.robofont.layerData'
p2
(dp3
S'b'
(dp4
S'name'
p5
S'florin'
p6
sS'lib'
p7
(dp8
sS'unicodes'
p9
(tsS'width'
p10
I1240
sS'contours'
p11
(tsS'components'
p12
(tsS'anchors'
p13
(tsss."
LayerCount: 2
Fore
SplineSet
623 48 m 2
 602 -193 422 -211 296 -211 c 0
 270 -211 262 -198 262 -174 c 0
 262 -170 263 -166 263 -161 c 2
 273 -43 l 2
 275 -23 298 -13 318 -13 c 0
 337 -13 353 -21 353 -36 c 2
 353 -39 l 1
 345 -137 l 1
 430 -137 514 -103 527 46 c 2
 581 690 l 1
 436 690 l 2
 413 690 403 709 403 729 c 2
 403 734 l 1
 405 754 417 774 439 774 c 2
 588 774 l 1
 594 838 l 1
 614 1079 743 1188 988 1188 c 0
 1016 1188 1041 1171 1041 1142 c 2
 1041 1137 l 1
 1031 1020 l 2
 1029 1000 1005 990 981 990 c 0
 961 990 941 998 941 1014 c 2
 941 1016 l 1
 949 1118 l 1
 803 1105 709 1062 690 841 c 2
 684 774 l 1
 854 774 l 2
 874 774 883 757 883 739 c 2
 883 734 l 1
 881 712 868 690 846 690 c 2
 677 690 l 1
 623 48 l 2
EndSplineSet
EndChar

StartChar: foundryicon
Encoding: 430 -1 198
Width: 1240
VWidth: 0
Flags: HMW
PickledData: "(dp1
S'com.typemytype.robofont.layerData'
p2
(dp3
S'b'
(dp4
S'name'
p5
S'foundryicon'
p6
sS'lib'
p7
(dp8
sS'unicodes'
p9
(tsS'width'
p10
I1240
sS'contours'
p11
(tsS'components'
p12
(tsS'anchors'
p13
(tsss."
LayerCount: 2
Fore
SplineSet
679 256 m 1
 536 138 462 79 457 79 c 0
 441 79 433 84 433 96 c 0
 433 106 440 117 443 127 c 2
 524 370 l 1
 385 480 312 537 302 546 c 0
 292 554 287 564 287 574 c 0
 287 588 296 594 314 594 c 0
 315 594 409 588 595 574 c 1
 642 688 669 755 677 775 c 1
 691 816 705 844 730 844 c 0
 743 844 763 822 763 811 c 1
 806 579 l 1
 1075 579 l 2
 1100 579 1112 569 1112 551 c 0
 1112 548 1107 543 1098 537 c 0
 1089 531 1016 471 877 357 c 1
 921 177 941 83 941 72 c 0
 941 58 932 49 918 49 c 0
 910 49 831 118 679 256 c 1
EndSplineSet
EndChar

StartChar: four
Encoding: 20 52 199
Width: 1240
VWidth: 0
Flags: HMW
PickledData: "(dp1
S'com.typemytype.robofont.layerData'
p2
(dp3
S'b'
(dp4
S'name'
p5
S'four'
p6
sS'lib'
p7
(dp8
sS'unicodes'
p9
(tsS'width'
p10
I1240
sS'contours'
p11
(tsS'components'
p12
(tsS'anchors'
p13
(tsss."
LayerCount: 2
Fore
SplineSet
420 0 m 2
 404 0 395 17 395 34 c 0
 395 50 403 65 419 65 c 2
 707 65 l 1
 707 371 l 1
 245 371 l 2
 226 371 207 392 207 415 c 0
 207 424 210 434 217 443 c 2
 728 1167 l 2
 731 1171 747 1179 764 1179 c 0
 783 1179 803 1168 803 1125 c 2
 803 449 l 1
 1005 449 l 2
 1028 449 1040 431 1040 410 c 0
 1040 390 1028 371 1003 371 c 2
 803 371 l 1
 803 65 l 1
 961 65 l 2
 977 65 985 50 985 34 c 0
 985 17 976 0 960 0 c 2
 420 0 l 2
707 1019 m 1
 322 449 l 1
 707 449 l 1
 707 1019 l 1
EndSplineSet
EndChar

StartChar: fraction
Encoding: 399 8260 200
Width: 1240
VWidth: 0
Flags: HMW
PickledData: "(dp1
S'com.typemytype.robofont.layerData'
p2
(dp3
S'b'
(dp4
S'name'
p5
S'fraction'
p6
sS'lib'
p7
(dp8
sS'unicodes'
p9
(tsS'width'
p10
F1239.57918786
sS'contours'
p11
(tsS'components'
p12
(tsS'anchors'
p13
(tsss."
LayerCount: 2
Fore
SplineSet
247 -178 m 2
 914 1152 l 2
 921 1166 936 1173 951 1173 c 0
 974 1173 997 1158 997 1134 c 0
 997 1128 995 1121 991 1113 c 2
 327 -213 l 2
 318 -230 304 -237 290 -237 c 0
 267 -237 243 -219 243 -195 c 0
 243 -189 244 -184 247 -178 c 2
EndSplineSet
EndChar

StartChar: g
Encoding: 71 103 201
Width: 1240
VWidth: 0
Flags: HMW
PickledData: "(dp1
S'com.typemytype.robofont.layerData'
p2
(dp3
S'b'
(dp4
S'name'
p5
S'g'
sS'lib'
p6
(dp7
sS'unicodes'
p8
(tsS'width'
p9
I1240
sS'contours'
p10
(tsS'components'
p11
(tsS'anchors'
p12
(tsss."
LayerCount: 2
Fore
SplineSet
828 534 m 4
 828 679 719 731 597 731 c 4
 474 731 372 676 372 542 c 4
 372 420 470 361 591 361 c 4
 713 361 828 397 828 534 c 4
460 37 m 5
 421 22 374 -65 374 -122 c 4
 374 -238 447 -268 583 -268 c 4
 725 -268 898 -232 898 -118 c 4
 898 4 837 37 644 37 c 6
 460 37 l 5
548 109 m 4
 579 109 610 109 641 109 c 4
 866 109 994 75 994 -114 c 4
 994 -278 789 -350 585 -350 c 4
 428 -350 278 -306 278 -147 c 4
 278 -47 331 25 397 58 c 5
 337 87 303 123 303 185 c 4
 303 262 393 324 448 331 c 5
 344 374 276 428 276 545 c 4
 276 729 427 813 599 813 c 4
 687 813 774 787 838 734 c 5
 990 835 l 6
 1036 866 1078 877 1111 877 c 4
 1159 877 1169 851 1169 826 c 4
 1169 798 1136 775 1036 775 c 5
 867 701 l 5
 903 656 924 603 924 540 c 4
 924 362 809 287 588 287 c 4
 485 287 399 244 399 190 c 4
 399 146 417 109 548 109 c 4
EndSplineSet
EndChar

StartChar: germandbls
Encoding: 156 223 206
Width: 1240
VWidth: 0
Flags: HMW
PickledData: "(dp1
S'com.typemytype.robofont.layerData'
p2
(dp3
S'b'
(dp4
S'name'
p5
S'germandbls'
p6
sS'lib'
p7
(dp8
sS'unicodes'
p9
(tsS'width'
p10
I1240
sS'contours'
p11
(tsS'components'
p12
(tsS'anchors'
p13
(tsss."
LayerCount: 2
Fore
SplineSet
928 894 m 0
 928 760 817 670 725 643 c 1
 882 612 1052 530 1052 318 c 0
 1052 124 922 30 724 0 c 0
 719 -1 714 -1 710 -1 c 0
 680 -1 663 17 663 44 c 0
 663 73 682 75 724 82 c 0
 839 100 954 151 954 320 c 0
 954 522 762 591 579 591 c 0
 547 591 532 614 532 636 c 0
 532 658 546 677 579 677 c 0
 686 677 835 744 835 898 c 0
 835 1030 746 1106 619 1106 c 0
 476 1106 370 1011 370 706 c 2
 370 82 l 1
 526 82 l 2
 561 82 575 72 575 38 c 0
 575 8 556 0 524 0 c 2
 145 0 l 2
 113 0 94 8 94 38 c 0
 94 72 108 82 143 82 c 2
 274 82 l 1
 274 700 l 2
 274 1085 438 1188 614 1188 c 0
 781 1188 928 1083 928 894 c 0
EndSplineSet
EndChar

StartChar: grave
Encoding: 64 96 207
Width: 1240
VWidth: 0
Flags: HMW
PickledData: "(dp1
S'com.typemytype.robofont.layerData'
p2
(dp3
S'b'
(dp4
S'name'
p5
S'grave'
p6
sS'lib'
p7
(dp8
sS'unicodes'
p9
(tsS'width'
p10
I1240
sS'contours'
p11
(tsS'components'
p12
(tsS'anchors'
p13
(tsss."
LayerCount: 2
Fore
SplineSet
410 1010 m 0
 410 993 395 975 377 975 c 0
 372 975 368 976 365 979 c 1
 254 1043 132 1122 25 1189 c 0
 13 1197 6 1208 6 1220 c 0
 6 1248 35 1277 64 1277 c 0
 75 1277 84 1274 92 1267 c 0
 185 1187 298 1099 400 1031 c 0
 408 1026 410 1020 410 1010 c 0
EndSplineSet
EndChar

StartChar: greater
Encoding: 30 62 208
Width: 1240
VWidth: 0
Flags: HMW
PickledData: "(dp1
S'com.typemytype.robofont.layerData'
p2
(dp3
S'b'
(dp4
S'name'
p5
S'greater'
p6
sS'lib'
p7
(dp8
sS'unicodes'
p9
(tsS'width'
p10
I1240
sS'contours'
p11
(tsS'components'
p12
(tsS'anchors'
p13
(tsss."
LayerCount: 2
Fore
SplineSet
1130 603 m 2
 1147 596 1156 573 1156 550 c 0
 1156 526 1146 502 1130 495 c 2
 262 134 l 2
 259 133 255 132 252 132 c 0
 229 132 208 161 208 186 c 0
 208 200 214 212 229 218 c 2
 1038 546 l 1
 219 879 l 2
 200 887 192 901 192 917 c 0
 192 942 212 968 236 968 c 0
 241 968 245 967 250 965 c 2
 1130 603 l 2
EndSplineSet
EndChar

StartChar: guillemotleft
Encoding: 106 171 209
Width: 1240
VWidth: 0
Flags: HMW
PickledData: "(dp1
S'com.typemytype.robofont.layerData'
p2
(dp3
S'b'
(dp4
S'name'
p5
S'guillemotleft'
p6
sS'lib'
p7
(dp8
sS'unicodes'
p9
(tsS'width'
p10
I1240
sS'contours'
p11
(tsS'components'
p12
(tsS'anchors'
p13
(tsss."
LayerCount: 2
Fore
SplineSet
554 216 m 2
 210 475 l 2
 185 494 172 512 172 530 c 0
 172 548 185 567 210 586 c 2
 544 841 l 2
 554 848 564 852 574 852 c 0
 596 852 614 836 614 816 c 0
 614 804 607 790 590 777 c 2
 269 531 l 1
 599 287 l 2
 621 271 630 253 630 238 c 0
 630 218 614 202 592 202 c 0
 581 202 567 206 554 216 c 2
918 216 m 2
 574 475 l 2
 549 494 536 512 536 530 c 0
 536 548 549 567 574 586 c 2
 908 841 l 2
 918 848 928 852 938 852 c 0
 960 852 978 836 978 816 c 0
 978 804 971 790 954 777 c 2
 633 531 l 1
 963 287 l 2
 985 271 994 253 994 238 c 0
 994 218 978 202 956 202 c 0
 945 202 931 206 918 216 c 2
EndSplineSet
EndChar

StartChar: guillemotright
Encoding: 120 187 210
Width: 1240
VWidth: 0
Flags: HMW
PickledData: "(dp1
S'com.typemytype.robofont.layerData'
p2
(dp3
S'b'
(dp4
S'name'
p5
S'guillemotleft'
p6
sS'lib'
p7
(dp8
sS'unicodes'
p9
(tsS'width'
p10
I1240
sS'contours'
p11
(tsS'components'
p12
(tsS'anchors'
p13
(tsss."
LayerCount: 2
Fore
SplineSet
634 831 m 2
 978 572 l 2
 1003 553 1016 535 1016 517 c 0
 1016 499 1003 480 978 461 c 2
 644 206 l 2
 634 199 624 195 614 195 c 0
 592 195 574 211 574 231 c 0
 574 243 581 257 598 270 c 2
 919 516 l 1
 589 760 l 2
 567 776 558 794 558 809 c 0
 558 829 574 845 596 845 c 0
 607 845 621 841 634 831 c 2
270 831 m 2
 614 572 l 2
 639 553 652 535 652 517 c 0
 652 499 639 480 614 461 c 2
 280 206 l 2
 270 199 260 195 250 195 c 0
 228 195 210 211 210 231 c 0
 210 243 217 257 234 270 c 2
 555 516 l 1
 225 760 l 2
 203 776 194 794 194 809 c 0
 194 829 210 845 232 845 c 0
 243 845 257 841 270 831 c 2
EndSplineSet
EndChar

StartChar: guilsinglleft
Encoding: 397 8249 211
Width: 1240
VWidth: 0
Flags: HMW
PickledData: "(dp1
S'com.typemytype.robofont.layerData'
p2
(dp3
S'b'
(dp4
S'name'
p5
S'guilsinglleft'
p6
sS'lib'
p7
(dp8
sS'unicodes'
p9
(tsS'width'
p10
I1240
sS'contours'
p11
(tsS'components'
p12
(tsS'anchors'
p13
(tsss."
LayerCount: 2
Fore
SplineSet
854 216 m 2
 250 475 l 2
 222 487 207 508 207 530 c 0
 207 551 221 573 250 585 c 2
 844 841 l 2
 851 844 858 845 864 845 c 0
 888 845 907 826 907 805 c 0
 907 790 898 775 874 765 c 2
 326 531 l 1
 883 297 l 2
 912 284 925 265 925 248 c 0
 925 228 908 210 882 210 c 0
 873 210 864 212 854 216 c 2
EndSplineSet
EndChar

StartChar: guilsinglright
Encoding: 398 8250 212
Width: 1240
VWidth: 0
Flags: HMW
PickledData: "(dp1
S'com.typemytype.robofont.layerData'
p2
(dp3
S'b'
(dp4
S'name'
p5
S'guilsinglright'
p6
sS'lib'
p7
(dp8
sS'unicodes'
p9
(tsS'width'
p10
I1240
sS'contours'
p11
(tsS'components'
p12
(tsS'anchors'
p13
(tsss."
LayerCount: 2
Fore
SplineSet
345 834 m 6
 949 575 l 6
 977 563 992 542 992 520 c 4
 992 499 978 477 949 465 c 6
 355 209 l 6
 348 206 341 205 335 205 c 4
 311 205 292 224 292 245 c 4
 292 260 301 275 325 285 c 6
 873 519 l 5
 316 753 l 6
 287 766 274 785 274 802 c 4
 274 822 291 840 317 840 c 4
 326 840 335 838 345 834 c 6
EndSplineSet
EndChar

StartChar: h
Encoding: 72 104 213
Width: 1240
VWidth: 0
Flags: HMW
PickledData: "(dp1
S'com.typemytype.robofont.layerData'
p2
(dp3
S'b'
(dp4
S'name'
p5
S'h'
sS'lib'
p6
(dp7
sS'unicodes'
p8
(tsS'width'
p9
I1240
sS'contours'
p10
(tsS'components'
p11
(tsS'anchors'
p12
(tsss."
LayerCount: 2
Fore
SplineSet
716 731 m 4
 524 731 396 601 396 497 c 6
 396 82 l 5
 501 82 l 6
 533 82 549 62 549 42 c 4
 549 21 532 0 499 0 c 6
 196 0 l 6
 165 0 150 22 150 43 c 4
 150 63 164 82 192 82 c 6
 300 82 l 5
 300 1091 l 5
 152 1082 l 6
 128 1081 113 1098 113 1118 c 4
 113 1134 122 1157 146 1159 c 6
 335 1178 l 6
 343 1179 349 1180 355 1180 c 4
 384 1180 396 1164 396 1141 c 6
 396 639 l 5
 446 737 573 813 711 813 c 4
 904 813 992 707 992 533 c 6
 992 82 l 5
 1101 82 l 6
 1128 82 1141 62 1141 42 c 4
 1141 21 1127 0 1099 0 c 6
 754 0 l 6
 723 0 708 22 708 43 c 4
 708 63 722 82 750 82 c 6
 896 82 l 5
 896 540 l 6
 896 659 837 731 716 731 c 4
EndSplineSet
EndChar

StartChar: hbar
Encoding: 227 295 214
Width: 1240
VWidth: 0
Flags: HMW
PickledData: "(dp1
S'com.typemytype.robofont.layerData'
p2
(dp3
S'b'
(dp4
S'name'
p5
S'hbar'
p6
sS'lib'
p7
(dp8
sS'unicodes'
p9
(tsS'width'
p10
I1240
sS'contours'
p11
(tsS'components'
p12
(tsS'anchors'
p13
(tsss."
LayerCount: 2
Fore
SplineSet
542 907 m 2
 180 907 l 2
 142 907 129 917 129 944 c 0
 129 971 145 979 179 979 c 2
 540 979 l 2
 573 979 589 971 589 944 c 0
 589 917 575 907 542 907 c 2
EndSplineSet
Refer: 213 104 N 1 0 0 1 0 0 2
EndChar

StartChar: hungarumlaut
Encoding: 359 733 216
Width: 1240
VWidth: 0
Flags: HMW
PickledData: "(dp1
S'com.typemytype.robofont.layerData'
p2
(dp3
S'b'
(dp4
S'name'
p5
S'hungarumlaut'
p6
sS'lib'
p7
(dp8
sS'unicodes'
p9
(tsS'width'
p10
I1240
sS'contours'
p11
(tsS'components'
p12
(tsS'anchors'
p13
(tsss."
LayerCount: 2
Fore
SplineSet
926 1144 m 2
 604 910 l 2
 601 907 597 906 593 906 c 0
 581 906 570 916 570 928 c 0
 570 933 571 938 576 943 c 2
 847 1219 l 2
 857 1229 868 1233 879 1233 c 0
 910 1233 940 1200 940 1172 c 0
 940 1162 936 1151 926 1144 c 2
616 1164 m 1
 334 910 l 2
 331 907 327 906 323 906 c 0
 311 906 300 916 300 928 c 0
 300 933 301 938 306 943 c 2
 537 1239 l 1
 547 1249 558 1253 569 1253 c 0
 600 1253 630 1220 630 1192 c 0
 630 1182 626 1171 616 1164 c 1
EndSplineSet
EndChar

StartChar: hyphen
Encoding: 13 45 217
Width: 1240
VWidth: 0
Flags: HMW
PickledData: "(dp1
S'com.typemytype.robofont.layerData'
p2
(dp3
S'b'
(dp4
S'name'
p5
S'hyphen'
p6
sS'lib'
p7
(dp8
sS'unicodes'
p9
(tsS'width'
p10
I1240
sS'contours'
p11
(tsS'components'
p12
(tsS'anchors'
p13
(tsss."
LayerCount: 2
Fore
SplineSet
379 500 m 6
 886 500 l 6
 930 500 937 480 937 459 c 4
 937 439 931 418 886 418 c 6
 379 418 l 6
 334 418 327 439 327 459 c 4
 327 480 334 500 379 500 c 6
EndSplineSet
EndChar

StartChar: i
Encoding: 73 105 218
Width: 1240
VWidth: 0
Flags: HMW
PickledData: "(dp1
S'com.typemytype.robofont.layerData'
p2
(dp3
S'b'
(dp4
S'name'
p5
S'i'
sS'lib'
p6
(dp7
sS'unicodes'
p8
(tsS'width'
p9
I1240
sS'contours'
p10
(tsS'components'
p11
(tsS'anchors'
p12
(tsss."
LayerCount: 2
Fore
SplineSet
295 0 m 2
 264 0 249 22 249 43 c 0
 249 63 263 82 291 82 c 2
 663 82 l 1
 663 719 l 1
 330 674 l 2
 327 674 325 673 323 673 c 0
 296 673 282 694 282 715 c 0
 282 734 292 752 314 755 c 2
 712 810 l 2
 715 811 718 811 723 811 c 0
 744 811 759 799 759 779 c 2
 759 82 l 1
 1092 82 l 2
 1119 82 1132 61 1132 41 c 0
 1132 20 1118 0 1091 0 c 2
 295 0 l 2
692 1171 m 4
 738 1171 774 1134 774 1088 c 4
 774 1042 738 1006 692 1006 c 4
 646 1006 609 1042 609 1088 c 4
 609 1134 646 1171 692 1171 c 4
EndSplineSet
EndChar

StartChar: ij
Encoding: 239 307 224
Width: 1240
VWidth: 0
Flags: HMW
PickledData: "(dp1
S'com.typemytype.robofont.guides'
p2
((dp3
S'angle'
p4
I0
sS'name'
p5
NsS'magnetic'
p6
I5
sS'isGlobal'
p7
I00
sS'y'
I731
sS'x'
I713
stp8
sS'com.typemytype.robofont.layerData'
p9
(dp10
S'b'
(dp11
g5
S'ij'
p12
sS'lib'
p13
(dp14
sS'unicodes'
p15
(tsS'width'
p16
I1240
sS'contours'
p17
(tsS'components'
p18
(tsS'anchors'
p19
(tsss."
LayerCount: 2
Fore
SplineSet
537 1171 m 0
 583 1171 619 1134 619 1088 c 0
 619 1042 583 1006 537 1006 c 0
 491 1006 454 1042 454 1088 c 0
 454 1134 491 1171 537 1171 c 0
955 1171 m 4
 1001 1171 1037 1134 1037 1088 c 4
 1037 1042 1001 1006 955 1006 c 4
 909 1006 872 1042 872 1088 c 4
 872 1134 909 1171 955 1171 c 4
576 -310 m 0
 543 -310 525 -288 525 -266 c 0
 525 -244 544 -221 583 -221 c 0
 758 -221 946 -156 946 -1 c 2
 946 731 l 1
 583 731 l 1
 583 82 l 1
 701 82 l 2
 728 82 741 61 741 41 c 0
 741 20 727 0 700 0 c 2
 185 0 l 2
 154 0 139 22 139 43 c 0
 139 63 153 82 181 82 c 2
 487 82 l 1
 487 731 l 1
 307 731 l 2
 280 731 266 753 266 774 c 0
 266 793 276 813 298 813 c 2
 1006 813 l 2
 1026 813 1042 805 1042 784 c 2
 1042 -11 l 2
 1042 -199 821 -310 576 -310 c 0
EndSplineSet
EndChar

StartChar: j
Encoding: 74 106 228
Width: 1240
VWidth: 0
Flags: HMW
PickledData: "(dp1
S'com.typemytype.robofont.layerData'
p2
(dp3
S'b'
(dp4
S'name'
p5
S'j'
sS'lib'
p6
(dp7
sS'unicodes'
p8
(tsS'width'
p9
I1240
sS'contours'
p10
(tsS'components'
p11
(tsS'anchors'
p12
(tsss."
LayerCount: 2
Fore
SplineSet
802 1171 m 0
 848 1171 884 1134 884 1088 c 0
 884 1042 848 1006 802 1006 c 0
 756 1006 719 1042 719 1088 c 0
 719 1134 756 1171 802 1171 c 0
367 -310 m 0
 334 -310 316 -288 316 -266 c 0
 316 -244 335 -221 374 -221 c 0
 549 -221 799 -156 799 -1 c 2
 799 731 l 1
 343 731 l 2
 314 731 299 753 299 774 c 0
 299 794 313 813 339 813 c 2
 859 813 l 2
 879 813 895 805 895 784 c 2
 895 -11 l 2
 895 -199 612 -310 367 -310 c 0
EndSplineSet
EndChar

StartChar: k
Encoding: 75 107 230
Width: 1240
VWidth: 0
Flags: HMW
PickledData: "(dp1
S'com.typemytype.robofont.layerData'
p2
(dp3
S'b'
(dp4
S'name'
p5
S'k'
sS'lib'
p6
(dp7
sS'unicodes'
p8
(tsS'width'
p9
I1240
sS'contours'
p10
(tsS'components'
p11
(tsS'anchors'
p12
(tsss."
LayerCount: 2
Fore
SplineSet
464 399 m 1
 847 692 l 1
 744 692 l 2
 716 692 702 712 702 733 c 0
 702 754 717 775 748 775 c 2
 1065 775 l 2
 1094 775 1106 753 1106 729 c 0
 1106 711 1088 692 1066 692 c 2
 977 692 l 1
 660 446 l 1
 1001 82 l 1
 1088 82 l 2
 1115 82 1128 61 1128 41 c 0
 1128 20 1114 0 1088 0 c 2
 775 0 l 2
 747 0 733 21 733 41 c 0
 733 62 748 82 779 82 c 2
 889 82 l 1
 590 400 l 1
 464 308 l 1
 464 82 l 1
 535 82 l 2
 561 82 574 61 574 41 c 0
 574 20 561 0 534 0 c 2
 200 0 l 2
 170 0 154 21 154 42 c 0
 154 62 168 82 196 82 c 2
 368 82 l 1
 368 1082 l 1
 198 1058 l 2
 195 1057 193 1057 191 1057 c 0
 164 1057 150 1078 150 1099 c 0
 150 1118 160 1136 182 1139 c 2
 416 1181 l 2
 418 1181 423 1182 428 1182 c 0
 449 1182 464 1170 464 1150 c 2
 464 399 l 1
EndSplineSet
EndChar

StartChar: kgreenlandic
Encoding: 244 312 232
Width: 1240
VWidth: 0
Flags: HMW
PickledData: "(dp1
S'com.typemytype.robofont.guides'
p2
((dp3
S'angle'
p4
I0
sS'name'
p5
NsS'magnetic'
p6
I5
sS'isGlobal'
p7
I00
sS'y'
I692
sS'x'
I741
stp8
sS'com.typemytype.robofont.layerData'
p9
(dp10
S'b'
(dp11
g5
S'kgreenlandic'
p12
sS'lib'
p13
(dp14
sS'unicodes'
p15
(tsS'width'
p16
I1240
sS'contours'
p17
((dp18
S'points'
p19
((dp20
S'segmentType'
p21
S'curve'
p22
sS'x'
F355
sS'smooth'
p23
I01
sS'y'
F739
s(dp24
g21
S'line'
p25
sS'x'
F355
sg23
I00
sS'y'
F423
s(dp26
g21
S'line'
p27
sS'x'
F671
sg23
I00
sS'y'
F654
s(dp28
g21
S'line'
p29
sS'x'
F604
sg23
I01
sS'y'
F654
s(dp30
S'y'
F654
sS'x'
F568
sg23
I00
s(dp31
S'y'
F681
sS'x'
F553
sg23
I00
s(dp32
g21
S'curve'
p33
sS'x'
F553
sg23
I01
sS'y'
F715
s(dp34
S'y'
F750
sS'x'
F553
sg23
I00
s(dp35
S'y'
F774
sS'x'
F571
sg23
I00
s(dp36
g21
S'curve'
p37
sS'x'
F609
sg23
I01
sS'y'
F774
s(dp38
g21
S'line'
p39
sS'x'
F933
sg23
I01
sS'y'
F774
s(dp40
S'y'
F774
sS'x'
F965
sg23
I00
s(dp41
S'y'
F747
sS'x'
F984
sg23
I00
s(dp42
g21
S'curve'
p43
sS'x'
F984
sg23
I01
sS'y'
F717
s(dp44
S'y'
F683
sS'x'
F984
sg23
I00
s(dp45
S'y'
F654
sS'x'
F969
sg23
I00
s(dp46
g21
S'curve'
p47
sS'x'
F934
sg23
I01
sS'y'
F654
s(dp48
g21
S'line'
p49
sS'x'
F867
sg23
I01
sS'y'
F654
s(dp50
S'y'
F654
sS'x'
F831
sg23
I00
s(dp51
S'y'
F629
sS'x'
F806
sg23
I00
s(dp52
g21
S'curve'
p53
sS'x'
F782
sg23
I01
sS'y'
F611
s(dp54
g21
S'line'
p55
sS'x'
F577
sg23
I00
sS'y'
F462
s(dp56
g21
S'line'
p57
sS'x'
F773
sg23
I01
sS'y'
F199
s(dp58
S'y'
F131
sS'x'
F824
sg23
I00
s(dp59
S'y'
F128
sS'x'
F858
sg23
I00
s(dp60
g21
S'curve'
p61
sS'x'
F945
sg23
I01
sS'y'
F128
s(dp62
g21
S'line'
p63
sS'x'
F956
sg23
I01
sS'y'
F128
s(dp64
S'y'
F128
sS'x'
F1017
sg23
I00
s(dp65
S'y'
F119
sS'x'
F1035
sg23
I00
s(dp66
g21
S'curve'
p67
sS'x'
F1035
sg23
I01
sS'y'
F66
s(dp68
S'y'
F12
sS'x'
F1035
sg23
I00
s(dp69
S'y'
F0
sS'x'
F1001
sg23
I00
s(dp70
g21
S'curve'
p71
sS'x'
F940
sg23
I01
sS'y'
F0
s(dp72
g21
S'line'
p73
sS'x'
F642
sg23
I01
sS'y'
F0
s(dp74
S'y'
F0
sS'x'
F607
sg23
I00
s(dp75
S'y'
F27
sS'x'
F590
sg23
I00
s(dp76
g21
S'curve'
p77
sS'x'
F590
sg23
I01
sS'y'
F61
s(dp78
S'y'
F96
sS'x'
F590
sg23
I00
s(dp79
S'y'
F120
sS'x'
F607
sg23
I00
s(dp80
g21
S'curve'
p81
sS'x'
F646
sg23
I01
sS'y'
F120
s(dp82
g21
S'line'
p83
sS'x'
F686
sg23
I00
sS'y'
F120
s(dp84
g21
S'line'
p85
sS'x'
F481
sg23
I00
sS'y'
F399
s(dp86
g21
S'line'
p87
sS'x'
F355
sg23
I00
sS'y'
F309
s(dp88
g21
S'line'
p89
sS'x'
F355
sg23
I00
sS'y'
F120
s(dp90
g21
S'line'
p91
sS'x'
F459
sg23
I01
sS'y'
F120
s(dp92
S'y'
F120
sS'x'
F494
sg23
I00
s(dp93
S'y'
F91
sS'x'
F507
sg23
I00
s(dp94
g21
S'curve'
p95
sS'x'
F507
sg23
I01
sS'y'
F57
s(dp96
S'y'
F27
sS'x'
F507
sg23
I00
s(dp97
S'y'
F0
sS'x'
F490
sg23
I00
s(dp98
g21
S'curve'
p99
sS'x'
F458
sg23
I01
sS'y'
F0
s(dp100
g21
S'line'
p101
sS'x'
F113
sg23
I01
sS'y'
F0
s(dp102
S'y'
F0
sS'x'
F75
sg23
I00
s(dp103
S'y'
F24
sS'x'
F57
sg23
I00
s(dp104
g21
S'curve'
p105
sS'x'
F57
sg23
I01
sS'y'
F59
s(dp106
S'y'
F92
sS'x'
F57
sg23
I00
s(dp107
S'y'
F120
sS'x'
F73
sg23
I00
s(dp108
g21
S'curve'
p109
sS'x'
F109
sg23
I01
sS'y'
F120
s(dp110
g21
S'line'
p111
sS'x'
F215
sg23
I00
sS'y'
F120
s(dp112
g21
S'line'
p113
sS'x'
F215
sg23
I00
sS'y'
F642
s(dp114
g21
S'line'
p115
sS'x'
F55
sg23
I01
sS'y'
F642
s(dp116
S'y'
F642
sS'x'
F14
sg23
I00
s(dp117
S'y'
F673
sS'x'
F-5
sg23
I00
s(dp118
g21
S'curve'
p119
sS'x'
F-5
sg23
I01
sS'y'
F705
s(dp120
S'y'
F738
sS'x'
F-5
sg23
I00
s(dp121
S'y'
F772
sS'x'
F16
sg23
I00
s(dp122
g21
S'curve'
p123
sS'x'
F53
sg23
I01
sS'y'
F772
s(dp124
g21
S'line'
p125
sS'x'
F309
sg23
I01
sS'y'
F772
s(dp126
S'y'
F772
sS'x'
F334
sg23
I00
s(dp127
S'y'
F765
sS'x'
F355
sg23
I00
stp128
stp129
sS'components'
p130
(tsS'anchors'
p131
(tsss."
LayerCount: 2
Fore
SplineSet
464 373 m 1
 851 692 l 1
 744 692 l 2
 716 692 702 712 702 733 c 0
 702 754 717 775 748 775 c 2
 1065 775 l 2
 1094 775 1106 753 1106 729 c 0
 1106 711 1088 692 1066 692 c 2
 971 692 l 1
 662 433 l 1
 1001 82 l 1
 1088 82 l 2
 1115 82 1128 61 1128 41 c 0
 1128 20 1114 0 1088 0 c 2
 775 0 l 2
 747 0 733 21 733 41 c 0
 733 62 748 82 779 82 c 2
 889 82 l 1
 597 387 l 1
 464 287 l 1
 464 82 l 1
 535 82 l 2
 561 82 574 61 574 41 c 0
 574 20 561 0 534 0 c 2
 200 0 l 2
 170 0 154 21 154 42 c 0
 154 62 168 82 196 82 c 2
 368 82 l 1
 368 692 l 1
 193 692 l 2
 160 692 150 713 150 734 c 0
 150 753 162 774 189 774 c 2
 428 774 l 2
 449 774 464 760 464 736 c 2
 464 373 l 1
EndSplineSet
EndChar

StartChar: l
Encoding: 76 108 233
Width: 1240
VWidth: 0
Flags: HMW
PickledData: "(dp1
S'com.typemytype.robofont.layerData'
p2
(dp3
S'b'
(dp4
S'name'
p5
S'l'
sS'lib'
p6
(dp7
sS'unicodes'
p8
(tsS'width'
p9
I1240
sS'contours'
p10
(tsS'components'
p11
(tsS'anchors'
p12
(tsss."
LayerCount: 2
Fore
SplineSet
719 1150 m 6
 719 82 l 5
 1059 82 l 6
 1085 82 1098 61 1098 41 c 4
 1098 20 1085 0 1058 0 c 6
 258 0 l 6
 227 0 212 21 212 42 c 4
 212 62 226 82 254 82 c 6
 623 82 l 5
 623 1090 l 5
 270 1062 l 6
 267 1062 265 1061 263 1061 c 4
 236 1061 222 1082 222 1103 c 4
 222 1122 232 1140 254 1143 c 6
 672 1181 l 6
 675 1181 678 1182 683 1182 c 4
 704 1182 719 1170 719 1150 c 6
EndSplineSet
EndChar

StartChar: less
Encoding: 28 60 238
Width: 1240
VWidth: 0
Flags: HMW
PickledData: "(dp1
S'com.typemytype.robofont.layerData'
p2
(dp3
S'b'
(dp4
S'name'
p5
S'less'
p6
sS'lib'
p7
(dp8
sS'unicodes'
p9
(tsS'width'
p10
I1240
sS'contours'
p11
(tsS'components'
p12
(tsS'anchors'
p13
(tsss."
LayerCount: 2
Fore
SplineSet
87 497 m 2
 70 504 61 527 61 550 c 0
 61 574 71 598 87 605 c 2
 955 966 l 2
 958 967 962 968 965 968 c 0
 988 968 1009 939 1009 914 c 0
 1009 900 1003 888 988 882 c 2
 179 554 l 1
 998 221 l 2
 1017 213 1025 199 1025 183 c 0
 1025 158 1005 132 981 132 c 0
 976 132 972 133 967 135 c 2
 87 497 l 2
EndSplineSet
EndChar

StartChar: logicalnot
Encoding: 107 172 239
Width: 1240
VWidth: 0
Flags: HMW
PickledData: "(dp1
S'com.typemytype.robofont.layerData'
p2
(dp3
S'b'
(dp4
S'name'
p5
S'logicalnot'
p6
sS'lib'
p7
(dp8
sS'unicodes'
p9
(tsS'width'
p10
I1240
sS'contours'
p11
(tsS'components'
p12
(tsS'anchors'
p13
(tsss."
LayerCount: 2
Fore
SplineSet
301 546 m 6
 858 546 l 6
 896 546 918 526 918 488 c 4
 918 214 l 4
 918 177 893 158 868 158 c 4
 844 158 821 175 821 210 c 6
 821 460 l 5
 301 460 l 6
 265 460 252 481 252 502 c 4
 252 524 266 546 301 546 c 6
EndSplineSet
EndChar

StartChar: lslash
Encoding: 254 322 240
Width: 1240
VWidth: 0
Flags: HMW
PickledData: "(dp1
S'com.typemytype.robofont.layerData'
p2
(dp3
S'b'
(dp4
S'name'
p5
S'lslash'
p6
sS'lib'
p7
(dp8
sS'unicodes'
p9
(tsS'width'
p10
I1240
sS'contours'
p11
(tsS'components'
p12
(tsS'anchors'
p13
(tsss."
LayerCount: 2
Fore
SplineSet
896 796 m 2
 902 798 907 799 912 799 c 0
 934 799 949 778 949 757 c 0
 949 744 943 731 929 725 c 2
 435 523 l 2
 429 521 423 519 418 519 c 0
 394 519 376 541 376 562 c 0
 376 575 383 588 400 595 c 2
 896 796 l 2
EndSplineSet
Refer: 233 108 N 1 0 0 1 0 0 2
EndChar

StartChar: m
Encoding: 77 109 241
Width: 1240
VWidth: 0
Flags: HMW
PickledData: "(dp1
S'com.typemytype.robofont.layerData'
p2
(dp3
S'b'
(dp4
S'name'
p5
S'm'
sS'lib'
p6
(dp7
sS'unicodes'
p8
(tsS'width'
p9
I1240
sS'contours'
p10
(tsS'components'
p11
(tsS'anchors'
p12
(tsss."
LayerCount: 2
Fore
SplineSet
591 540 m 2
 591 678 546 731 486 731 c 0
 399 731 312 621 307 503 c 1
 307 82 l 1
 392 82 l 2
 424 82 440 62 440 42 c 0
 440 21 423 0 390 0 c 2
 107 0 l 2
 76 0 61 22 61 43 c 0
 61 63 75 82 103 82 c 2
 211 82 l 1
 211 709 l 1
 103 687 l 2
 96 685 89 684 83 684 c 0
 59 684 44 702 44 722 c 0
 44 738 53 757 77 763 c 1
 241 796 l 2
 248 797 254 798 259 798 c 0
 286 798 297 782 298 759 c 2
 303 639 l 1
 342 750 411 813 496 813 c 0
 572 813 640 763 671 654 c 1
 718 758 795 813 878 813 c 0
 983 813 1067 724 1067 533 c 2
 1067 82 l 1
 1176 82 l 2
 1203 82 1216 62 1216 42 c 0
 1216 21 1202 0 1174 0 c 2
 1017 0 l 2
 986 0 971 22 971 43 c 2
 971 540 l 2
 971 679 933 731 872 731 c 0
 785 731 689 625 687 509 c 1
 687 82 l 1
 805 82 l 2
 832 82 845 62 845 42 c 0
 845 21 831 0 803 0 c 2
 637 0 l 2
 606 0 591 22 591 43 c 2
 591 540 l 2
EndSplineSet
EndChar

StartChar: macron
Encoding: 110 175 242
Width: 1240
VWidth: 0
Flags: HMW
PickledData: "(dp1
S'com.typemytype.robofont.layerData'
p2
(dp3
S'b'
(dp4
S'name'
p5
S'macron'
p6
sS'lib'
p7
(dp8
sS'unicodes'
p9
(tsS'width'
p10
I1240
sS'contours'
p11
(tsS'components'
p12
(tsS'anchors'
p13
(tsss."
LayerCount: 2
Fore
SplineSet
883 1033 m 2
 521 1033 l 2
 483 1033 470 1049 470 1076 c 0
 470 1103 486 1119 520 1119 c 2
 881 1119 l 2
 914 1119 930 1103 930 1076 c 0
 930 1049 916 1033 883 1033 c 2
EndSplineSet
EndChar

StartChar: minus
Encoding: 403 8722 243
Width: 1240
VWidth: 0
Flags: HMW
PickledData: "(dp1
S'com.typemytype.robofont.layerData'
p2
(dp3
S'b'
(dp4
S'name'
p5
S'minus'
p6
sS'lib'
p7
(dp8
sS'unicodes'
p9
(tsS'width'
p10
I1241
sS'contours'
p11
(tsS'components'
p12
(tsS'anchors'
p13
(tsss."
LayerCount: 2
Fore
SplineSet
898 503 m 2
 928 503 943 482 943 460 c 0
 943 439 928 417 898 417 c 2
 343 417 l 2
 313 417 298 439 298 460 c 0
 298 482 313 503 343 503 c 2
 898 503 l 2
EndSplineSet
EndChar

StartChar: mu
Encoding: 431 956 244
Width: 1240
VWidth: 0
Flags: HMW
PickledData: "(dp1
S'com.typemytype.robofont.layerData'
p2
(dp3
S'b'
(dp4
S'name'
p5
S'mu'
p6
sS'lib'
p7
(dp8
sS'unicodes'
p9
(tsS'width'
p10
I1240
sS'contours'
p11
(tsS'components'
p12
(tsS'anchors'
p13
(tsss."
LayerCount: 2
Fore
SplineSet
270 -256 m 2
 270 285 l 1
 306 405 l 1
 322 188 l 1
 333 90 374 -196 385 -257 c 0
 386 -265 387 -272 387 -278 c 0
 387 -325 355 -343 327 -343 c 0
 291 -343 270 -310 270 -256 c 2
EndSplineSet
Refer: 318 117 N 1 0 0 1 0 0 2
EndChar

StartChar: multiply
Encoding: 148 215 245
Width: 1240
VWidth: 0
Flags: HMW
PickledData: "(dp1
S'com.typemytype.robofont.layerData'
p2
(dp3
S'b'
(dp4
S'name'
p5
S'multiply'
p6
sS'lib'
p7
(dp8
sS'unicodes'
p9
(tsS'width'
p10
I1240
sS'contours'
p11
(tsS'components'
p12
(tsS'anchors'
p13
(tsss."
LayerCount: 2
Fore
SplineSet
919 757 m 0
 946 757 969 733 969 707 c 0
 969 694 964 681 954 671 c 2
 770 488 l 1
 954 303 l 2
 964 293 969 280 969 268 c 0
 969 241 946 218 919 218 c 0
 906 218 893 223 883 233 c 2
 699 417 l 1
 516 233 l 2
 506 223 493 218 480 218 c 0
 453 218 430 241 430 268 c 0
 430 280 435 293 445 303 c 2
 628 488 l 1
 445 671 l 2
 435 681 430 694 430 707 c 0
 430 733 453 757 480 757 c 0
 493 757 506 752 516 742 c 2
 699 558 l 1
 883 742 l 2
 893 752 906 757 919 757 c 0
EndSplineSet
EndChar

StartChar: n
Encoding: 78 110 246
Width: 1240
VWidth: 0
Flags: HMW
PickledData: "(dp1
S'com.typemytype.robofont.layerData'
p2
(dp3
S'b'
(dp4
S'name'
p5
S'n'
sS'lib'
p6
(dp7
sS'unicodes'
p8
(tsS'width'
p9
I1240
sS'contours'
p10
(tsS'components'
p11
(tsS'anchors'
p12
(tsss."
LayerCount: 2
Fore
SplineSet
714 731 m 0
 522 731 394 604 394 503 c 2
 394 82 l 1
 499 82 l 2
 531 82 547 62 547 42 c 0
 547 21 530 0 497 0 c 2
 194 0 l 2
 163 0 148 22 148 43 c 0
 148 63 162 82 190 82 c 2
 298 82 l 1
 298 709 l 1
 190 687 l 2
 183 685 176 684 170 684 c 0
 146 684 131 702 131 722 c 0
 131 738 140 757 164 763 c 1
 328 796 l 2
 335 797 341 798 346 798 c 0
 373 798 384 782 385 759 c 2
 390 639 l 1
 440 737 570 813 709 813 c 0
 902 813 990 707 990 533 c 2
 990 82 l 1
 1099 82 l 2
 1126 82 1139 62 1139 42 c 0
 1139 21 1125 0 1097 0 c 2
 752 0 l 2
 721 0 706 22 706 43 c 0
 706 63 720 82 748 82 c 2
 894 82 l 1
 894 540 l 2
 894 659 835 731 714 731 c 0
EndSplineSet
EndChar

StartChar: nine
Encoding: 25 57 250
Width: 1240
VWidth: 0
Flags: HMW
PickledData: "(dp1
S'com.typemytype.robofont.layerData'
p2
(dp3
S'b'
(dp4
S'name'
p5
S'nine'
p6
sS'lib'
p7
(dp8
sS'unicodes'
p9
(tsS'width'
p10
I1240
sS'contours'
p11
(tsS'components'
p12
(tsS'anchors'
p13
(tsss."
LayerCount: 2
Fore
SplineSet
629 1105 m 0
 446 1105 346 971 346 816 c 0
 346 660 422 511 606 511 c 0
 805 511 924 651 924 806 c 0
 924 963 840 1105 629 1105 c 0
250 813 m 0
 250 1041 403 1187 629 1187 c 0
 896 1187 1020 1010 1020 744 c 0
 1020 364 825 137 616 -52 c 0
 607 -60 597 -64 588 -64 c 0
 564 -64 542 -40 542 -18 c 0
 542 -9 546 -1 554 6 c 0
 709 135 880 326 916 579 c 1
 839 476 718 429 609 429 c 0
 384 429 250 587 250 813 c 0
EndSplineSet
EndChar

StartChar: numbersign
Encoding: 3 35 253
Width: 1240
VWidth: 0
Flags: HMW
PickledData: "(dp1
S'com.typemytype.robofont.layerData'
p2
(dp3
S'b'
(dp4
S'name'
p5
S'numbersign'
p6
sS'lib'
p7
(dp8
sS'unicodes'
p9
(tsS'width'
p10
I1240
sS'contours'
p11
(tsS'components'
p12
(tsS'anchors'
p13
(tsss."
LayerCount: 2
Fore
SplineSet
468 470 m 1
 725 470 l 1
 780 689 l 1
 524 689 l 1
 468 470 l 1
584 -94 m 0
 584 -91 584 -89 585 -86 c 2
 704 385 l 1
 447 385 l 1
 325 -94 l 2
 320 -114 302 -123 284 -123 c 0
 265 -123 247 -112 247 -94 c 0
 247 -91 247 -89 248 -86 c 2
 367 385 l 1
 250 385 l 2
 230 385 219 406 219 428 c 0
 219 449 230 470 250 470 c 2
 388 470 l 1
 443 689 l 1
 292 689 l 2
 272 689 261 710 261 732 c 0
 261 753 272 774 292 774 c 2
 465 774 l 1
 593 1282 l 2
 598 1300 614 1308 631 1308 c 0
 651 1308 672 1296 672 1277 c 0
 672 1275 672 1272 671 1270 c 2
 545 774 l 1
 802 774 l 1
 930 1282 l 2
 935 1300 951 1308 968 1308 c 0
 988 1308 1009 1296 1009 1277 c 0
 1009 1275 1009 1272 1008 1270 c 2
 882 774 l 1
 1001 774 l 2
 1022 774 1032 752 1032 731 c 0
 1032 710 1022 689 1002 689 c 2
 861 689 l 1
 805 470 l 1
 959 470 l 2
 980 470 990 449 990 428 c 0
 990 406 980 385 959 385 c 2
 784 385 l 1
 662 -94 l 2
 657 -114 639 -123 621 -123 c 0
 602 -123 584 -112 584 -94 c 0
EndSplineSet
EndChar

StartChar: o
Encoding: 79 111 254
Width: 1240
VWidth: 0
Flags: HMW
PickledData: "(dp1
S'com.typemytype.robofont.guides'
p2
(tsS'com.typemytype.robofont.layerData'
p3
(dp4
S'b'
(dp5
S'name'
p6
S'o'
sS'lib'
p7
(dp8
sS'unicodes'
p9
(tsS'width'
p10
I1240
sS'contours'
p11
(tsS'components'
p12
(tsS'anchors'
p13
(tsss."
LayerCount: 2
Fore
SplineSet
620 813 m 0
 873 813 1044 654 1044 398 c 0
 1044 145 873 -17 620 -17 c 0
 367 -17 196 145 196 398 c 0
 196 654 367 813 620 813 c 0
620 65 m 0
 821 65 936 203 936 398 c 0
 936 592 821 731 620 731 c 0
 419 731 304 592 304 398 c 0
 304 203 419 65 620 65 c 0
EndSplineSet
EndChar

StartChar: oe
Encoding: 268 339 259
Width: 1240
VWidth: 0
Flags: HMW
PickledData: "(dp1
S'com.typemytype.robofont.layerData'
p2
(dp3
S'b'
(dp4
S'name'
p5
S'oe'
p6
sS'lib'
p7
(dp8
sS'unicodes'
p9
(tsS'width'
p10
I1240
sS'contours'
p11
(tsS'components'
p12
(tsS'anchors'
p13
(tsss."
LayerCount: 2
Back
SplineSet
877 398 m 4
 877 -145.881 189 -147.255 189 398 c 4
 189 943.079 877 944.279 877 398 c 4
769 398 m 4
 769 830.817 297 832.442 297 398 c 4
 297 -35.2168 769 -36.7839 769 398 c 4
868 461 m 5
 1486 465 l 5
 1480 563 1450 731 1213 731 c 4
 1018 731 892 631 868 461 c 5
1211 813 m 4
 1417 813 1571 698 1571 479 c 4
 1571 429.286 1541 392 1494 392 c 6
 865 387 l 5
 872 169.031 1016 65 1214 65 c 4
 1311 65 1413 100 1491 174 c 5
 1506 186 1520 191 1532 191 c 4
 1556 191 1572 171 1572 147 c 4
 1572 133 1566 118 1554 105 c 4
 1480 25 1326 -17 1222 -17 c 4
 955 -17 769 141 769 407 c 4
 769 663 970 813 1211 813 c 4
EndSplineSet
Fore
SplineSet
1128 479 m 0
 1128 429 1098 392 1051 392 c 2
 675 387 l 1
 682 171 780 61 890 61 c 0
 951 61 1015 94 1071 162 c 0
 1077 169 1085 172 1094 172 c 0
 1113 172 1136 158 1136 137 c 0
 1136 128 1131 117 1121 105 c 0
 1045 21 963 -10 886 -10 c 0
 775 -10 677 45 631 205 c 1
 581 49 477 -10 378 -10 c 0
 238 -10 99 126 99 398 c 0
 99 671 241 807 383 807 c 0
 482 807 588 750 629 587 c 1
 676 751 782 812 882 812 c 0
 1005 812 1128 705 1128 479 c 0
678 456 m 1
 1043 460 l 1
 1043 637 960 732 877 732 c 0
 794 732 711 637 678 456 c 1
579 398 m 0
 579 615 486 723 393 723 c 0
 300 723 207 615 207 398 c 0
 207 181 300 72 393 72 c 0
 486 72 579 181 579 398 c 0
EndSplineSet
EndChar

StartChar: ogonek
Encoding: 357 731 260
Width: 1240
VWidth: 0
Flags: HMW
PickledData: "(dp1
S'com.typemytype.robofont.layerData'
p2
(dp3
S'b'
(dp4
S'name'
p5
S'ogonek'
p6
sS'lib'
p7
(dp8
sS'unicodes'
p9
(tsS'width'
p10
I1240
sS'contours'
p11
(tsS'components'
p12
(tsS'anchors'
p13
(tsss."
LayerCount: 2
Fore
SplineSet
601 -268 m 4
 601 -312 633 -316 665 -316 c 4
 673 -316 681 -316 688 -316 c 4
 710 -316 737 -311 737 -330 c 4
 737 -365 679 -407 615 -407 c 4
 552 -407 503 -378 503 -297 c 4
 503 -236 564 -74 678 20 c 1
 719 20 l 2
 723 20 601 -196 601 -268 c 4
EndSplineSet
EndChar

StartChar: one
Encoding: 17 49 264
Width: 1240
VWidth: 0
Flags: HMW
PickledData: "(dp1
S'com.typemytype.robofont.layerData'
p2
(dp3
S'b'
(dp4
S'name'
p5
S'one'
p6
sS'lib'
p7
(dp8
sS'unicodes'
p9
(tsS'width'
p10
I1240
sS'contours'
p11
(tsS'components'
p12
(tsS'anchors'
p13
(tsss."
LayerCount: 2
Fore
SplineSet
735 1130 m 2
 735 82 l 1
 1075 82 l 2
 1101 82 1114 61 1114 41 c 0
 1114 20 1101 0 1074 0 c 2
 274 0 l 2
 243 0 228 21 228 42 c 0
 228 62 242 82 270 82 c 2
 639 82 l 1
 639 1069 l 1
 304 917 l 2
 298 914 292 913 287 913 c 0
 263 913 246 936 246 958 c 0
 246 972 253 986 270 993 c 2
 674 1173 l 2
 680 1176 687 1177 694 1177 c 0
 714 1177 735 1164 735 1130 c 2
EndSplineSet
EndChar

StartChar: onehalf
Encoding: 122 189 265
Width: 1240
VWidth: 0
Flags: HMW
PickledData: "(dp1
S'com.typemytype.robofont.layerData'
p2
(dp3
S'b'
(dp4
S'name'
p5
S'onehalf'
p6
sS'lib'
p7
(dp8
sS'unicodes'
p9
(tsS'width'
p10
I1240
sS'contours'
p11
(tsS'components'
p12
(tsS'anchors'
p13
(tsss."
LayerCount: 2
Fore
SplineSet
1167 552 m 0
 1167 347 884 269 837 65 c 1
 1118 65 l 1
 1125 169 l 2
 1126 191 1141 204 1156 204 c 0
 1170 204 1183 193 1183 164 c 2
 1183 40 l 2
 1183 15 1170 0 1151 0 c 2
 769 0 l 1
 767 9 765 17 765 29 c 0
 765 268 1096 385 1096 546 c 0
 1096 633 1034 679 955 679 c 0
 917 679 875 668 835 646 c 1
 826 550 825 507 796 507 c 0
 771 507 760 534 760 570 c 0
 760 679 854 732 952 732 c 0
 1057 732 1167 671 1167 552 c 0
269 1085 m 2
 269 399 l 1
 375 399 l 2
 394 399 403 384 403 370 c 0
 403 355 393 340 374 340 c 2
 78 340 l 2
 56 340 45 356 45 371 c 0
 45 385 55 399 75 399 c 2
 199 399 l 1
 199 1041 l 1
 76 985 l 2
 72 983 68 982 64 982 c 0
 47 982 34 999 34 1015 c 0
 34 1025 39 1035 51 1040 c 2
 225 1116 l 2
 229 1118 234 1119 239 1119 c 0
 254 1119 269 1110 269 1085 c 2
295 79 m 6
 907 1099 l 6
 913 1110 923 1115 934 1115 c 4
 951 1115 969 1104 969 1086 c 4
 969 1081 968 1076 965 1070 c 6
 355 52 l 6
 347 39 338 34 327 34 c 4
 309 34 292 47 292 65 c 4
 292 69 292 74 295 79 c 6
EndSplineSet
EndChar

StartChar: onequarter
Encoding: 121 188 266
Width: 1240
VWidth: 0
Flags: HMW
PickledData: "(dp1
S'com.typemytype.robofont.layerData'
p2
(dp3
S'b'
(dp4
S'name'
p5
S'onequarter'
p6
sS'lib'
p7
(dp8
sS'unicodes'
p9
(tsS'width'
p10
I1240
sS'contours'
p11
(tsS'components'
p12
(tsS'anchors'
p13
(tsss."
LayerCount: 2
Back
SplineSet
408.684 1154.6 m 6
 408.684 399.439 l 5
 654.587 399.439 l 6
 673.391 399.439 682.793 384.307 682.793 369.895 c 4
 682.793 354.764 673.391 340.352 653.863 340.352 c 6
 75.2695 340.352 l 6
 52.8486 340.352 42 355.484 42 370.615 c 4
 42 385.027 52.125 399.439 72.376 399.439 c 6
 339.253 399.439 l 5
 339.253 1110.64 l 5
 96.9668 1001.11 l 6
 92.7764 999.287 88.7246 998.469 84.8994 998.469 c 4
 67.8271 998.469 55.2793 1014.78 55.2793 1030.62 c 4
 55.2793 1040.64 60.3008 1050.48 72.376 1055.88 c 6
 364.566 1185.58 l 6
 369.02 1187.61 374.092 1188.75 379.172 1188.75 c 4
 393.894 1188.75 408.684 1179.24 408.684 1154.6 c 6
1055.51 1 m 6
 1042.96 1 1035.89 14.1592 1035.89 27.3193 c 4
 1035.89 39.7051 1042.17 51.3154 1054.73 51.3154 c 6
 1280.71 51.3154 l 5
 1280.71 270.381 l 5
 907.994 270.381 l 6
 893.085 270.381 878.178 286.638 878.178 304.441 c 4
 878.178 311.408 880.531 319.149 886.023 326.115 c 6
 1297.19 904.357 l 6
 1299.54 907.453 1312.09 913.646 1325.43 913.646 c 4
 1340.34 913.646 1356.04 905.131 1356.04 871.846 c 6
 1356.04 333.856 l 5
 1514.54 333.856 l 6
 1532.58 333.856 1542 318.375 1542 302.119 c 4
 1542 286.638 1532.58 270.381 1512.97 270.381 c 6
 1356.04 270.381 l 5
 1356.04 51.3154 l 5
 1480.01 51.3154 l 6
 1492.57 51.3154 1498.84 39.7051 1498.84 27.3193 c 4
 1498.84 14.1592 1491.78 1 1479.23 1 c 6
 1055.51 1 l 6
1280.71 778.181 m 5
 968.413 333.856 l 5
 1280.71 333.856 l 5
 1280.71 778.181 l 5
465.233 -178 m 6
 1132.23 1152 l 6
 1139.42 1166.38 1153.89 1172.79 1168.71 1172.79 c 4
 1191.23 1172.79 1214.58 1158.01 1214.58 1133.94 c 4
 1214.58 1127.58 1212.95 1120.56 1209.23 1113 c 6
 545.233 -213 l 6
 536.544 -230.379 522.158 -237.481 507.713 -237.481 c 4
 484.434 -237.481 461 -219.036 461 -195.423 c 4
 461 -189.846 462.308 -183.979 465.233 -178 c 6
EndSplineSet
Fore
SplineSet
269 1085 m 2
 269 399 l 1
 375 399 l 2
 394 399 403 384 403 370 c 0
 403 355 393 340 374 340 c 2
 78 340 l 2
 56 340 45 356 45 371 c 0
 45 385 55 399 75 399 c 2
 199 399 l 1
 199 1041 l 1
 76 985 l 2
 72 983 68 982 64 982 c 0
 47 982 34 999 34 1015 c 0
 34 1025 39 1035 51 1040 c 2
 225 1116 l 2
 229 1118 234 1119 239 1119 c 0
 254 1119 269 1110 269 1085 c 2
786 1 m 2
 768 1 759 16 759 32 c 0
 759 47 768 63 785 63 c 2
 961 63 l 1
 961 245 l 1
 690 245 l 2
 675 245 660 261 660 279 c 0
 660 286 663 293 668 301 c 2
 977 794 l 2
 979 798 992 804 1005 804 c 0
 1020 804 1036 795 1036 762 c 2
 1036 301 l 1
 1155 301 l 2
 1173 301 1182 287 1182 273 c 0
 1182 259 1172 245 1153 245 c 2
 1036 245 l 1
 1036 63 l 1
 1160 63 l 2
 1179 63 1188 48 1188 33 c 0
 1188 17 1178 1 1159 1 c 2
 786 1 l 2
961 667 m 5
 743 301 l 1
 961 301 l 1
 961 667 l 5
322 79 m 2
 934 1099 l 2
 940 1110 950 1115 961 1115 c 0
 978 1115 996 1104 996 1086 c 0
 996 1081 995 1076 992 1070 c 2
 382 52 l 2
 374 39 365 34 354 34 c 0
 336 34 319 47 319 65 c 0
 319 69 319 74 322 79 c 2
EndSplineSet
EndChar

StartChar: ordmasculine
Encoding: 119 186 268
Width: 1240
VWidth: 0
Flags: HMW
PickledData: "(dp1
S'com.typemytype.robofont.layerData'
p2
(dp3
S'b'
(dp4
S'name'
p5
S'ordmasculine'
p6
sS'lib'
p7
(dp8
sS'unicodes'
p9
(tsS'width'
p10
I1240
sS'contours'
p11
(tsS'components'
p12
(tsS'anchors'
p13
(tsss."
LayerCount: 2
Fore
SplineSet
702 -20 m 0
 535 -20 421 87 421 255 c 0
 421 424 535 529 702 529 c 0
 867 529 977 420 977 255 c 0
 977 89 867 -20 702 -20 c 0
702 451 m 0
 587 451 522 370 522 255 c 0
 522 139 587 57 702 57 c 0
 815 57 878 142 878 255 c 0
 878 368 815 451 702 451 c 0
EndSplineSet
EndChar

StartChar: oslash
Encoding: 181 248 269
Width: 1240
VWidth: 0
Flags: HMW
PickledData: "(dp1
S'com.typemytype.robofont.layerData'
p2
(dp3
S'b'
(dp4
S'name'
p5
S'oslash'
p6
sS'lib'
p7
(dp8
sS'unicodes'
p9
(tsS'width'
p10
I1240
sS'contours'
p11
(tsS'components'
p12
(tsS'anchors'
p13
(tsss."
LayerCount: 2
Fore
SplineSet
410 -121 m 2
 404 -134 396 -142 380 -142 c 0
 360 -142 347 -129 347 -108 c 0
 347 -103 348 -99 350 -95 c 2
 834 917 l 2
 839 929 848 934 861 934 c 0
 881 934 894 922 894 900 c 0
 894 896 893 892 891 888 c 2
 410 -121 l 2
EndSplineSet
Refer: 254 111 N 1 0 0 1 0 0 2
EndChar

StartChar: p
Encoding: 80 112 271
Width: 1240
VWidth: 0
Flags: HMW
PickledData: "(dp1
S'com.typemytype.robofont.layerData'
p2
(dp3
S'b'
(dp4
S'name'
p5
S'p'
sS'lib'
p6
(dp7
sS'unicodes'
p8
(tsS'width'
p9
I1240
sS'contours'
p10
(tsS'components'
p11
(tsS'anchors'
p12
(tsss."
LayerCount: 2
Fore
SplineSet
399 690 m 1
 463 755 566 813 693 813 c 0
 928 813 1067 640 1067 398 c 0
 1067 160 923 -17 689 -17 c 0
 560 -17 479 25 405 89 c 1
 405 -288 l 1
 621 -288 l 2
 649 -288 663 -307 663 -327 c 0
 663 -348 648 -370 617 -370 c 2
 221 -370 l 2
 193 -370 179 -349 179 -328 c 0
 179 -308 192 -288 219 -288 c 2
 309 -288 l 1
 309 708 l 1
 201 687 l 2
 194 686 187 684 181 684 c 0
 157 684 142 702 142 722 c 0
 142 738 151 757 175 763 c 1
 339 796 l 2
 346 797 352 798 357 798 c 0
 384 798 395 782 396 759 c 2
 399 690 l 1
971 398 m 0
 971 577 877 731 691 731 c 0
 556 731 463 669 405 586 c 1
 405 194 l 1
 468 115 556 65 683 65 c 0
 874 65 971 221 971 398 c 0
EndSplineSet
EndChar

StartChar: paragraph
Encoding: 116 182 272
Width: 1240
VWidth: 0
Flags: HMW
PickledData: "(dp1
S'com.typemytype.robofont.layerData'
p2
(dp3
S'b'
(dp4
S'name'
p5
S'paragraph'
p6
sS'lib'
p7
(dp8
sS'unicodes'
p9
(tsS'width'
p10
I1240
sS'contours'
p11
(tsS'components'
p12
(tsS'anchors'
p13
(tsss."
LayerCount: 2
Fore
SplineSet
890 1171 m 1
 892 82 l 1
 1073 82 l 2
 1100 82 1112 63 1112 43 c 0
 1112 22 1098 0 1071 0 c 2
 333 0 l 2
 306 0 292 22 292 43 c 0
 292 63 304 82 331 82 c 2
 540 82 l 1
 540 611 l 1
 344 611 232 759 232 903 c 0
 232 1039 332 1171 554 1171 c 2
 890 1171 l 1
636 82 m 1
 794 82 l 1
 794 1089 l 1
 636 1089 l 1
 636 82 l 1
EndSplineSet
EndChar

StartChar: parenleft
Encoding: 8 40 273
Width: 1240
VWidth: 0
Flags: HMW
PickledData: "(dp1
S'com.typemytype.robofont.layerData'
p2
(dp3
S'b'
(dp4
S'name'
p5
S'parenleft'
p6
sS'lib'
p7
(dp8
sS'unicodes'
p9
(tsS'width'
p10
I1240
sS'contours'
p11
(tsS'components'
p12
(tsS'anchors'
p13
(tsss."
LayerCount: 2
Fore
SplineSet
484 570 m 0
 484 853 549 1079 692 1267 c 0
 701 1279 712 1284 723 1284 c 0
 747 1284 770 1259 770 1238 c 0
 770 1232 768 1227 764 1222 c 0
 638 1074 578 826 578 570 c 0
 578 314 638 66 764 -82 c 0
 768 -87 770 -92 770 -98 c 0
 770 -119 747 -144 723 -144 c 0
 712 -144 701 -139 692 -127 c 0
 549 61 484 287 484 570 c 0
EndSplineSet
EndChar

StartChar: parenright
Encoding: 9 41 274
Width: 1240
VWidth: 0
Flags: HMW
PickledData: "(dp1
S'com.typemytype.robofont.layerData'
p2
(dp3
S'b'
(dp4
S'name'
p5
S'parenright'
p6
sS'lib'
p7
(dp8
sS'unicodes'
p9
(tsS'width'
p10
I1240
sS'contours'
p11
(tsS'components'
p12
(tsS'anchors'
p13
(tsss."
LayerCount: 2
Fore
SplineSet
770 570 m 0
 770 287 705 61 562 -127 c 0
 553 -139 542 -144 531 -144 c 0
 507 -144 484 -119 484 -98 c 0
 484 -92 486 -87 490 -82 c 0
 616 66 676 314 676 570 c 0
 676 826 616 1074 490 1222 c 0
 486 1227 484 1232 484 1238 c 0
 484 1259 507 1284 531 1284 c 0
 542 1284 553 1279 562 1267 c 0
 705 1079 770 853 770 570 c 0
EndSplineSet
EndChar

StartChar: percent
Encoding: 5 37 275
Width: 1240
VWidth: 0
Flags: HMW
PickledData: "(dp1
S'com.typemytype.robofont.layerData'
p2
(dp3
S'b'
(dp4
S'name'
p5
S'percent'
p6
sS'lib'
p7
(dp8
sS'unicodes'
p9
(tsS'width'
p10
I1240
sS'contours'
p11
(tsS'components'
p12
(tsS'anchors'
p13
(tsss."
LayerCount: 2
Fore
SplineSet
887 44 m 0
 969 44 1026 183 1026 301 c 0
 1026 372 1006 435 957 435 c 0
 870 435 813 291 813 181 c 0
 813 109 835 44 887 44 c 0
878 -13 m 0
 782 -13 739 78 739 184 c 0
 739 329 820 501 964 501 c 0
 1053 501 1099 406 1099 308 c 1
 1097 137 1017 -13 878 -13 c 0
282 531 m 0
 364 531 417 673 417 777 c 0
 417 839 394 913 346 913 c 0
 263 913 205 802 205 661 c 0
 205 591 231 531 282 531 c 0
277 472 m 0
 193 472 133 557 133 657 c 0
 133 833 228 986 361 986 c 2
 403 986 l 2
 619 986 799 992 869 1143 c 0
 875 1156 886 1162 898 1162 c 0
 916 1162 935 1147 935 1124 c 0
 935 1118 934 1111 931 1104 c 2
 370 -215 l 2
 362 -234 346 -243 331 -243 c 0
 312 -243 296 -230 296 -207 c 0
 296 -200 297 -192 301 -183 c 2
 800 985 l 1
 738 940 640 915 535 915 c 0
 495 915 455 919 415 926 c 1
 466 895 487 826 489 767 c 1
 489 632 404 472 277 472 c 0
EndSplineSet
EndChar

StartChar: period
Encoding: 14 46 276
Width: 1240
VWidth: 0
Flags: HMW
PickledData: "(dp1
S'com.typemytype.robofont.layerData'
p2
(dp3
S'b'
(dp4
S'name'
p5
S'period'
p6
sS'lib'
p7
(dp8
sS'unicodes'
p9
(tsS'width'
p10
I1240
sS'contours'
p11
(tsS'components'
p12
(tsS'anchors'
p13
(tsss."
LayerCount: 2
Fore
SplineSet
620 -16 m 0
 559 -16 514 28 514 89 c 0
 514 150 560 195 620 195 c 0
 680 195 726 149 726 89 c 0
 726 28 680 -16 620 -16 c 0
EndSplineSet
EndChar

StartChar: periodcentered
Encoding: 416 183 277
Width: 1240
VWidth: 0
Flags: HMW
PickledData: "(dp1
S'com.typemytype.robofont.layerData'
p2
(dp3
S'b'
(dp4
S'name'
p5
S'periodcentered'
p6
sS'lib'
p7
(dp8
sS'unicodes'
p9
(tsS'width'
p10
I1240
sS'contours'
p11
(tsS'components'
p12
(tsS'anchors'
p13
(tsss."
LayerCount: 2
Fore
SplineSet
699 680 m 0
 745 680 781 643 781 597 c 0
 781 551 745 515 699 515 c 0
 653 515 616 551 616 597 c 0
 616 643 653 680 699 680 c 0
EndSplineSet
EndChar

StartChar: plus
Encoding: 11 43 278
Width: 1240
VWidth: 0
Flags: HMW
PickledData: "(dp1
S'com.typemytype.robofont.layerData'
p2
(dp3
S'b'
(dp4
S'name'
p5
S'plus'
p6
sS'lib'
p7
(dp8
sS'unicodes'
p9
(tsS'width'
p10
I1240
sS'contours'
p11
(tsS'components'
p12
(tsS'anchors'
p13
(tsss."
LayerCount: 2
Fore
SplineSet
924 538 m 2
 957 538 967 517 967 497 c 0
 967 476 957 456 924 456 c 2
 669 456 l 1
 669 195 l 2
 669 160 645 143 621 143 c 0
 597 143 573 160 573 195 c 2
 573 456 l 1
 316 456 l 2
 284 456 273 476 273 497 c 0
 273 517 284 538 316 538 c 2
 573 538 l 1
 573 804 l 2
 573 839 597 856 621 856 c 0
 645 856 669 839 669 804 c 2
 669 538 l 1
 924 538 l 2
EndSplineSet
EndChar

StartChar: plusminus
Encoding: 112 177 279
Width: 1240
VWidth: 0
Flags: HMW
PickledData: "(dp1
S'com.typemytype.robofont.layerData'
p2
(dp3
S'b'
(dp4
S'name'
p5
S'plusminus'
p6
sS'lib'
p7
(dp8
sS'unicodes'
p9
(tsS'width'
p10
I1240
sS'contours'
p11
(tsS'components'
p12
(tsS'anchors'
p13
(tsss."
LayerCount: 2
Fore
SplineSet
316 82 m 0
 519 82 721 82 924 82 c 0
 957 82 967 61 967 41 c 0
 967 20 956 0 924 0 c 0
 721 0 519 0 316 0 c 0
 283 0 273 20 273 41 c 0
 273 61 283 82 316 82 c 0
924 558 m 2
 957 558 967 537 967 517 c 0
 967 496 957 476 924 476 c 2
 669 476 l 1
 669 235 l 6
 669 200 645 183 621 183 c 4
 597 183 573 200 573 235 c 6
 573 476 l 1
 316 476 l 2
 284 476 273 496 273 517 c 0
 273 537 284 558 316 558 c 2
 573 558 l 1
 573 804 l 2
 573 839 597 856 621 856 c 0
 645 856 669 839 669 804 c 2
 669 558 l 1
 924 558 l 2
EndSplineSet
EndChar

StartChar: q
Encoding: 81 113 280
Width: 1240
VWidth: 0
Flags: HMW
PickledData: "(dp1
S'com.typemytype.robofont.layerData'
p2
(dp3
S'b'
(dp4
S'name'
p5
S'q'
sS'lib'
p6
(dp7
sS'unicodes'
p8
(tsS'width'
p9
I1240
sS'contours'
p10
(tsS'components'
p11
(tsS'anchors'
p12
(tsss."
LayerCount: 2
Fore
SplineSet
958 -288 m 1
 1048 -288 l 2
 1075 -288 1088 -308 1088 -328 c 0
 1088 -349 1074 -370 1046 -370 c 2
 650 -370 l 2
 619 -370 604 -348 604 -327 c 0
 604 -307 618 -288 646 -288 c 2
 862 -288 l 1
 862 89 l 1
 788 25 707 -17 578 -17 c 0
 344 -17 200 160 200 398 c 0
 200 640 339 813 574 813 c 0
 701 813 802 759 866 694 c 1
 866 796 892 800 917 800 c 0
 938 800 958 791 958 724 c 2
 958 -288 l 1
296 398 m 0
 296 221 393 65 584 65 c 0
 711 65 799 115 862 194 c 1
 862 586 l 1
 804 669 711 731 576 731 c 0
 390 731 296 577 296 398 c 0
EndSplineSet
EndChar

StartChar: question
Encoding: 31 63 281
Width: 1240
VWidth: 0
Flags: HMW
PickledData: "(dp1
S'com.typemytype.robofont.layerData'
p2
(dp3
S'b'
(dp4
S'name'
p5
S'question'
p6
sS'lib'
p7
(dp8
sS'unicodes'
p9
(tsS'width'
p10
I1240
sS'contours'
p11
(tsS'components'
p12
(tsS'anchors'
p13
(tsss."
LayerCount: 2
Fore
SplineSet
549 -9 m 0
 492 -9 447 36 447 93 c 0
 447 150 492 194 549 194 c 0
 606 194 650 151 650 94 c 0
 650 37 606 -9 549 -9 c 0
905 906 m 0
 905 644 575 571 575 394 c 0
 575 360 571 338 543 338 c 0
 510 338 509 363 509 393 c 0
 509 615 751 655 784 874 c 0
 786 887 787 900 787 912 c 0
 787 1030 704 1111 570 1111 c 0
 526 1111 476 1107 421 1082 c 1
 415 1000 416 891 349 891 c 0
 313 891 300 928 300 971 c 0
 300 1106 411 1188 573 1188 c 0
 764 1188 905 1092 905 906 c 0
EndSplineSet
EndChar

StartChar: quotedbl
Encoding: 2 34 283
Width: 1240
VWidth: 0
Flags: HMW
PickledData: "(dp1
S'com.typemytype.robofont.layerData'
p2
(dp3
S'b'
(dp4
S'name'
p5
S'quotedbl'
p6
sS'lib'
p7
(dp8
sS'unicodes'
p9
(tsS'width'
p10
F1240.4817191699999
sS'contours'
p11
(tsS'components'
p12
(tsS'anchors'
p13
(tsss."
LayerCount: 2
Fore
SplineSet
535 721 m 2
 534 707 523 701 511 701 c 0
 499 701 487 707 486 721 c 2
 454 1117 l 2
 451 1154 481 1172 511 1172 c 0
 540 1172 569 1155 569 1122 c 0
 569 1120 569 1118 569 1116 c 2
 535 721 l 2
752 721 m 2
 751 707 740 701 728 701 c 0
 716 701 704 707 703 721 c 2
 671 1117 l 2
 668 1154 698 1172 728 1172 c 0
 757 1172 786 1155 786 1122 c 0
 786 1120 786 1118 786 1116 c 2
 752 721 l 2
EndSplineSet
EndChar

StartChar: quotedblbase
Encoding: 391 8222 284
Width: 1240
VWidth: 0
Flags: HMW
PickledData: "(dp1
S'com.typemytype.robofont.layerData'
p2
(dp3
S'b'
(dp4
S'name'
p5
S'quotedblbase'
p6
sS'lib'
p7
(dp8
sS'unicodes'
p9
(tsS'width'
p10
F1240.4817191699999
sS'contours'
p11
(tsS'components'
p12
(tsS'anchors'
p13
(tsss."
LayerCount: 2
Fore
SplineSet
535 -214 m 2
 534 -228 522 -234 510 -234 c 0
 498 -234 487 -228 486 -214 c 2
 454 182 l 2
 451 219 481 237 511 237 c 0
 540 237 569 220 569 187 c 0
 569 185 569 183 569 181 c 2
 535 -214 l 2
752 -214 m 2
 751 -228 740 -234 728 -234 c 0
 716 -234 704 -228 703 -214 c 2
 671 182 l 2
 668 219 698 237 728 237 c 0
 757 237 786 220 786 187 c 0
 786 185 786 183 786 181 c 2
 752 -214 l 2
EndSplineSet
EndChar

StartChar: quotedblleft
Encoding: 389 8220 285
Width: 1240
VWidth: 0
Flags: HMW
PickledData: "(dp1
S'com.typemytype.robofont.layerData'
p2
(dp3
S'b'
(dp4
S'name'
p5
S'quotedblleft'
p6
sS'lib'
p7
(dp8
sS'unicodes'
p9
(tsS'width'
p10
I1240
sS'contours'
p11
(tsS'components'
p12
(tsS'anchors'
p13
(tsss."
LayerCount: 2
Fore
SplineSet
745 774 m 0
 685 774 633 815 633 895 c 0
 633 1011 736 1144 818 1185 c 0
 821 1187 825 1187 828 1187 c 0
 842 1187 856 1174 856 1160 c 0
 856 1153 852 1145 844 1139 c 0
 801 1108 735 1024 735 962 c 1
 794 962 843 934 843 869 c 0
 843 805 792 774 745 774 c 0
449 774 m 0
 389 774 337 815 337 895 c 0
 337 1011 440 1144 522 1185 c 0
 525 1187 529 1187 532 1187 c 0
 546 1187 560 1174 560 1160 c 0
 560 1153 556 1145 548 1139 c 0
 505 1108 439 1024 439 962 c 1
 498 962 547 934 547 869 c 0
 547 805 496 774 449 774 c 0
EndSplineSet
EndChar

StartChar: quotedblright
Encoding: 390 8221 286
Width: 1240
VWidth: 0
Flags: HMW
PickledData: "(dp1
S'com.typemytype.robofont.layerData'
p2
(dp3
S'b'
(dp4
S'name'
p5
S'quotedblright'
p6
sS'lib'
p7
(dp8
sS'unicodes'
p9
(tsS'width'
p10
I1240
sS'contours'
p11
(tsS'components'
p12
(tsS'anchors'
p13
(tsss."
LayerCount: 2
Fore
SplineSet
465 1187 m 0
 525 1187 577 1146 577 1066 c 0
 577 950 474 817 392 776 c 0
 389 774 385 774 382 774 c 0
 368 774 354 787 354 801 c 0
 354 808 358 816 366 822 c 0
 409 853 475 937 475 999 c 1
 416 999 367 1027 367 1092 c 0
 367 1156 418 1187 465 1187 c 0
761 1187 m 0
 821 1187 873 1146 873 1066 c 0
 873 950 770 817 688 776 c 0
 685 774 681 774 678 774 c 0
 664 774 650 787 650 801 c 0
 650 808 654 816 662 822 c 0
 705 853 771 937 771 999 c 1
 712 999 663 1027 663 1092 c 0
 663 1156 714 1187 761 1187 c 0
EndSplineSet
EndChar

StartChar: quoteleft
Encoding: 386 8216 287
Width: 1240
VWidth: 0
Flags: HMW
PickledData: "(dp1
S'com.typemytype.robofont.layerData'
p2
(dp3
S'b'
(dp4
S'name'
p5
S'quoteleft'
p6
sS'lib'
p7
(dp8
sS'unicodes'
p9
(tsS'width'
p10
I1240
sS'contours'
p11
(tsS'components'
p12
(tsS'anchors'
p13
(tsss."
LayerCount: 2
Fore
SplineSet
633 774 m 0
 573 774 521 815 521 895 c 0
 521 1011 624 1144 706 1185 c 0
 709 1187 713 1187 716 1187 c 0
 730 1187 744 1174 744 1160 c 0
 744 1153 740 1145 732 1139 c 0
 689 1108 623 1024 623 962 c 1
 682 962 731 934 731 869 c 0
 731 805 680 774 633 774 c 0
EndSplineSet
EndChar

StartChar: quoteright
Encoding: 387 8217 288
Width: 1240
VWidth: 0
Flags: HMW
PickledData: "(dp1
S'com.typemytype.robofont.layerData'
p2
(dp3
S'b'
(dp4
S'name'
p5
S'quoteright'
p6
sS'lib'
p7
(dp8
sS'unicodes'
p9
(tsS'width'
p10
I1240
sS'contours'
p11
(tsS'components'
p12
(tsS'anchors'
p13
(tsss."
LayerCount: 2
Fore
SplineSet
649 1187 m 0
 709 1187 761 1146 761 1066 c 0
 761 950 658 817 576 776 c 0
 573 774 569 774 566 774 c 0
 552 774 538 787 538 801 c 0
 538 808 542 816 550 822 c 0
 593 853 659 937 659 999 c 1
 600 999 551 1027 551 1092 c 0
 551 1156 602 1187 649 1187 c 0
EndSplineSet
EndChar

StartChar: quotesinglbase
Encoding: 388 8218 289
Width: 1240
VWidth: 0
Flags: HMW
PickledData: "(dp1
S'com.typemytype.robofont.layerData'
p2
(dp3
S'b'
(dp4
S'name'
p5
S'quotesinglbase'
p6
sS'lib'
p7
(dp8
sS'unicodes'
p9
(tsS'width'
p10
I1240
sS'contours'
p11
(tsS'components'
p12
(tsS'anchors'
p13
(tsss."
LayerCount: 2
Fore
SplineSet
616 180 m 0
 676 180 728 139 728 59 c 0
 728 -57 625 -167 543 -208 c 0
 540 -210 536 -210 533 -210 c 0
 519 -210 505 -197 505 -183 c 0
 505 -176 509 -168 517 -162 c 0
 560 -131 626 -70 626 -8 c 1
 567 -8 518 20 518 85 c 0
 518 149 569 180 616 180 c 0
EndSplineSet
EndChar

StartChar: quotesingle
Encoding: 7 39 290
Width: 1240
VWidth: 0
Flags: HMW
PickledData: "(dp1
S'com.typemytype.robofont.layerData'
p2
(dp3
S'b'
(dp4
S'name'
p5
S'quotesingle'
p6
sS'lib'
p7
(dp8
sS'unicodes'
p9
(tsS'width'
p10
F1241.4817191699999
sS'contours'
p11
(tsS'components'
p12
(tsS'anchors'
p13
(tsss."
LayerCount: 2
Fore
SplineSet
644 721 m 2
 643 707 632 701 620 701 c 0
 608 701 596 707 595 721 c 2
 563 1117 l 2
 560 1154 590 1172 620 1172 c 0
 649 1172 678 1155 678 1122 c 0
 678 1120 678 1118 678 1116 c 2
 644 721 l 2
EndSplineSet
EndChar

StartChar: r
Encoding: 82 114 291
Width: 1240
VWidth: 0
Flags: HMW
PickledData: "(dp1
S'com.typemytype.robofont.layerData'
p2
(dp3
S'b'
(dp4
S'name'
p5
S'r'
sS'lib'
p6
(dp7
sS'unicodes'
p8
(tsS'width'
p9
I1240
sS'contours'
p10
(tsS'components'
p11
(tsS'anchors'
p12
(tsss."
LayerCount: 2
Fore
SplineSet
920 731 m 1
 749 731 595 664 540 526 c 1
 540 82 l 1
 876 82 l 2
 903 82 916 62 916 41 c 0
 916 21 902 0 875 0 c 2
 265 0 l 2
 234 0 219 21 219 42 c 0
 219 62 233 82 261 82 c 2
 444 82 l 1
 444 709 l 1
 322 684 l 2
 318 683 314 683 310 683 c 0
 283 683 270 703 270 723 c 0
 270 740 280 757 300 761 c 2
 471 795 l 2
 480 797 488 798 494 798 c 0
 526 798 531 775 532 742 c 2
 536 638 l 1
 607 747 732 813 928 813 c 0
 994 813 1016 791 1016 753 c 2
 1016 615 l 2
 1016 577 992 559 967 559 c 0
 944 559 920 576 920 611 c 2
 920 731 l 1
EndSplineSet
EndChar

StartChar: registered
Encoding: 109 174 295
Width: 1240
VWidth: 0
Flags: HMW
PickledData: "(dp1
S'com.typemytype.robofont.layerData'
p2
(dp3
S'b'
(dp4
S'name'
p5
S'registered'
p6
sS'lib'
p7
(dp8
sS'unicodes'
p9
(tsS'width'
p10
I1241
sS'contours'
p11
(tsS'components'
p12
(tsS'anchors'
p13
(tsss."
LayerCount: 2
Fore
SplineSet
633 273 m 0
 633 261 624 245 605 245 c 2
 380 245 l 2
 361 245 351 261 351 273 c 0
 351 286 361 301 379 301 c 2
 443 301 l 1
 443 878 l 1
 395 878 l 2
 376 878 367 894 367 907 c 0
 367 920 376 937 396 937 c 2
 578 937 l 2
 741 937 851 909 851 749 c 0
 851 658 795 609 737 587 c 1
 841 301 l 1
 878 301 l 2
 907 301 915 286 915 274 c 0
 915 261 906 245 879 245 c 2
 732 245 l 2
 712 245 703 261 703 274 c 0
 703 286 712 301 730 301 c 2
 759 301 l 1
 671 574 l 1
 664 571 588 565 561 565 c 2
 514 565 l 1
 514 301 l 1
 605 301 l 2
 624 301 633 286 633 273 c 0
514 623 m 1
 573 624 l 2
 668 626 779 627 779 745 c 0
 779 865 700 878 564 878 c 2
 514 878 l 1
 514 623 l 1
128 583 m 0
 128 265 296 83 620 83 c 0
 944 83 1113 265 1113 583 c 0
 1113 902 943 1089 620 1089 c 0
 297 1089 128 900 128 583 c 0
1193 581 m 0
 1193 218 981 13 620 13 c 0
 259 13 48 218 48 581 c 0
 48 944 258 1158 620 1158 c 0
 982 1158 1193 944 1193 581 c 0
EndSplineSet
EndChar

StartChar: ring
Encoding: 356 730 296
Width: 1240
VWidth: 0
Flags: HMW
PickledData: "(dp1
S'com.typemytype.robofont.layerData'
p2
(dp3
S'b'
(dp4
S'name'
p5
S'ring'
p6
sS'lib'
p7
(dp8
sS'unicodes'
p9
(tsS'width'
p10
I1240
sS'contours'
p11
(tsS'components'
p12
(tsS'anchors'
p13
(tsss."
LayerCount: 2
Fore
SplineSet
704 1074 m 0
 768 1074 798 1122 798 1178 c 0
 798 1234 766 1283 701 1283 c 0
 635 1283 604 1234 604 1178 c 0
 604 1123 641 1074 704 1074 c 0
702 1349 m 0
 815 1349 871 1265 871 1180 c 0
 871 1095 812 1009 699 1009 c 0
 586 1009 528 1093 528 1177 c 0
 528 1263 588 1349 702 1349 c 0
EndSplineSet
EndChar

StartChar: s
Encoding: 83 115 297
Width: 1240
VWidth: 0
Flags: HMW
PickledData: "(dp1
S'com.typemytype.robofont.layerData'
p2
(dp3
S'b'
(dp4
S'name'
p5
S's'
sS'lib'
p6
(dp7
sS'unicodes'
p8
(tsS'width'
p9
I1240
sS'contours'
p10
(tsS'components'
p11
(tsS'anchors'
p12
(tsss."
LayerCount: 2
Fore
SplineSet
609 813 m 4
 724 813 847 774 888 721 c 5
 888 758 l 5
 887 791 909 808 930 808 c 4
 951 808 971 792 971 759 c 6
 969 558 l 5
 966 534 956 521 929 521 c 4
 894 521 890 549 889 606 c 5
 852 694 740 731 602 731 c 4
 485 731 390 701 390 601 c 4
 390 544 417 504 517 482 c 5
 776 430 l 6
 892 407 978 355 978 208 c 4
 978 53 841 -17 652 -17 c 4
 537 -17 420 13 342 102 c 5
 342 42 l 6
 342 12 324 0 306 -0 c 4
 286 0 266 15 266 39 c 6
 268 265 l 6
 268 302 287 317 304 317 c 4
 322 317 340 312 340 265 c 4
 340 151 474 65 646 65 c 4
 795 65 881 110 881 209 c 4
 881 273 853 318 763 335 c 6
 497 387 l 6
 371 411 287 468 287 586 c 4
 287 765 453 813 609 813 c 4
EndSplineSet
EndChar

StartChar: section
Encoding: 102 167 303
Width: 1240
VWidth: 0
Flags: HMW
PickledData: "(dp1
S'com.typemytype.robofont.layerData'
p2
(dp3
S'b'
(dp4
S'name'
p5
S'section'
p6
sS'lib'
p7
(dp8
sS'unicodes'
p9
(tsS'width'
p10
I1240
sS'contours'
p11
(tsS'components'
p12
(tsS'anchors'
p13
(tsss."
LayerCount: 2
Fore
SplineSet
536 782 m 1
 510 761 498 722 498 690 c 0
 498 665 506 638 520 613 c 0
 566 531 637 464 698 391 c 1
 723 411 736 451 736 484 c 0
 736 509 728 534 713 560 c 0
 667 642 597 707 536 782 c 1
428 1005 m 0
 428 1113 513 1190 627 1190 c 0
 725 1190 840 1133 840 1041 c 0
 840 1017 823 1002 800 1002 c 0
 777 1002 759 1015 753 1033 c 0
 734 1083 692 1117 631 1117 c 0
 572 1117 521 1078 521 1020 c 0
 521 992 529 964 544 939 c 0
 595 851 682 785 746 707 c 1
 784 659 825 601 825 522 c 0
 825 447 793 374 734 346 c 1
 766 300 804 238 804 168 c 0
 804 58 721 -17 607 -17 c 0
 509 -17 394 39 394 131 c 0
 394 155 411 171 435 171 c 0
 457 171 474 159 481 140 c 0
 500 90 540 56 601 56 c 0
 661 56 712 95 712 152 c 0
 712 181 705 208 690 234 c 0
 638 322 551 387 488 465 c 0
 449 513 408 572 408 651 c 0
 408 726 440 799 500 827 c 1
 466 873 428 933 428 1005 c 0
EndSplineSet
EndChar

StartChar: semicolon
Encoding: 27 59 304
Width: 1240
VWidth: 0
Flags: HMW
PickledData: "(dp1
S'com.typemytype.robofont.layerData'
p2
(dp3
S'b'
(dp4
S'name'
p5
S'semicolon'
p6
sS'lib'
p7
(dp8
sS'unicodes'
p9
(tsS'width'
p10
I1240
sS'contours'
p11
(tsS'components'
p12
(tsS'anchors'
p13
(tsss."
LayerCount: 2
Fore
SplineSet
644 600 m 0
 583 600 539 644 539 705 c 0
 539 766 584 811 644 811 c 0
 704 811 750 765 750 705 c 0
 750 644 704 600 644 600 c 0
644 180 m 0
 704 180 756 139 756 59 c 0
 756 -57 688 -130 606 -172 c 0
 597 -177 589 -178 581 -178 c 0
 558 -178 540 -160 540 -142 c 0
 540 -132 546 -120 557 -112 c 0
 599 -84 654 -49 654 13 c 1
 595 13 551 40 551 96 c 0
 551 152 597 180 644 180 c 0
EndSplineSet
EndChar

StartChar: seven
Encoding: 23 55 305
Width: 1240
VWidth: 0
Flags: HMW
PickledData: "(dp1
S'com.typemytype.robofont.layerData'
p2
(dp3
S'b'
(dp4
S'name'
p5
S'seven'
p6
sS'lib'
p7
(dp8
sS'unicodes'
p9
(tsS'width'
p10
I1240
sS'contours'
p11
(tsS'components'
p12
(tsS'anchors'
p13
(tsss."
LayerCount: 2
Fore
SplineSet
569 47 m 0
 569 475 713 796 864 1085 c 1
 370 1085 l 1
 370 916 l 2
 370 881 345 863 321 863 c 0
 297 863 274 880 274 916 c 2
 274 1117 l 2
 274 1151 297 1171 330 1171 c 2
 928 1171 l 2
 953 1171 971 1141 971 1111 c 0
 971 1101 969 1090 964 1081 c 0
 798 761 665 474 665 46 c 0
 665 10 642 -7 619 -7 c 0
 594 -7 569 12 569 47 c 0
EndSplineSet
EndChar

StartChar: six
Encoding: 22 54 306
Width: 1240
VWidth: 0
Flags: HMW
PickledData: "(dp1
S'com.typemytype.robofont.layerData'
p2
(dp3
S'b'
(dp4
S'name'
p5
S'six'
p6
sS'lib'
p7
(dp8
sS'unicodes'
p9
(tsS'width'
p10
I1240
sS'contours'
p11
(tsS'components'
p12
(tsS'anchors'
p13
(tsss."
LayerCount: 2
Fore
SplineSet
648 65 m 0
 831 65 931 199 931 354 c 0
 931 510 855 659 671 659 c 0
 472 659 353 519 353 364 c 0
 353 207 437 65 648 65 c 0
1027 357 m 0
 1027 129 874 -17 648 -17 c 0
 381 -17 257 160 257 426 c 0
 257 806 450 1052 659 1241 c 0
 668 1249 678 1253 687 1253 c 0
 711 1253 733 1229 733 1207 c 0
 733 1198 729 1190 721 1183 c 0
 566 1054 397 844 361 591 c 1
 438 694 559 741 668 741 c 0
 893 741 1027 583 1027 357 c 0
EndSplineSet
EndChar

StartChar: slash
Encoding: 15 47 307
Width: 1240
VWidth: 0
Flags: HMW
PickledData: "(dp1
S'com.typemytype.robofont.layerData'
p2
(dp3
S'b'
(dp4
S'name'
p5
S'slash'
p6
sS'lib'
p7
(dp8
sS'unicodes'
p9
(tsS'width'
p10
I1240
sS'contours'
p11
(tsS'components'
p12
(tsS'anchors'
p13
(tsss."
LayerCount: 2
Fore
SplineSet
247 -178 m 2
 914 1152 l 2
 921 1166 936 1173 951 1173 c 0
 974 1173 997 1158 997 1134 c 0
 997 1128 995 1121 991 1113 c 2
 327 -213 l 2
 318 -230 304 -237 290 -237 c 0
 267 -237 243 -219 243 -195 c 0
 243 -189 244 -184 247 -178 c 2
EndSplineSet
EndChar

StartChar: sterling
Encoding: 98 163 309
Width: 1240
VWidth: 0
Flags: HMW
PickledData: "(dp1
S'com.typemytype.robofont.layerData'
p2
(dp3
S'b'
(dp4
S'name'
p5
S'sterling'
p6
sS'lib'
p7
(dp8
sS'unicodes'
p9
(tsS'width'
p10
I1240
sS'contours'
p11
(tsS'components'
p12
(tsS'anchors'
p13
(tsss."
LayerCount: 2
Fore
SplineSet
404 48 m 0
 439 48 483 67 531 116 c 1
 474 171 429 191 396 191 c 0
 354 191 331 159 329 128 c 1
 329 122 l 2
 329 81 358 48 404 48 c 0
250 130 m 0
 250 199 310 251 390 251 c 0
 446 251 512 225 574 161 c 1
 582 176 586 199 586 229 c 0
 586 335 537 515 456 618 c 1
 287 618 l 2
 271 618 262 638 262 658 c 0
 262 677 269 695 285 695 c 2
 427 695 l 1
 398 764 353 824 353 921 c 0
 353 1079 491 1184 649 1184 c 0
 767 1184 855 1171 911 1104 c 0
 926 1086 933 1079 933 1053 c 0
 933 1007 893 977 849 977 c 0
 798 977 800 1121 651 1121 c 0
 558 1121 458 1062 458 923 c 0
 458 840 491 762 522 695 c 1
 757 695 l 2
 773 695 781 676 781 657 c 0
 781 638 772 618 756 618 c 2
 551 618 l 1
 569 567 674 420 674 263 c 0
 674 218 666 172 644 128 c 1
 720 67 784 53 872 53 c 0
 898 53 934 139 995 139 c 0
 1022 139 1047 110 1047 82 c 0
 1047 -10 941 -17 848 -17 c 0
 735 -17 678 12 587 72 c 1
 523 11 454 -16 395 -16 c 0
 313 -16 250 39 250 130 c 0
EndSplineSet
EndChar

StartChar: t
Encoding: 84 116 310
Width: 1240
VWidth: 0
Flags: HMW
PickledData: "(dp1
S'com.typemytype.robofont.layerData'
p2
(dp3
S'b'
(dp4
S'name'
p5
S't'
sS'lib'
p6
(dp7
sS'unicodes'
p8
(tsS'width'
p9
I1240
sS'contours'
p10
(tsS'components'
p11
(tsS'anchors'
p12
(tsss."
LayerCount: 2
Fore
SplineSet
505 204 m 2
 505 102 583 65 677 65 c 0
 772 65 884 103 946 150 c 0
 949 153 953 154 957 154 c 0
 976 154 999 125 999 103 c 0
 999 97 997 92 994 88 c 0
 953 39 807 -17 667 -17 c 0
 529 -17 409 69 409 169 c 2
 409 692 l 1
 266 692 l 2
 235 692 220 714 220 735 c 0
 220 755 234 774 262 774 c 2
 409 774 l 1
 409 988 410 1058 469 1058 c 0
 502 1058 505 1037 505 1013 c 2
 505 774 l 1
 877 774 l 2
 903 774 916 753 916 733 c 0
 916 712 903 692 876 692 c 2
 505 692 l 1
 505 204 l 2
EndSplineSet
EndChar

StartChar: thorn
Encoding: 187 254 312
Width: 1240
VWidth: 0
Flags: HMW
PickledData: "(dp1
S'com.typemytype.robofont.layerData'
p2
(dp3
S'b'
(dp4
S'name'
p5
S'thorn'
p6
sS'lib'
p7
(dp8
sS'unicodes'
p9
(tsS'width'
p10
I1240
sS'contours'
p11
(tsS'components'
p12
(tsS'anchors'
p13
(tsss."
LayerCount: 2
Fore
SplineSet
409 1150 m 2
 409 690 l 1
 473 755 570 813 697 813 c 0
 932 813 1071 640 1071 398 c 0
 1071 160 927 -17 693 -17 c 0
 564 -17 483 25 409 89 c 1
 409 -288 l 1
 625 -288 l 2
 653 -288 667 -307 667 -327 c 0
 667 -348 652 -370 621 -370 c 2
 225 -370 l 2
 197 -370 183 -349 183 -328 c 0
 183 -308 196 -288 223 -288 c 2
 313 -288 l 1
 313 1082 l 1
 144 1058 l 2
 140 1058 138 1057 136 1057 c 0
 109 1057 96 1078 96 1099 c 0
 96 1118 106 1136 128 1139 c 2
 362 1181 l 2
 364 1181 368 1182 373 1182 c 0
 394 1182 409 1170 409 1150 c 2
975 398 m 0
 975 577 881 731 695 731 c 0
 560 731 467 669 409 586 c 1
 409 194 l 1
 472 115 560 65 687 65 c 0
 878 65 975 221 975 398 c 0
EndSplineSet
EndChar

StartChar: three
Encoding: 19 51 313
Width: 1240
VWidth: 0
Flags: HMW
PickledData: "(dp1
S'com.typemytype.robofont.layerData'
p2
(dp3
S'b'
(dp4
S'name'
p5
S'three'
p6
sS'lib'
p7
(dp8
sS'unicodes'
p9
(tsS'width'
p10
I1240
sS'contours'
p11
(tsS'components'
p12
(tsS'anchors'
p13
(tsss."
LayerCount: 2
Fore
SplineSet
503 601 m 0
 480 601 465 613 465 638 c 0
 465 650 474 666 496 679 c 0
 655 777 787 834 787 959 c 0
 787 1032 735 1102 613 1102 c 0
 390 1102 450 1004 348 1004 c 0
 321 1004 307 1022 307 1037 c 0
 307 1133 512 1187 615 1187 c 0
 765 1187 883 1104 883 959 c 0
 883 799 697 710 625 675 c 1
 835 675 950 544 950 360 c 0
 950 139 771 -17 544 -17 c 0
 408 -17 263 46 263 108 c 0
 263 119 278 141 301 141 c 0
 388 141 378 69 547 69 c 0
 736 69 854 195 854 366 c 0
 854 517 755 609 602 609 c 0
 573 609 515 601 503 601 c 0
EndSplineSet
EndChar

StartChar: threequarters
Encoding: 123 190 314
Width: 1240
VWidth: 0
Flags: HMW
PickledData: "(dp1
S'com.typemytype.robofont.layerData'
p2
(dp3
S'b'
(dp4
S'name'
p5
S'threequarters'
p6
sS'lib'
p7
(dp8
sS'unicodes'
p9
(tsS'width'
p10
I1240
sS'contours'
p11
(tsS'components'
p12
(tsS'anchors'
p13
(tsss."
LayerCount: 2
Fore
SplineSet
810 1 m 2
 792 1 783 16 783 32 c 0
 783 47 792 63 809 63 c 2
 985 63 l 1
 985 245 l 1
 714 245 l 2
 699 245 684 261 684 279 c 0
 684 286 687 293 692 301 c 2
 1001 794 l 2
 1003 798 1016 804 1029 804 c 0
 1044 804 1060 795 1060 762 c 2
 1060 301 l 1
 1179 301 l 2
 1197 301 1206 287 1206 273 c 0
 1206 259 1196 245 1177 245 c 2
 1060 245 l 1
 1060 63 l 1
 1184 63 l 2
 1203 63 1212 48 1212 33 c 0
 1212 17 1202 1 1183 1 c 2
 810 1 l 2
985 667 m 1
 767 301 l 1
 985 301 l 1
 985 667 l 1
341 79 m 2
 953 1099 l 2
 959 1110 969 1115 980 1115 c 0
 997 1115 1015 1104 1015 1086 c 0
 1015 1081 1014 1076 1011 1070 c 2
 401 52 l 2
 393 39 384 34 373 34 c 0
 355 34 338 47 338 65 c 0
 338 69 338 74 341 79 c 2
180 725 m 0
 163 725 152 735 152 753 c 0
 152 763 159 774 174 783 c 0
 281 849 368 886 368 967 c 0
 368 1014 335 1059 254 1059 c 0
 105 1059 149 994 76 994 c 0
 56 994 46 1007 46 1019 c 0
 46 1087 187 1122 256 1122 c 0
 358 1122 439 1066 439 967 c 0
 439 866 328 806 275 780 c 1
 410 775 484 688 484 568 c 0
 484 419 362 313 208 313 c 0
 117 313 16 355 16 400 c 0
 16 409 28 425 45 425 c 0
 106 425 97 377 210 377 c 0
 336 377 413 460 413 572 c 0
 413 671 349 731 247 731 c 0
 228 731 189 725 180 725 c 0
EndSplineSet
EndChar

StartChar: tilde
Encoding: 358 732 315
Width: 1240
VWidth: 0
Flags: HMW
PickledData: "(dp1
S'com.typemytype.robofont.layerData'
p2
(dp3
S'b'
(dp4
S'name'
p5
S'tilde'
p6
sS'lib'
p7
(dp8
sS'unicodes'
p9
(tsS'width'
p10
I1240
sS'contours'
p11
(tsS'components'
p12
(tsS'anchors'
p13
(tsss."
LayerCount: 2
Fore
SplineSet
533 1155 m 0
 538 1155 543 1154 549 1153 c 0
 619 1140 739 1056 781 1056 c 0
 812 1056 828 1099 846 1132 c 0
 849 1138 856 1140 863 1140 c 0
 884 1140 915 1121 911 1102 c 1
 891 1050 853 977 785 977 c 0
 777 977 767 979 758 981 c 0
 680 1001 597 1062 544 1074 c 0
 541 1075 538 1075 535 1075 c 0
 509 1075 490 1049 472 1007 c 0
 468 999 460 995 450 995 c 0
 432 995 409 1007 409 1023 c 0
 409 1081 472 1155 533 1155 c 0
EndSplineSet
EndChar

StartChar: trademark
Encoding: 401 8482 316
Width: 1240
VWidth: 0
Flags: HMW
PickledData: "(dp1
S'com.typemytype.robofont.layerData'
p2
(dp3
S'b'
(dp4
S'name'
p5
S'trademark'
p6
sS'lib'
p7
(dp8
sS'unicodes'
p9
(tsS'width'
p10
I1240
sS'contours'
p11
(tsS'components'
p12
(tsS'anchors'
p13
(tsss."
LayerCount: 2
Fore
SplineSet
893 618 m 0
 893 639 900 656 919 656 c 2
 970 656 l 1
 970 999 l 1
 848 748 l 1
 844 734 831 721 813 721 c 0
 799 721 784 732 780 745 c 2
 667 1005 l 1
 667 656 l 1
 716 656 l 2
 735 656 743 639 743 618 c 0
 743 599 733 582 715 582 c 2
 532 582 l 2
 515 582 505 599 505 618 c 0
 505 639 512 656 531 656 c 2
 594 656 l 1
 594 1099 l 1
 551 1099 l 2
 532 1099 523 1116 523 1138 c 0
 523 1156 533 1173 551 1173 c 2
 646 1173 l 2
 660 1173 667 1163 671 1152 c 2
 813 850 l 1
 966 1155 l 1
 973 1165 978 1173 991 1173 c 2
 1083 1173 l 2
 1101 1173 1110 1156 1110 1138 c 0
 1110 1116 1102 1099 1083 1099 c 2
 1042 1099 l 1
 1042 656 l 1
 1104 656 l 2
 1123 656 1130 639 1130 618 c 0
 1130 599 1121 582 1103 582 c 2
 920 582 l 2
 903 582 893 599 893 618 c 0
102 937 m 0
 85 937 64 951 64 971 c 2
 70 1141 l 2
 71 1163 76 1173 92 1173 c 2
 440 1173 l 2
 456 1173 463 1162 464 1141 c 2
 469 971 l 2
 469 951 447 937 431 937 c 0
 413 937 403 945 401 965 c 2
 389 1098 l 1
 307 1098 l 1
 307 656 l 1
 367 656 l 2
 386 656 393 639 393 618 c 0
 393 599 384 582 366 582 c 2
 163 582 l 2
 145 582 136 599 136 618 c 0
 136 639 144 656 163 656 c 2
 226 656 l 1
 226 1098 l 1
 143 1098 l 1
 133 965 l 2
 131 945 119 937 102 937 c 0
EndSplineSet
EndChar

StartChar: two
Encoding: 18 50 317
Width: 1240
VWidth: 0
Flags: HMW
PickledData: "(dp1
S'com.typemytype.robofont.layerData'
p2
(dp3
S'b'
(dp4
S'name'
p5
S'two'
p6
sS'lib'
p7
(dp8
sS'unicodes'
p9
(tsS'width'
p10
I1240
sS'contours'
p11
(tsS'components'
p12
(tsS'anchors'
p13
(tsss."
LayerCount: 2
Fore
SplineSet
612 1187 m 0
 808 1187 945 1101 945 914 c 0
 945 611 471 376 367 82 c 1
 863 82 l 1
 875 264 l 2
 877 292 903 309 927 309 c 0
 950 309 971 294 971 258 c 2
 971 50 l 2
 971 19 948 0 917 0 c 2
 279 0 l 1
 276 12 272 22 272 37 c 0
 272 340 849 641 849 907 c 0
 849 1056 755 1101 597 1101 c 0
 530 1101 461 1090 390 1055 c 1
 375 933 372 858 324 858 c 0
 283 858 264 893 264 938 c 0
 264 1118 405 1187 612 1187 c 0
EndSplineSet
EndChar

StartChar: u
Encoding: 85 117 318
Width: 1240
VWidth: 0
Flags: HMW
PickledData: "(dp1
S'com.typemytype.robofont.layerData'
p2
(dp3
S'b'
(dp4
S'name'
p5
S'u'
sS'lib'
p6
(dp7
sS'unicodes'
p8
(tsS'width'
p9
I1240
sS'contours'
p10
(tsS'components'
p11
(tsS'anchors'
p12
(tsss."
LayerCount: 2
Fore
SplineSet
562 65 m 0
 680 65 821 137 866 231 c 1
 866 706 l 1
 769 686 l 2
 763 684 757 683 751 683 c 0
 722 683 704 705 704 726 c 0
 704 743 716 760 742 765 c 2
 916 800 l 2
 920 801 924 802 928 802 c 0
 948 802 962 787 962 768 c 2
 962 85 l 1
 1110 96 l 1
 1116 96 l 2
 1144 96 1156 79 1156 61 c 0
 1156 42 1143 22 1118 17 c 1
 932 -3 l 1
 925 -3 l 2
 899 -3 880 13 878 47 c 2
 873 134 l 1
 816 49 689 -17 561 -17 c 0
 377 -17 270 97 270 262 c 2
 270 706 l 1
 172 686 l 2
 166 684 160 684 155 684 c 0
 127 684 109 706 109 727 c 0
 109 744 120 760 145 765 c 2
 320 800 l 2
 324 801 328 802 332 802 c 0
 352 802 366 787 366 768 c 2
 366 259 l 2
 366 148 428 65 562 65 c 0
EndSplineSet
EndChar

StartChar: underscore
Encoding: 63 95 326
Width: 1240
VWidth: 0
Flags: HMW
PickledData: "(dp1
S'com.typemytype.robofont.layerData'
p2
(dp3
S'b'
(dp4
S'name'
p5
S'underscore'
p6
sS'lib'
p7
(dp8
sS'unicodes'
p9
(tsS'width'
p10
I1241
sS'contours'
p11
(tsS'components'
p12
(tsS'anchors'
p13
(tsss."
LayerCount: 2
Fore
SplineSet
1000 91 m 2
 1030 91 1045 68 1045 46 c 0
 1045 23 1030 0 1000 0 c 2
 241 0 l 2
 211 0 196 23 196 46 c 0
 196 68 211 91 241 91 c 2
 1000 91 l 2
EndSplineSet
EndChar

StartChar: uni00AD
Encoding: 108 173 334
Width: 1240
VWidth: 0
Flags: HMW
PickledData: "(dp1
S'com.typemytype.robofont.layerData'
p2
(dp3
S'b'
(dp4
S'name'
p5
S'uni00AD'
p6
sS'lib'
p7
(dp8
sS'unicodes'
p9
(tsS'width'
p10
I1240
sS'contours'
p11
(tsS'components'
p12
(tsS'anchors'
p13
(tsss."
LayerCount: 2
Fore
SplineSet
895 533 m 2
 925 533 940 512 940 490 c 0
 940 469 925 447 895 447 c 2
 345 447 l 2
 315 447 300 469 300 490 c 0
 300 512 315 533 345 533 c 2
 895 533 l 2
EndSplineSet
EndChar

StartChar: uni00B2
Encoding: 113 178 335
Width: 1240
VWidth: 0
Flags: HMW
PickledData: "(dp1
S'com.typemytype.robofont.layerData'
p2
(dp3
S'b'
(dp4
S'name'
p5
S'uni00B2'
p6
sS'lib'
p7
(dp8
sS'unicodes'
p9
(tsS'width'
p10
I1240
sS'contours'
p11
(tsS'components'
p12
(tsS'anchors'
p13
(tsss."
LayerCount: 2
Fore
SplineSet
821 1007 m 4
 821 802 538 724 491 520 c 5
 772 520 l 5
 779 624 l 6
 780 646 795 659 810 659 c 4
 824 659 837 648 837 619 c 6
 837 495 l 6
 837 470 824 455 805 455 c 6
 423 455 l 5
 421 464 419 472 419 484 c 4
 419 723 750 840 750 1001 c 4
 750 1088 688 1133 609 1133 c 4
 571 1133 529 1123 489 1101 c 5
 480 1005 479 962 450 962 c 4
 425 962 414 989 414 1025 c 4
 414 1134 508 1187 606 1187 c 4
 711 1187 821 1126 821 1007 c 4
EndSplineSet
EndChar

StartChar: uni00B3
Encoding: 114 179 336
Width: 1240
VWidth: 0
Flags: HMW
PickledData: "(dp1
S'com.typemytype.robofont.layerData'
p2
(dp3
S'b'
(dp4
S'name'
p5
S'uni00B3'
p6
sS'lib'
p7
(dp8
sS'unicodes'
p9
(tsS'width'
p10
I1240
sS'contours'
p11
(tsS'components'
p12
(tsS'anchors'
p13
(tsss."
LayerCount: 2
Fore
SplineSet
564 790 m 4
 547 790 536 800 536 818 c 4
 536 828 543 839 558 848 c 4
 665 914 753 951 753 1032 c 4
 753 1079 719 1124 638 1124 c 4
 489 1124 532 1059 460 1059 c 4
 440 1059 430 1072 430 1084 c 4
 430 1152 571 1187 640 1187 c 4
 742 1187 823 1131 823 1032 c 4
 823 931 712 871 659 845 c 5
 794 840 868 753 868 633 c 4
 868 484 746 378 592 378 c 4
 501 378 400 420 400 465 c 4
 400 474 412 490 429 490 c 4
 490 490 481 442 594 442 c 4
 720 442 798 525 798 637 c 4
 798 736 733 796 631 796 c 4
 612 796 573 790 564 790 c 4
EndSplineSet
EndChar

StartChar: uni00B5
Encoding: 417 181 337
Width: 1240
VWidth: 0
Flags: HMW
PickledData: "(dp1
S'com.typemytype.robofont.layerData'
p2
(dp3
S'b'
(dp4
S'name'
p5
S'uni00B5'
p6
sS'lib'
p7
(dp8
sS'unicodes'
p9
(tsS'width'
p10
I1240
sS'contours'
p11
(tsS'components'
p12
(tsS'anchors'
p13
(tsss."
LayerCount: 2
Fore
SplineSet
562 65 m 0
 680 65 821 137 866 231 c 1
 866 706 l 1
 769 686 l 2
 763 684 757 683 751 683 c 0
 722 683 704 705 704 726 c 0
 704 743 716 760 742 765 c 2
 916 800 l 2
 920 801 924 802 928 802 c 0
 948 802 962 787 962 768 c 2
 962 85 l 1
 1110 96 l 1
 1116 96 l 2
 1144 96 1156 79 1156 61 c 0
 1156 42 1143 22 1118 17 c 1
 932 -3 l 1
 925 -3 l 2
 899 -3 880 13 878 47 c 2
 873 134 l 1
 816 49 689 -17 561 -17 c 0
 463 -17 387 16 337 71 c 1
 354 -52 377 -213 385 -257 c 0
 386 -265 387 -272 387 -278 c 0
 387 -325 355 -343 327 -343 c 0
 291 -343 270 -310 270 -256 c 2
 270 706 l 1
 172 686 l 2
 166 684 160 684 155 684 c 0
 127 684 109 706 109 727 c 0
 109 744 120 760 145 765 c 2
 320 800 l 2
 324 801 328 802 332 802 c 0
 352 802 366 787 366 768 c 2
 366 259 l 2
 366 148 428 65 562 65 c 0
EndSplineSet
EndChar

StartChar: uni00B9
Encoding: 118 185 338
Width: 1240
VWidth: 0
Flags: HMW
PickledData: "(dp1
S'com.typemytype.robofont.layerData'
p2
(dp3
S'b'
(dp4
S'name'
p5
S'uni00B9'
p6
sS'lib'
p7
(dp8
sS'unicodes'
p9
(tsS'width'
p10
I1240
sS'contours'
p11
(tsS'components'
p12
(tsS'anchors'
p13
(tsss."
LayerCount: 2
Fore
SplineSet
658 1140 m 2
 658 455 l 1
 764 455 l 2
 783 455 792 439 792 425 c 0
 792 410 782 396 763 396 c 2
 468 396 l 2
 446 396 434 411 434 426 c 0
 434 440 445 455 465 455 c 2
 589 455 l 1
 589 1096 l 1
 465 1041 l 2
 461 1039 457 1038 453 1038 c 0
 436 1038 424 1054 424 1070 c 0
 424 1080 429 1090 441 1095 c 2
 614 1171 l 2
 618 1173 623 1174 628 1174 c 0
 643 1174 658 1165 658 1140 c 2
EndSplineSet
EndChar

StartChar: uni01C4
Encoding: 309 452 339
Width: 1240
VWidth: 0
Flags: HMW
PickledData: "(dp1
S'com.typemytype.robofont.layerData'
p2
(dp3
S'b'
(dp4
S'name'
p5
S'uni01C4'
p6
sS'lib'
p7
(dp8
sS'unicodes'
p9
(tsS'width'
p10
I1240
sS'contours'
p11
(tsS'components'
p12
(tsS'anchors'
p13
(tsss."
LayerCount: 2
Fore
SplineSet
235 86 m 1
 496 86 553 256 553 591 c 0
 553 907 488 1085 235 1085 c 1
 235 86 l 1
1111 0 m 2
 739 0 l 2
 715 0 704 14 704 39 c 0
 704 54 708 73 715 95 c 2
 1038 1085 l 1
 818 1085 l 1
 818 857 l 2
 818 830 795 817 773 817 c 0
 748 817 732 834 732 866 c 2
 732 1116 l 1
 733 1144 739 1171 790 1171 c 2
 1090 1171 l 2
 1125 1171 1132 1137 1132 1111 c 0
 1132 1097 1130 1085 1129 1081 c 2
 811 86 l 1
 1070 86 l 1
 1070 314 l 1
 1072 346 1093 363 1116 363 c 0
 1137 363 1162 350 1162 315 c 2
 1162 53 l 1
 1163 19 1140 0 1111 0 c 2
228 0 m 2
 115 0 l 2
 81 0 64 21 64 43 c 0
 64 64 81 86 114 86 c 2
 139 86 l 1
 139 1085 l 1
 118 1085 l 2
 86 1085 70 1106 70 1127 c 0
 70 1149 87 1171 120 1171 c 2
 230 1171 l 2
 525 1171 649 993 649 591 c 0
 649 168 519 0 228 0 c 2
985 1320 m 1
 980 1312 966 1309 953 1309 c 0
 940 1309 927 1312 922 1320 c 2
 758 1603 l 1
 753 1608 751 1615 751 1620 c 0
 751 1636 770 1650 788 1650 c 0
 796 1650 806 1649 811 1641 c 2
 953 1432 l 1
 1066 1641 l 2
 1071 1649 1081 1650 1089 1650 c 0
 1107 1650 1126 1636 1126 1620 c 0
 1126 1615 1124 1608 1119 1603 c 1
 985 1320 l 1
EndSplineSet
EndChar

StartChar: uni01C5
Encoding: 310 453 340
Width: 1240
VWidth: 0
Flags: HMW
PickledData: "(dp1
S'com.typemytype.robofont.layerData'
p2
(dp3
S'b'
(dp4
S'name'
p5
S'uni01C5'
p6
sS'lib'
p7
(dp8
sS'unicodes'
p9
(tsS'width'
p10
I2480
sS'contours'
p11
(tsS'components'
p12
(tsS'anchors'
p13
(tsss."
LayerCount: 2
Fore
SplineSet
1089 772 m 2
 1135 772 1150 750 1150 727 c 0
 1150 710 1138 695 1132 682 c 2
 860 82 l 1
 1065 82 l 1
 1076 259 l 2
 1077 283 1099 297 1120 297 c 0
 1141 297 1161 284 1161 255 c 2
 1161 46 l 2
 1161 21 1134 0 1110 0 c 2
 806 0 l 2
 768 0 750 24 750 59 c 0
 750 81 761 97 767 109 c 2
 1034 692 l 1
 831 692 l 1
 823 535 l 2
 822 505 802 490 781 490 c 0
 759 490 736 507 736 540 c 2
 736 726 l 2
 736 750 758 772 782 772 c 2
 1089 772 l 2
235 86 m 1
 496 86 553 256 553 591 c 0
 553 907 488 1085 235 1085 c 1
 235 86 l 1
228 0 m 2
 115 0 l 2
 81 0 64 21 64 43 c 0
 64 64 81 86 114 86 c 2
 139 86 l 1
 139 1085 l 1
 118 1085 l 2
 86 1085 70 1106 70 1127 c 0
 70 1149 87 1171 120 1171 c 2
 230 1171 l 2
 525 1171 649 993 649 591 c 0
 649 168 519 0 228 0 c 2
EndSplineSet
Refer: 153 711 S 1 0 0 1 258 -44 2
EndChar

StartChar: uni01C6
Encoding: 311 454 341
Width: 1240
VWidth: 0
Flags: HMW
PickledData: "(dp1
S'com.typemytype.robofont.layerData'
p2
(dp3
S'b'
(dp4
S'name'
p5
S'uni01C6'
p6
sS'lib'
p7
(dp8
sS'unicodes'
p9
(tsS'width'
p10
I2480
sS'contours'
p11
(tsS'components'
p12
(tsS'anchors'
p13
(tsss."
LayerCount: 2
Fore
SplineSet
497 47 m 2
 494 107 l 1
 441 22 373 -16 310 -16 c 0
 177 -16 63 153 63 398 c 0
 63 651 164 813 299 813 c 0
 358 813 426 782 485 714 c 1
 485 1091 l 1
 357 1083 l 2
 350 1082 343 1080 337 1080 c 0
 313 1080 298 1098 298 1118 c 0
 298 1134 307 1154 331 1159 c 1
 520 1178 l 2
 528 1179 534 1180 540 1180 c 0
 569 1180 581 1164 581 1141 c 2
 581 85 l 1
 637 91 l 1
 643 91 l 2
 671 91 683 74 683 56 c 0
 683 37 670 17 645 12 c 1
 551 -3 l 1
 544 -3 l 2
 518 -3 499 13 497 47 c 2
159 398 m 0
 159 186 226 60 318 60 c 0
 374 60 438 107 485 210 c 1
 485 619 l 1
 424 698 361 735 309 735 c 0
 213 735 159 610 159 398 c 0
1089 772 m 2
 1135 772 1150 750 1150 727 c 0
 1150 710 1138 695 1132 682 c 2
 860 82 l 1
 1065 82 l 1
 1076 259 l 2
 1077 283 1099 297 1120 297 c 0
 1141 297 1161 284 1161 255 c 2
 1161 46 l 2
 1161 21 1134 0 1110 0 c 2
 806 0 l 2
 768 0 750 24 750 59 c 0
 750 81 761 97 767 109 c 2
 1034 692 l 1
 831 692 l 1
 823 535 l 2
 822 505 802 490 781 490 c 0
 759 490 736 507 736 540 c 2
 736 726 l 2
 736 750 758 772 782 772 c 2
 1089 772 l 2
EndSplineSet
Refer: 153 711 S 1 0 0 1 258 -44 2
EndChar

StartChar: uni01C7
Encoding: 312 455 342
Width: 1240
VWidth: 0
Flags: HMW
PickledData: "(dp1
S'com.typemytype.robofont.layerData'
p2
(dp3
S'b'
(dp4
S'name'
p5
S'uni01C7'
p6
sS'lib'
p7
(dp8
sS'unicodes'
p9
(tsS'width'
p10
I1240
sS'contours'
p11
(tsS'components'
p12
(tsS'anchors'
p13
(tsss."
LayerCount: 2
Fore
SplineSet
349 1171 m 2
 383 1171 400 1149 400 1127 c 0
 400 1106 383 1085 350 1085 c 2
 198 1085 l 1
 198 86 l 1
 475 86 l 2
 483 86 482 88 483 99 c 2
 490 389 l 1
 494 418 517 432 540 432 c 0
 566 432 591 415 591 383 c 0
 591 277 591 172 591 66 c 1
 586 29 562 0 519 0 c 2
 64 0 l 2
 30 0 13 21 13 43 c 0
 13 64 30 86 63 86 c 2
 102 86 l 1
 102 1085 l 1
 55 1085 l 2
 22 1085 6 1106 6 1127 c 0
 6 1149 23 1171 56 1171 c 2
 349 1171 l 2
1154 367 m 6
 1154 72 1083 -13 890 -13 c 4
 758 -13 677 56 677 171 c 6
 677 283 l 6
 677 312 702 328 726 328 c 4
 750 328 773 313 773 283 c 6
 773 170 l 6
 773 102 811 68 899 68 c 4
 1030 68 1058 134 1058 364 c 6
 1058 1085 l 5
 778 1085 l 6
 746 1085 730 1106 730 1127 c 4
 730 1149 746 1171 779 1171 c 6
 1224 1171 l 6
 1257 1171 1274 1150 1274 1128 c 4
 1274 1107 1258 1085 1225 1085 c 6
 1154 1085 l 5
 1154 367 l 6
EndSplineSet
EndChar

StartChar: uni01C8
Encoding: 313 456 343
Width: 1240
VWidth: 0
Flags: HMW
PickledData: "(dp1
S'com.typemytype.robofont.layerData'
p2
(dp3
S'b'
(dp4
S'name'
p5
S'uni01C8'
p6
sS'lib'
p7
(dp8
sS'unicodes'
p9
(tsS'width'
p10
I2480
sS'contours'
p11
(tsS'components'
p12
(tsS'anchors'
p13
(tsss."
LayerCount: 2
Fore
SplineSet
1022 1171 m 4
 1068 1171 1104 1134 1104 1088 c 4
 1104 1042 1068 1006 1022 1006 c 4
 976 1006 939 1042 939 1088 c 4
 939 1134 976 1171 1022 1171 c 4
464 1171 m 2
 498 1171 515 1149 515 1127 c 0
 515 1106 498 1085 465 1085 c 2
 353 1085 l 1
 353 86 l 1
 645 86 l 1
 667 88 683 92 686 123 c 2
 720 399 l 2
 724 428 747 442 770 442 c 0
 796 442 821 425 821 393 c 2
 821 387 l 1
 791 66 l 1
 786 29 762 0 719 0 c 2
 113 0 l 2
 79 0 62 21 62 43 c 0
 62 64 79 86 112 86 c 2
 257 86 l 1
 257 1085 l 1
 154 1085 l 2
 121 1085 105 1106 105 1127 c 0
 105 1149 122 1171 155 1171 c 2
 464 1171 l 2
728 -309 m 0
 695 -309 677 -287 677 -265 c 0
 677 -243 696 -220 735 -220 c 0
 910 -220 1020 -155 1020 0 c 2
 1020 732 l 1
 754 732 l 2
 725 732 710 754 710 775 c 0
 710 795 724 814 750 814 c 2
 1080 814 l 2
 1100 814 1116 806 1116 785 c 2
 1116 -10 l 2
 1116 -198 973 -309 728 -309 c 0
EndSplineSet
EndChar

StartChar: uni01C9
Encoding: 314 457 344
Width: 1240
VWidth: 0
Flags: HMW
PickledData: "(dp1
S'com.typemytype.robofont.layerData'
p2
(dp3
S'b'
(dp4
S'name'
p5
S'uni01C9'
p6
sS'lib'
p7
(dp8
sS'unicodes'
p9
(tsS'width'
p10
I2480
sS'contours'
p11
(tsS'components'
p12
(tsS'anchors'
p13
(tsss."
LayerCount: 2
Fore
SplineSet
999 1171 m 4
 1045 1171 1081 1134 1081 1088 c 4
 1081 1042 1045 1006 999 1006 c 4
 953 1006 916 1042 916 1088 c 4
 916 1134 953 1171 999 1171 c 4
678 -309 m 0
 645 -309 627 -287 627 -265 c 0
 627 -243 646 -220 685 -220 c 0
 860 -220 970 -155 970 0 c 2
 970 732 l 1
 704 732 l 2
 675 732 660 754 660 775 c 0
 660 795 674 814 700 814 c 2
 1030 814 l 2
 1050 814 1066 806 1066 785 c 2
 1066 -10 l 2
 1066 -198 923 -309 678 -309 c 0
476 1150 m 2
 476 82 l 1
 696 82 l 2
 722 82 735 61 735 41 c 0
 735 20 722 0 695 0 c 2
 146 0 l 2
 115 0 100 21 100 42 c 0
 100 62 114 82 142 82 c 2
 380 82 l 1
 380 1090 l 1
 146 1061 l 2
 143 1061 141 1060 139 1060 c 0
 112 1060 98 1081 98 1102 c 0
 98 1121 108 1139 130 1142 c 2
 429 1181 l 2
 432 1181 435 1182 440 1182 c 0
 461 1182 476 1170 476 1150 c 2
EndSplineSet
EndChar

StartChar: uni01CA
Encoding: 315 458 345
Width: 1240
VWidth: 0
Flags: HMW
PickledData: "(dp1
S'com.typemytype.robofont.layerData'
p2
(dp3
S'b'
(dp4
S'name'
p5
S'uni01CA'
p6
sS'lib'
p7
(dp8
sS'unicodes'
p9
(tsS'width'
p10
I2480
sS'contours'
p11
(tsS'components'
p12
(tsS'anchors'
p13
(tsss."
LayerCount: 2
Fore
SplineSet
79 1085 m 2
 46 1085 30 1106 30 1127 c 0
 30 1149 47 1171 80 1171 c 2
 262 1171 l 2
 284 1171 296 1164 302 1147 c 2
 583 282 l 1
 583 1085 l 1
 504 1085 l 2
 471 1085 455 1106 455 1127 c 0
 455 1149 472 1171 506 1171 c 2
 1224 1171 l 2
 1257 1171 1274 1150 1274 1128 c 0
 1274 1107 1258 1085 1225 1085 c 2
 1154 1085 l 1
 1154 307 l 2
 1154 48 1055 -14 951 -14 c 0
 876 -14 787 48 787 181 c 2
 787 233 l 2
 787 262 812 278 836 278 c 0
 860 278 883 263 883 233 c 2
 883 180 l 2
 883 86 933 68 964 68 c 0
 1015 68 1058 103 1058 304 c 2
 1058 1085 l 1
 679 1085 l 1
 679 47 l 2
 679 4 656 -16 630 -16 c 0
 609 -16 583 -3 574 22 c 2
 231 1064 l 1
 231 86 l 1
 299 86 l 2
 332 86 348 64 348 43 c 0
 348 21 331 0 298 0 c 2
 100 0 l 2
 67 0 50 21 50 43 c 0
 50 64 66 86 99 86 c 2
 135 86 l 1
 135 1085 l 1
 79 1085 l 2
EndSplineSet
EndChar

StartChar: uni01CB
Encoding: 316 459 346
Width: 1240
VWidth: 0
Flags: HMW
PickledData: "(dp1
S'com.typemytype.robofont.layerData'
p2
(dp3
S'b'
(dp4
S'name'
p5
S'uni01CB'
p6
sS'lib'
p7
(dp8
sS'unicodes'
p9
(tsS'width'
p10
I2480
sS'contours'
p11
(tsS'components'
p12
(tsS'anchors'
p13
(tsss."
LayerCount: 2
Fore
SplineSet
1052 1171 m 0
 1098 1171 1134 1134 1134 1088 c 0
 1134 1042 1098 1006 1052 1006 c 0
 1006 1006 969 1042 969 1088 c 0
 969 1134 1006 1171 1052 1171 c 0
748 -309 m 0
 715 -309 697 -287 697 -265 c 0
 697 -243 716 -220 755 -220 c 0
 930 -220 1040 -155 1040 0 c 2
 1040 732 l 1
 854 732 l 2
 825 732 810 754 810 775 c 0
 810 795 824 814 850 814 c 2
 1100 814 l 2
 1120 814 1136 806 1136 785 c 2
 1136 -10 l 2
 1136 -198 993 -309 748 -309 c 0
79 1085 m 2
 46 1085 30 1106 30 1127 c 0
 30 1149 47 1171 80 1171 c 2
 292 1171 l 2
 314 1171 326 1164 332 1147 c 2
 643 282 l 1
 643 1085 l 1
 564 1085 l 2
 531 1085 515 1106 515 1127 c 0
 515 1149 532 1171 566 1171 c 2
 793 1171 l 2
 826 1171 843 1149 843 1127 c 0
 843 1106 827 1085 795 1085 c 2
 739 1085 l 1
 739 47 l 2
 739 4 716 -16 690 -16 c 0
 669 -16 643 -3 634 22 c 2
 261 1064 l 1
 261 86 l 1
 329 86 l 2
 362 86 378 64 378 43 c 0
 378 21 361 0 328 0 c 2
 100 0 l 2
 67 0 50 21 50 43 c 0
 50 64 66 86 99 86 c 2
 165 86 l 1
 165 1085 l 1
 79 1085 l 2
EndSplineSet
EndChar

StartChar: uni01CC
Encoding: 317 460 347
Width: 1240
VWidth: 0
Flags: HMW
PickledData: "(dp1
S'com.typemytype.robofont.layerData'
p2
(dp3
S'b'
(dp4
S'name'
p5
S'uni01CC'
p6
sS'lib'
p7
(dp8
sS'unicodes'
p9
(tsS'width'
p10
I2480
sS'contours'
p11
(tsS'components'
p12
(tsS'anchors'
p13
(tsss."
LayerCount: 2
Fore
SplineSet
1044 1171 m 4
 1090 1171 1126 1134 1126 1088 c 4
 1126 1042 1090 1006 1044 1006 c 4
 998 1006 961 1042 961 1088 c 4
 961 1134 998 1171 1044 1171 c 4
748 -309 m 0
 715 -309 697 -287 697 -265 c 0
 697 -243 716 -220 755 -220 c 0
 930 -220 1040 -155 1040 0 c 2
 1040 732 l 1
 854 732 l 2
 825 732 810 754 810 775 c 0
 810 795 824 814 850 814 c 2
 1100 814 l 2
 1120 814 1136 806 1136 785 c 2
 1136 -10 l 2
 1136 -198 993 -309 748 -309 c 0
478 731 m 0
 286 731 238 604 238 503 c 2
 238 82 l 1
 313 82 l 2
 345 82 361 62 361 42 c 0
 361 21 344 0 311 0 c 2
 88 0 l 2
 57 0 42 22 42 43 c 0
 42 63 56 82 84 82 c 2
 142 82 l 1
 142 709 l 1
 84 699 l 2
 77 697 70 696 64 696 c 0
 40 696 25 714 25 734 c 0
 25 750 34 769 58 775 c 1
 172 796 l 2
 179 797 185 798 190 798 c 0
 217 798 228 782 229 759 c 2
 234 639 l 1
 284 737 334 813 473 813 c 0
 666 813 734 707 734 533 c 2
 734 82 l 1
 783 82 l 2
 810 82 823 62 823 42 c 0
 823 21 809 0 781 0 c 2
 556 0 l 2
 525 0 510 22 510 43 c 0
 510 63 524 82 552 82 c 2
 638 82 l 1
 638 540 l 2
 638 659 599 731 478 731 c 0
EndSplineSet
EndChar

StartChar: uni01F1
Encoding: 318 497 348
Width: 1240
VWidth: 0
Flags: HMW
PickledData: "(dp1
S'com.typemytype.robofont.layerData'
p2
(dp3
S'b'
(dp4
S'name'
p5
S'uni01F1'
p6
sS'lib'
p7
(dp8
sS'unicodes'
p9
(tsS'width'
p10
I2480
sS'contours'
p11
(tsS'components'
p12
(tsS'anchors'
p13
(tsss."
LayerCount: 2
Fore
SplineSet
235 86 m 1
 496 86 553 256 553 591 c 0
 553 907 488 1085 235 1085 c 1
 235 86 l 1
1111 0 m 2
 739 0 l 2
 715 0 704 14 704 39 c 0
 704 54 708 73 715 95 c 2
 1038 1085 l 1
 818 1085 l 1
 818 857 l 2
 818 830 795 817 773 817 c 0
 748 817 732 834 732 866 c 2
 732 1116 l 1
 733 1144 739 1171 790 1171 c 2
 1090 1171 l 2
 1125 1171 1132 1137 1132 1111 c 0
 1132 1097 1130 1085 1129 1081 c 2
 811 86 l 1
 1070 86 l 1
 1070 314 l 1
 1072 346 1093 363 1116 363 c 0
 1137 363 1162 350 1162 315 c 2
 1162 53 l 1
 1163 19 1140 0 1111 0 c 2
228 0 m 2
 115 0 l 2
 81 0 64 21 64 43 c 0
 64 64 81 86 114 86 c 2
 139 86 l 1
 139 1085 l 1
 118 1085 l 2
 86 1085 70 1106 70 1127 c 0
 70 1149 87 1171 120 1171 c 2
 230 1171 l 2
 525 1171 649 993 649 591 c 0
 649 168 519 0 228 0 c 2
EndSplineSet
EndChar

StartChar: uni01F2
Encoding: 319 498 349
Width: 1240
VWidth: 0
Flags: HMW
PickledData: "(dp1
S'com.typemytype.robofont.layerData'
p2
(dp3
S'b'
(dp4
S'name'
p5
S'uni01F2'
p6
sS'lib'
p7
(dp8
sS'unicodes'
p9
(tsS'width'
p10
I2480
sS'contours'
p11
(tsS'components'
p12
(tsS'anchors'
p13
(tsss."
LayerCount: 2
Fore
SplineSet
1089 772 m 6
 1135 772 1150 750 1150 727 c 4
 1150 710 1138 695 1132 682 c 6
 860 82 l 5
 1065 82 l 5
 1076 259 l 6
 1077 283 1099 297 1120 297 c 4
 1141 297 1161 284 1161 255 c 6
 1161 46 l 6
 1161 21 1134 0 1110 0 c 6
 806 0 l 6
 768 0 750 24 750 59 c 4
 750 81 761 97 767 109 c 6
 1034 692 l 5
 831 692 l 5
 823 535 l 6
 822 505 802 490 781 490 c 4
 759 490 736 507 736 540 c 6
 736 726 l 6
 736 750 758 772 782 772 c 6
 1089 772 l 6
235 86 m 1
 496 86 553 256 553 591 c 0
 553 907 488 1085 235 1085 c 1
 235 86 l 1
228 0 m 2
 115 0 l 2
 81 0 64 21 64 43 c 0
 64 64 81 86 114 86 c 2
 139 86 l 1
 139 1085 l 1
 118 1085 l 2
 86 1085 70 1106 70 1127 c 0
 70 1149 87 1171 120 1171 c 2
 230 1171 l 2
 525 1171 649 993 649 591 c 0
 649 168 519 0 228 0 c 2
EndSplineSet
EndChar

StartChar: uni01F3
Encoding: 320 499 350
Width: 1240
VWidth: 0
Flags: HMW
PickledData: "(dp1
S'com.typemytype.robofont.layerData'
p2
(dp3
S'b'
(dp4
S'name'
p5
S'uni01F3'
p6
sS'lib'
p7
(dp8
sS'unicodes'
p9
(tsS'width'
p10
I2480
sS'contours'
p11
(tsS'components'
p12
(tsS'anchors'
p13
(tsss."
LayerCount: 2
Back
SplineSet
677 47 m 6
 674 107 l 5
 615 36 558 -17 431 -17 c 4
 196 -17 93 156 93 398 c 4
 93 636 197 813 431 813 c 4
 560 813 591 771 665 707 c 5
 665 1091 l 5
 537 1083 l 6
 530 1082 523 1080 517 1080 c 4
 493 1080 478 1098 478 1118 c 4
 478 1134 487 1154 511 1159 c 5
 700 1178 l 6
 708 1179 714 1180 720 1180 c 4
 749 1180 761 1164 761 1141 c 6
 761 85 l 5
 909 96 l 5
 915 96 l 6
 943 96 955 79 955 61 c 4
 955 42 942 22 917 17 c 5
 731 -3 l 5
 724 -3 l 6
 698 -3 679 13 677 47 c 6
189 398 m 4
 189 219 247 65 433 65 c 4
 568 65 607 127 665 210 c 5
 665 602 l 5
 602 681 564 731 437 731 c 4
 246 731 189 575 189 398 c 4
2056 772 m 6
 2101.96 772 2116.88 750.144 2116.88 727.012 c 4
 2116.88 709.947 2108.76 692.188 2099 682 c 6
 1529 82 l 5
 2062 82 l 5
 2073 319 l 6
 2074.09 343.476 2095.7 357.095 2116.85 357.095 c 4
 2137.64 357.095 2158 343.938 2158 315 c 6
 2158 46 l 6
 2158 21 2131 0 2107 0 c 6
 1462 0 l 6
 1424 0 1406 24 1406 59 c 4
 1406 81 1412 97 1423 109 c 6
 1980 692 l 5
 1510 692 l 5
 1502 495 l 6
 1500.56 464.748 1480.44 450.176 1459.92 450.176 c 4
 1437.7 450.176 1415 467.252 1415 500 c 6
 1415 726 l 6
 1415 750 1437 772 1461 772 c 6
 2056 772 l 6
EndSplineSet
Fore
SplineSet
497 47 m 2
 494 107 l 1
 441 22 373 -16 310 -16 c 0
 177 -16 63 153 63 398 c 0
 63 651 164 813 299 813 c 0
 358 813 426 782 485 714 c 1
 485 1091 l 1
 357 1083 l 2
 350 1082 343 1080 337 1080 c 0
 313 1080 298 1098 298 1118 c 0
 298 1134 307 1154 331 1159 c 1
 520 1178 l 2
 528 1179 534 1180 540 1180 c 0
 569 1180 581 1164 581 1141 c 2
 581 85 l 1
 637 91 l 1
 643 91 l 2
 671 91 683 74 683 56 c 0
 683 37 670 17 645 12 c 1
 551 -3 l 1
 544 -3 l 2
 518 -3 499 13 497 47 c 2
159 398 m 0
 159 186 226 60 318 60 c 0
 374 60 438 107 485 210 c 1
 485 619 l 1
 424 698 361 735 309 735 c 0
 213 735 159 610 159 398 c 0
1089 772 m 6
 1135 772 1150 750 1150 727 c 4
 1150 710 1138 695 1132 682 c 6
 860 82 l 5
 1065 82 l 5
 1076 259 l 6
 1077 283 1099 297 1120 297 c 4
 1141 297 1161 284 1161 255 c 6
 1161 46 l 6
 1161 21 1134 0 1110 0 c 6
 806 0 l 6
 768 0 750 24 750 59 c 4
 750 81 761 97 767 109 c 6
 1034 692 l 5
 831 692 l 5
 823 535 l 6
 822 505 802 490 781 490 c 4
 759 490 736 507 736 540 c 6
 736 726 l 6
 736 750 758 772 782 772 c 6
 1089 772 l 6
EndSplineSet
EndChar

StartChar: uni0237
Encoding: 351 567 379
Width: 1240
VWidth: 0
Flags: HMW
PickledData: "(dp1
S'com.typemytype.robofont.layerData'
p2
(dp3
S'b'
(dp4
S'name'
p5
S'uni0237'
p6
sS'lib'
p7
(dp8
sS'unicodes'
p9
(tsS'width'
p10
I1240
sS'contours'
p11
(tsS'components'
p12
(tsS'anchors'
p13
(tsss."
LayerCount: 2
Fore
SplineSet
367 -310 m 0
 334 -310 316 -288 316 -266 c 0
 316 -244 335 -221 374 -221 c 0
 549 -221 799 -156 799 -1 c 2
 799 731 l 1
 343 731 l 2
 314 731 299 753 299 774 c 0
 299 794 313 813 339 813 c 2
 859 813 l 2
 879 813 895 805 895 784 c 2
 895 -11 l 2
 895 -199 612 -310 367 -310 c 0
EndSplineSet
EndChar

StartChar: uni0307
Encoding: 418 775 380
Width: 1240
VWidth: 0
Flags: HMW
PickledData: "(dp1
S'com.typemytype.robofont.layerData'
p2
(dp3
S'b'
(dp4
S'name'
p5
S'uni0307'
p6
sS'lib'
p7
(dp8
sS'unicodes'
p9
(tsS'width'
p10
I1240
sS'contours'
p11
(tsS'components'
p12
(tsS'anchors'
p13
(tsss."
LayerCount: 2
Fore
SplineSet
644 813 m 0
 690 813 726 776 726 730 c 0
 726 684 690 648 644 648 c 0
 598 648 561 684 561 730 c 0
 561 776 598 813 644 813 c 0
EndSplineSet
EndChar

StartChar: uni030F
Encoding: 360 783 381
Width: 1240
VWidth: 0
Flags: HMW
PickledData: "(dp1
S'com.typemytype.robofont.layerData'
p2
(dp3
S'b'
(dp4
S'name'
p5
S'uni030F'
p6
sS'lib'
p7
(dp8
sS'unicodes'
p9
(tsS'width'
p10
I1240
sS'contours'
p11
(tsS'components'
p12
(tsS'anchors'
p13
(tsss."
LayerCount: 2
Fore
SplineSet
314 1144 m 2
 304 1151 300 1162 300 1172 c 0
 300 1200 330 1233 361 1233 c 0
 372 1233 383 1229 393 1219 c 2
 664 943 l 2
 669 938 670 933 670 928 c 0
 670 916 659 906 647 906 c 0
 643 906 639 907 636 910 c 2
 314 1144 l 2
624 1164 m 1
 614 1171 610 1182 610 1192 c 0
 610 1220 640 1253 671 1253 c 0
 682 1253 693 1249 703 1239 c 1
 934 943 l 2
 939 938 940 933 940 928 c 0
 940 916 929 906 917 906 c 0
 913 906 909 907 906 910 c 2
 624 1164 l 1
EndSplineSet
EndChar

StartChar: uni0311
Encoding: 361 785 382
Width: 1240
VWidth: 0
Flags: HMW
PickledData: "(dp1
S'com.typemytype.robofont.layerData'
p2
(dp3
S'b'
(dp4
S'name'
p5
S'uni0311'
p6
sS'lib'
p7
(dp8
sS'unicodes'
p9
(tsS'width'
p10
I1240
sS'contours'
p11
(tsS'components'
p12
(tsS'anchors'
p13
(tsss."
LayerCount: 2
Fore
SplineSet
620 1090 m 0
 560 1090 501 1054 490 986 c 1
 486 974 477 970 467 970 c 0
 451 970 433 982 433 994 c 0
 433 1119 559 1148 620 1148 c 0
 681 1148 807 1119 807 994 c 0
 807 982 789 970 773 970 c 0
 763 970 754 974 750 986 c 1
 739 1054 680 1090 620 1090 c 0
EndSplineSet
EndChar

StartChar: uni0326
Encoding: 419 806 383
Width: 1240
VWidth: 0
Flags: HMW
PickledData: "(dp1
S'com.typemytype.robofont.layerData'
p2
(dp3
S'b'
(dp4
S'name'
p5
S'uni0326'
p6
sS'lib'
p7
(dp8
sS'unicodes'
p9
(tsS'width'
p10
I1240
sS'contours'
p11
(tsS'components'
p12
(tsS'anchors'
p13
(tsss."
LayerCount: 2
Fore
SplineSet
659 168 m 0
 719 168 761 139 761 59 c 0
 761 -57 658 -167 576 -208 c 0
 573 -210 569 -210 566 -210 c 0
 552 -210 538 -197 538 -183 c 0
 538 -176 542 -168 550 -162 c 0
 593 -131 673 -70 673 -8 c 1
 614 -8 567 18 567 83 c 0
 567 147 612 168 659 168 c 0
EndSplineSet
EndChar

StartChar: uni2206
Encoding: 421 8710 398
Width: 1240
VWidth: 0
Flags: HMW
PickledData: "(dp1
S'com.typemytype.robofont.layerData'
p2
(dp3
S'b'
(dp4
S'name'
p5
S'uni2206'
p6
sS'lib'
p7
(dp8
sS'unicodes'
p9
(tsS'width'
p10
I1240
sS'contours'
p11
(tsS'components'
p12
(tsS'anchors'
p13
(tsss."
LayerCount: 2
Fore
SplineSet
842 405 m 1
 639 912 l 1
 419 406 l 1
 842 405 l 1
893 331 m 2
 364 333 l 2
 330 333 299 359 299 394 c 0
 299 402 301 411 306 422 c 2
 546 964 l 2
 561 998 585 1032 624 1032 c 0
 660 1032 685 998 697 969 c 2
 935 400 l 2
 938 392 941 384 941 376 c 0
 941 351 918 331 893 331 c 2
EndSplineSet
EndChar

StartChar: uniFB01
Encoding: 413 64257 399
Width: 1240
VWidth: 0
Flags: HMW
PickledData: "(dp1
S'com.typemytype.robofont.layerData'
p2
(dp3
S'b'
(dp4
S'name'
p5
S'uniFB01'
p6
sS'lib'
p7
(dp8
sS'unicodes'
p9
(tsS'width'
p10
I2480
sS'contours'
p11
(tsS'components'
p12
(tsS'anchors'
p13
(tsss."
LayerCount: 2
Fore
SplineSet
960 1171 m 0
 1006 1171 1042 1134 1042 1088 c 0
 1042 1042 1006 1006 960 1006 c 0
 914 1006 877 1042 877 1088 c 0
 877 1134 914 1171 960 1171 c 0
762 0 m 2
 731 0 716 22 716 43 c 0
 716 63 730 82 758 82 c 2
 924 82 l 1
 924 684 l 1
 341 684 l 1
 342 82 l 1
 564 82 l 2
 590 82 603 61 603 41 c 0
 603 20 590 0 563 0 c 2
 141 0 l 2
 110 0 95 21 95 42 c 0
 95 62 109 82 137 82 c 2
 245 82 l 1
 245 684 l 1
 153 684 l 2
 122 684 107 705 107 726 c 0
 107 746 121 766 149 766 c 2
 245 766 l 1
 245 838 l 2
 245 1079 370 1188 644 1188 c 0
 674 1188 701 1169 701 1137 c 2
 701 1020 l 2
 701 982 676 964 652 964 c 0
 628 964 605 981 605 1016 c 2
 605 1109 l 1
 372 1093 342 1018 342 832 c 2
 342 766 l 1
 973 766 l 2
 999 766 1020 762 1020 735 c 2
 1020 82 l 1
 1156 82 l 2
 1183 82 1196 61 1196 41 c 0
 1196 20 1182 0 1155 0 c 2
 762 0 l 2
EndSplineSet
EndChar

StartChar: uniFB02
Encoding: 414 64258 400
Width: 1240
VWidth: 0
Flags: HMW
PickledData: "(dp1
S'com.typemytype.robofont.layerData'
p2
(dp3
S'b'
(dp4
S'name'
p5
S'uniFB02'
p6
sS'lib'
p7
(dp8
sS'unicodes'
p9
(tsS'width'
p10
I2480
sS'contours'
p11
(tsS'components'
p12
(tsS'anchors'
p13
(tsss."
LayerCount: 2
Fore
SplineSet
1017 1140 m 2
 1017 82 l 1
 1120 82 l 2
 1146 82 1159 61 1159 41 c 0
 1159 20 1146 0 1119 0 c 2
 796 0 l 2
 765 0 750 21 750 42 c 0
 750 62 764 82 792 82 c 2
 921 82 l 1
 921 1093 l 1
 677 1093 l 2
 443 1093 378 1018 378 832 c 2
 378 766 l 1
 527 766 l 2
 554 766 567 745 567 725 c 0
 567 704 553 684 526 684 c 2
 377 684 l 1
 378 82 l 1
 580 82 l 2
 606 82 619 61 619 41 c 0
 619 20 606 0 579 0 c 2
 164 0 l 2
 133 0 118 21 118 42 c 0
 118 62 132 82 160 82 c 2
 281 82 l 1
 281 684 l 1
 189 684 l 2
 158 684 143 705 143 726 c 0
 143 746 157 766 185 766 c 2
 281 766 l 1
 281 838 l 2
 281 1077 404 1172 675 1172 c 2
 970 1172 l 2
 996 1172 1017 1167 1017 1140 c 2
EndSplineSet
EndChar

StartChar: v
Encoding: 86 118 404
Width: 1240
VWidth: 0
Flags: HMW
PickledData: "(dp1
S'com.typemytype.robofont.layerData'
p2
(dp3
S'b'
(dp4
S'name'
p5
S'v'
sS'lib'
p6
(dp7
sS'unicodes'
p8
(tsS'width'
p9
I1240
sS'contours'
p10
(tsS'components'
p11
(tsS'anchors'
p12
(tsss."
LayerCount: 2
Fore
SplineSet
491 774 m 2
 524 774 530 753 530 732 c 0
 530 712 524 692 492 692 c 2
 383 692 l 1
 650 92 l 1
 894 692 l 1
 809 692 l 2
 776 692 770 712 770 732 c 0
 770 753 777 774 810 774 c 2
 1071 774 l 2
 1109 774 1117 754 1117 733 c 0
 1117 713 1110 692 1075 692 c 2
 986 692 l 1
 719 54 l 2
 693 -8 674 -14 647 -14 c 0
 620 -14 598 -8 567 59 c 2
 273 692 l 1
 172 692 l 2
 138 692 130 713 130 733 c 0
 130 754 138 774 176 774 c 2
 491 774 l 2
EndSplineSet
EndChar

StartChar: w
Encoding: 87 119 405
Width: 1240
VWidth: 0
Flags: HMW
PickledData: "(dp1
S'com.typemytype.robofont.layerData'
p2
(dp3
S'b'
(dp4
S'name'
p5
S'w'
sS'lib'
p6
(dp7
sS'unicodes'
p8
(tsS'width'
p9
I1240
sS'contours'
p10
(tsS'components'
p11
(tsS'anchors'
p12
(tsss."
LayerCount: 2
Fore
SplineSet
765 774 m 2
 798 774 804 753 804 732 c 0
 804 712 798 692 766 692 c 2
 657 692 l 1
 869 92 l 1
 1038 692 l 1
 973 692 l 2
 940 692 934 712 934 732 c 0
 934 753 941 774 974 774 c 2
 1195 774 l 2
 1233 774 1241 754 1241 733 c 0
 1241 713 1234 692 1199 692 c 2
 1130 692 l 1
 938 54 l 2
 919 -8 893 -14 866 -14 c 0
 839 -14 811 -8 786 59 c 2
 651 433 l 1
 507 54 l 2
 484 -8 462 -14 435 -14 c 0
 408 -14 378 -9 355 59 c 2
 146 692 l 1
 68 692 l 2
 34 692 26 713 26 733 c 0
 26 754 34 774 72 774 c 2
 307 774 l 2
 340 774 346 753 346 732 c 0
 346 712 340 692 308 692 c 2
 256 692 l 1
 438 92 l 1
 607 555 l 1
 558 692 l 1
 507 692 l 2
 473 692 465 713 465 733 c 0
 465 754 473 774 511 774 c 2
 765 774 l 2
EndSplineSet
EndChar

StartChar: x
Encoding: 88 120 410
Width: 1240
VWidth: 0
Flags: HMW
PickledData: "(dp1
S'com.typemytype.robofont.layerData'
p2
(dp3
S'b'
(dp4
S'name'
p5
S'x'
sS'lib'
p6
(dp7
sS'unicodes'
p8
(tsS'width'
p9
I1240
sS'contours'
p10
(tsS'components'
p11
(tsS'anchors'
p12
(tsss."
LayerCount: 2
Fore
SplineSet
778 0 m 6
 740 0 722 21 722 42 c 4
 722 62 739 82 773 82 c 6
 853 82 l 5
 628 340 l 5
 407 82 l 5
 466 82 l 6
 498 82 504 62 504 42 c 4
 504 21 497 0 464 0 c 6
 217 0 l 6
 179 0 171 21 171 42 c 4
 171 62 178 82 213 82 c 6
 297 82 l 5
 570 406 l 5
 320 692 l 5
 232 692 l 6
 194 692 186 713 186 734 c 4
 186 754 193 774 228 774 c 6
 465 774 l 6
 497 774 503 754 503 734 c 4
 503 713 496 692 463 692 c 6
 423 692 l 5
 623 469 l 5
 811 692 l 5
 766 692 l 6
 728 692 720 713 720 734 c 4
 720 754 727 774 762 774 c 6
 1029 774 l 6
 1062 774 1068 754 1068 734 c 4
 1068 713 1061 692 1027 692 c 6
 929 692 l 5
 682 403 l 5
 970 82 l 5
 1041 82 l 6
 1074 82 1090 62 1090 42 c 4
 1090 21 1073 0 1039 0 c 6
 778 0 l 6
EndSplineSet
EndChar

StartChar: y
Encoding: 89 121 411
Width: 1240
VWidth: 0
Flags: HMW
PickledData: "(dp1
S'com.typemytype.robofont.layerData'
p2
(dp3
S'b'
(dp4
S'name'
p5
S'y'
sS'lib'
p6
(dp7
sS'unicodes'
p8
(tsS'width'
p9
I1240
sS'contours'
p10
(tsS'components'
p11
(tsS'anchors'
p12
(tsss."
LayerCount: 2
Fore
SplineSet
488 774 m 2
 522 774 529 753 529 732 c 0
 529 712 523 692 490 692 c 2
 388 692 l 1
 643 95 l 1
 871 692 l 1
 782 692 l 2
 749 692 743 712 743 732 c 0
 743 753 750 774 783 774 c 2
 1048 774 l 2
 1086 774 1094 754 1094 733 c 0
 1094 713 1087 692 1052 692 c 2
 973 692 l 1
 670 -83 l 2
 609 -239 524 -361 371 -361 c 0
 313 -361 303 -335 303 -309 c 0
 303 -284 317 -261 371 -261 c 0
 447 -261 521 -199 543 -141 c 2
 597 -2 l 1
 488 225 389 461 284 692 c 1
 191 692 l 2
 157 692 150 712 150 732 c 0
 150 753 158 774 196 774 c 2
 488 774 l 2
EndSplineSet
EndChar

StartChar: yen
Encoding: 100 165 415
Width: 1240
VWidth: 0
Flags: HMW
PickledData: "(dp1
S'com.typemytype.robofont.layerData'
p2
(dp3
S'b'
(dp4
S'name'
p5
S'yen'
p6
sS'lib'
p7
(dp8
sS'unicodes'
p9
(tsS'width'
p10
I1240
sS'contours'
p11
(tsS'components'
p12
(tsS'anchors'
p13
(tsss."
LayerCount: 2
Fore
SplineSet
956 578 m 2
 989 578 995 560 995 542 c 0
 995 524 989 506 956 506 c 2
 689 506 l 1
 689 369 l 1
 956 369 l 2
 989 369 995 351 995 333 c 0
 995 315 989 297 956 297 c 2
 689 297 l 1
 689 86 l 1
 921 86 l 2
 953 86 969 65 969 44 c 0
 969 22 952 0 919 0 c 2
 334 0 l 2
 300 0 282 22 282 44 c 0
 282 65 299 86 332 86 c 2
 593 86 l 1
 593 297 l 1
 318 297 l 2
 285 297 279 315 279 333 c 0
 279 351 285 369 318 369 c 2
 593 369 l 1
 593 506 l 1
 318 506 l 2
 285 506 279 524 279 542 c 0
 279 560 285 578 318 578 c 2
 578 578 l 1
 258 1095 l 1
 174 1095 l 2
 141 1095 124 1114 124 1133 c 0
 124 1152 142 1171 175 1171 c 2
 505 1171 l 2
 539 1171 556 1152 556 1133 c 0
 556 1114 539 1095 506 1095 c 2
 370 1095 l 1
 646 633 l 1
 914 1095 l 1
 803 1095 l 2
 770 1095 753 1114 753 1133 c 0
 753 1152 771 1171 804 1171 c 2
 1065 1171 l 2
 1099 1171 1116 1151 1116 1132 c 0
 1116 1113 1100 1095 1067 1095 c 2
 1012 1095 l 1
 707 578 l 1
 956 578 l 2
EndSplineSet
EndChar

StartChar: z
Encoding: 90 122 417
Width: 1240
VWidth: 0
Flags: HMW
PickledData: "(dp1
S'com.typemytype.robofont.layerData'
p2
(dp3
S'b'
(dp4
S'name'
p5
S'z'
sS'lib'
p6
(dp7
sS'unicodes'
p8
(tsS'width'
p9
I1240
sS'contours'
p10
(tsS'components'
p11
(tsS'anchors'
p12
(tsss."
LayerCount: 2
Fore
SplineSet
896 772 m 6
 942 772 957 750 957 727 c 4
 957 710 949 692 939 682 c 6
 387 82 l 5
 902 82 l 5
 913 319 l 6
 914 343 936 357 957 357 c 4
 978 357 998 344 998 315 c 6
 998 46 l 6
 998 21 971 0 947 0 c 6
 334 0 l 6
 296 0 278 24 278 59 c 4
 278 81 284 97 295 109 c 6
 829 692 l 5
 368 692 l 5
 360 495 l 6
 359 465 339 450 318 450 c 4
 296 450 273 467 273 500 c 6
 273 726 l 6
 273 750 295 772 319 772 c 6
 896 772 l 6
EndSplineSet
EndChar

StartChar: zero
Encoding: 16 48 421
Width: 1240
VWidth: 0
Flags: HMW
PickledData: "(dp1
S'com.typemytype.robofont.layerData'
p2
(dp3
S'b'
(dp4
S'name'
p5
S'zero'
p6
sS'lib'
p7
(dp8
sS'unicodes'
p9
(tsS'width'
p10
I1240
sS'contours'
p11
(tsS'components'
p12
(tsS'anchors'
p13
(tsss."
LayerCount: 2
Fore
SplineSet
619 1187 m 0
 875 1187 1008 885 1008 584 c 0
 1008 284 874 -16 619 -16 c 0
 362 -16 232 284 232 584 c 0
 232 885 365 1187 619 1187 c 0
619 69 m 0
 815 69 912 325 912 583 c 0
 912 842 812 1101 619 1101 c 0
 424 1101 328 842 328 583 c 0
 328 325 425 69 619 69 c 0
EndSplineSet
EndChar

StartChar: perthousand
Encoding: 396 8240 422
Width: 1240
VWidth: 0
Flags: HMW
LayerCount: 2
Fore
SplineSet
584 44 m 0
 656 44 715 207 715 322 c 0
 715 386 697 435 654 435 c 0
 577 435 518 277 518 162 c 0
 518 96 538 44 584 44 c 0
575 -13 m 0
 483 -13 444 69 444 168 c 0
 444 316 532 501 661 501 c 0
 750 501 787 421 787 324 c 0
 787 175 700 -13 575 -13 c 0
198 531 m 0
 271 531 325 683 325 795 c 0
 325 861 306 913 262 913 c 0
 189 913 130 759 130 647 c 0
 130 582 149 531 198 531 c 0
193 472 m 0
 98 472 60 550 60 646 c 0
 60 795 154 986 277 986 c 2
 319 986 l 2
 467 986 565 992 635 1143 c 0
 641 1157 652 1162 663 1162 c 0
 682 1162 701 1145 701 1122 c 0
 701 1116 700 1110 697 1104 c 2
 206 -215 l 2
 199 -234 184 -243 170 -243 c 0
 151 -243 133 -227 133 -203 c 0
 133 -197 134 -190 137 -183 c 2
 566 985 l 1
 489 929 426 926 359 926 c 0
 350 926 340 926 331 926 c 1
 372 888 390 831 390 770 c 0
 390 631 300 472 193 472 c 0
986 44 m 0
 1058 44 1117 207 1117 322 c 0
 1117 386 1099 435 1056 435 c 0
 979 435 920 277 920 162 c 0
 920 96 940 44 986 44 c 0
977 -13 m 0
 885 -13 846 69 846 168 c 0
 846 316 934 501 1063 501 c 0
 1152 501 1189 421 1189 324 c 0
 1189 175 1102 -13 977 -13 c 0
EndSplineSet
EndChar

StartChar: Eth
Encoding: -1 208 423
Width: 1240
VWidth: 0
Flags: HW
LayerCount: 2
Fore
SplineSet
172 572 m 6
 134.665 572 126 591.708 126 611.053 c 4
 126 629.695 133.335 648 168 648 c 6
 314 648 l 5
 314 1085 l 1
 155 1085 l 2
 123 1085 107 1106 107 1127 c 0
 107 1149 124 1171 157 1171 c 2
 515 1171 l 2
 858 1171 1084 993 1084 591 c 0
 1084 168 874 0 513 0 c 2
 152 0 l 2
 118 0 101 21 101 43 c 0
 101 64 118 86 151 86 c 2
 314 86 l 1
 314 572 l 5
 172 572 l 6
978 591 m 0
 978 907 827 1085 534 1085 c 2
 420 1085 l 1
 420 648 l 5
 607 648 l 6
 640.015 648 645.917 629.864 645.917 611.312 c 4
 645.917 591.885 638.481 572 605 572 c 6
 420 572 l 5
 420 86 l 1
 520 86 l 2
 851 86 978 256 978 591 c 0
EndSplineSet
EndChar

StartChar: Tbar
Encoding: 423 358 424
Width: 1240
VWidth: 0
Flags: HMW
LayerCount: 2
Fore
SplineSet
839 648 m 6
 872 648 878 630 878 611 c 4
 878 592 870 572 837 572 c 6
 404 572 l 6
 367 572 358 592 358 611 c 4
 358 630 365 648 400 648 c 6
 839 648 l 6
EndSplineSet
Refer: 94 84 N 1 0 0 1 0 0 3
EndChar

StartChar: tbar
Encoding: 424 359 425
Width: 1240
VWidth: 0
Flags: HMW
LayerCount: 2
Fore
SplineSet
765 504 m 6
 798 504 804 486 804 467 c 4
 804 448 796 428 763 428 c 6
 320 428 l 6
 283 428 274 448 274 467 c 4
 274 486 281 504 316 504 c 6
 765 504 l 6
EndSplineSet
Refer: 310 116 N 1 0 0 1 0 0 3
EndChar

StartChar: product
Encoding: 402 8719 427
Width: 1240
VWidth: 0
Flags: HMW
LayerCount: 2
Fore
SplineSet
143 0 m 2
 110 0 93 22 93 44 c 0
 93 65 109 86 141 86 c 2
 265 86 l 1
 265 1085 l 1
 157 1085 l 2
 124 1085 107 1106 107 1128 c 0
 107 1149 124 1171 157 1171 c 2
 1097 1171 l 2
 1130 1171 1147 1150 1147 1130 c 0
 1147 1107 1130 1085 1097 1085 c 2
 997 1085 l 1
 997 86 l 1
 1097 86 l 2
 1130 86 1147 65 1147 43 c 0
 1147 22 1130 0 1097 0 c 2
 803 0 l 2
 770 0 753 22 753 44 c 0
 753 65 769 86 801 86 c 2
 901 86 l 1
 901 1085 l 1
 361 1085 l 1
 361 86 l 1
 461 86 l 2
 493 86 509 66 509 46 c 0
 509 23 492 0 459 0 c 2
 143 0 l 2
EndSplineSet
EndChar

StartChar: uni2215
Encoding: 404 8725 428
Width: 1240
VWidth: 0
Flags: HMW
LayerCount: 2
Fore
SplineSet
247 -178 m 2
 914 1152 l 2
 921 1166 936 1173 951 1173 c 0
 974 1173 997 1158 997 1134 c 0
 997 1128 995 1121 991 1113 c 2
 327 -213 l 2
 318 -230 304 -237 290 -237 c 0
 267 -237 243 -219 243 -195 c 0
 243 -189 244 -184 247 -178 c 2
EndSplineSet
EndChar

StartChar: infinity
Encoding: 405 8734 429
Width: 1240
VWidth: 0
Flags: HMW
LayerCount: 2
Fore
SplineSet
568 664 m 1
 503 694 387 768 331 768 c 0
 264 768 230 715 230 663 c 0
 230 611 264 559 331 559 c 0
 387 559 503 635 568 664 c 1
672 664 m 1
 737 635 853 559 909 559 c 0
 976 559 1010 611 1010 664 c 0
 1010 716 977 768 909 768 c 0
 853 768 737 694 672 664 c 1
620 585 m 1
 552 548 431 470 314 470 c 0
 193 470 132 568 132 665 c 0
 132 761 192 857 311 857 c 0
 429 857 549 775 620 739 c 1
 691 775 811 857 929 857 c 0
 1048 857 1108 761 1108 664 c 0
 1108 567 1047 470 926 470 c 0
 809 470 688 548 620 585 c 1
EndSplineSet
EndChar

StartChar: integral
Encoding: 406 8747 430
Width: 1240
VWidth: 0
Flags: HMW
LayerCount: 2
Fore
SplineSet
623 48 m 2
 602 -193 422 -211 296 -211 c 0
 270 -211 262 -198 262 -174 c 0
 262 -170 263 -166 263 -161 c 2
 273 -43 l 2
 275 -23 298 -13 318 -13 c 0
 337 -13 353 -21 353 -36 c 2
 353 -39 l 1
 345 -137 l 1
 430 -137 514 -103 527 46 c 2
 594 838 l 2
 614 1079 743 1188 988 1188 c 0
 1016 1188 1041 1171 1041 1142 c 2
 1041 1137 l 1
 1031 1020 l 2
 1029 1000 1005 990 981 990 c 0
 961 990 941 998 941 1014 c 2
 941 1016 l 1
 949 1118 l 1
 803 1105 709 1062 690 841 c 2
 623 48 l 2
EndSplineSet
EndChar

StartChar: approxequal
Encoding: 407 8776 431
Width: 1240
VWidth: 0
Flags: HMW
LayerCount: 2
Back
SplineSet
462.521 913.151 m 4
 542.95 913.151 732.688 814.179 781.03 814.179 c 4
 811.725 814.179 857.961 857.324 876 890.555 c 4
 879.114 896.265 885.328 898.674 892.734 898.674 c 4
 913.863 898.674 944.702 879.065 941 860.555 c 5
 920.54 808.96 852.672 736 784.723 736 c 4
 689.453 736 532.178 833.651 464.536 833.651 c 4
 438.592 833.651 389.896 807.609 372 765.555 c 4
 368.274 757.087 359.5 753.552 349.641 753.552 c 4
 331.165 753.552 308.882 765.966 308.882 781.584 c 4
 308.882 839.109 401.675 913.151 462.521 913.151 c 4
EndSplineSet
Fore
SplineSet
870 678 m 4
 874 685 880 687 887 687 c 4
 907 687 936 666 936 652 c 4
 936 651 936 649 935 648 c 4
 882 556 824 527 764 527 c 4
 659 527 551 618 464 618 c 4
 427 618 393 601 366 553 c 4
 362 546 355 543 347 543 c 4
 328 543 304 559 304 573 c 4
 304 575 304 577 305 578 c 4
 349 676 406 707 468 707 c 4
 573 707 691 619 779 619 c 4
 816 619 847 634 870 678 c 4
870 891 m 0
 874 898 880 900 887 900 c 0
 907 900 936 879 936 865 c 0
 936 864 936 862 935 861 c 0
 882 769 824 739 764 739 c 0
 659 739 551 831 464 831 c 0
 427 831 393 814 366 766 c 0
 362 759 355 756 347 756 c 0
 328 756 304 772 304 786 c 0
 304 788 304 790 305 791 c 0
 349 889 406 920 468 920 c 0
 573 920 691 831 779 831 c 0
 816 831 847 847 870 891 c 0
EndSplineSet
EndChar

StartChar: notequal
Encoding: 408 8800 432
Width: 1240
VWidth: 0
Flags: HMW
LayerCount: 2
Fore
SplineSet
898 689 m 6
 928 689 943 666 943 644 c 4
 943 621 928 598 898 598 c 6
 734 598 l 5
 609 347 l 5
 888 347 l 6
 918 347 933 324 933 302 c 4
 933 279 918 256 888 256 c 6
 564 256 l 5
 418 -36 l 6
 409 -53 395 -60 380 -60 c 4
 357 -60 333 -42 333 -19 c 4
 333 -13 335 -7 338 -1 c 6
 466 256 l 5
 319 256 l 6
 289 256 274 279 274 302 c 4
 274 324 289 347 319 347 c 6
 512 347 l 5
 638 598 l 5
 329 598 l 6
 299 598 284 621 284 644 c 4
 284 666 299 689 329 689 c 6
 683 689 l 5
 811 945 l 6
 818 959 833 966 848 966 c 4
 871 966 894 951 894 927 c 4
 894 921 892 914 888 906 c 6
 780 689 l 5
 898 689 l 6
EndSplineSet
EndChar

StartChar: lessequal
Encoding: 409 8804 433
Width: 1240
VWidth: 0
Flags: HMW
LayerCount: 2
Fore
SplineSet
958 86 m 2
 988 86 1003 65 1003 43 c 0
 1003 22 988 0 958 0 c 2
 243 0 l 2
 213 0 198 22 198 43 c 0
 198 65 213 86 243 86 c 2
 958 86 l 2
207 497 m 6
 190 503 181 527 181 550 c 4
 181 574 191 599 207 605 c 6
 955 896 l 2
 958 897 962 898 965 898 c 0
 988 898 1009 869 1009 844 c 0
 1009 830 1004 818 988 812 c 2
 299 554 l 5
 998 291 l 2
 1018 284 1025 269 1025 253 c 0
 1025 228 1005 202 981 202 c 0
 976 202 972 203 967 205 c 2
 207 497 l 6
EndSplineSet
EndChar

StartChar: greaterequal
Encoding: 410 8805 434
Width: 1240
VWidth: 0
Flags: HMW
LayerCount: 2
Fore
SplineSet
228 86 m 2
 943 86 l 2
 973 86 988 65 988 43 c 0
 988 22 973 0 943 0 c 2
 228 0 l 2
 198 0 183 22 183 43 c 0
 183 65 198 86 228 86 c 2
999 497 m 2
 239 205 l 6
 234 203 230 202 225 202 c 4
 201 202 181 228 181 253 c 4
 181 269 189 282 208 291 c 5
 907 554 l 1
 218 812 l 5
 203 819 197 830 197 844 c 4
 197 869 218 898 241 898 c 4
 244 898 248 897 251 896 c 6
 999 605 l 2
 1015 599 1025 574 1025 550 c 0
 1025 527 1016 503 999 497 c 2
EndSplineSet
EndChar

StartChar: lozenge
Encoding: 411 9674 435
Width: 1240
VWidth: 0
Flags: HMW
LayerCount: 2
Fore
SplineSet
435 611 m 1
 617 111 l 1
 805 611 l 1
 623 1111 l 1
 435 611 l 1
351 611 m 1
 556 1134 l 2
 572 1176 600 1189 627 1189 c 0
 652 1189 676 1181 692 1139 c 2
 889 611 l 1
 684 88 l 2
 668 46 640 33 613 33 c 0
 588 33 564 41 548 83 c 2
 351 611 l 1
EndSplineSet
EndChar

StartChar: Eth
Encoding: 141 208 441
Width: 1240
VWidth: 0
Flags: HMW
LayerCount: 2
Fore
SplineSet
172 572 m 6
 135 572 126 592 126 611 c 4
 126 630 133 648 168 648 c 6
 314 648 l 5
 314 1085 l 1
 155 1085 l 2
 123 1085 107 1106 107 1127 c 0
 107 1149 124 1171 157 1171 c 2
 515 1171 l 2
 858 1171 1084 993 1084 591 c 0
 1084 168 874 0 513 0 c 2
 152 0 l 2
 118 0 101 21 101 43 c 0
 101 64 118 86 151 86 c 2
 314 86 l 1
 314 572 l 5
 172 572 l 6
978 591 m 0
 978 907 827 1085 534 1085 c 2
 420 1085 l 1
 420 648 l 5
 607 648 l 6
 640 648 646 630 646 611 c 4
 646 592 638 572 605 572 c 6
 420 572 l 5
 420 86 l 1
 520 86 l 2
 851 86 978 256 978 591 c 0
EndSplineSet
EndChar
